<svg xmlns="http://www.w3.org/2000/svg" viewBox="188 3135.303 26.844 11.062">
  <defs>
    <style>
      .cls-1 {
        opacity: 0.6;
      }
    </style>
  </defs>
  <path id="path41" class="cls-1" d="M-86.468-23.691v.172c0,.094.015.141.109.141,1.594.047,1.594.219,1.594,1.469v1c0,1.062-.688,1.719-2.078,1.719-2.328,0-3.329-2.234-3.329-5.047,0-2.656.719-5.2,3.282-5.2a2.708,2.708,0,0,1,2.766,2.766c0,.11.062.11.141.11h.156c-.015-.72-.032-2.438-.032-3.173h-.093c-.109,0-.156.015-.172.078l-.141.781h-.015a4.128,4.128,0,0,0-2.766-.968c-3.015,0-5.015,2.562-5.015,5.656a6.185,6.185,0,0,0,.156,1.453l-.031.438c-.172,2.374-1.563,3.109-3.031,3.109-2.328,0-3.437-2.14-3.437-5.047,0-2.641.656-5.2,3.219-5.2a2.612,2.612,0,0,1,2.656,2.187c.016.11.063.11.14.11h.157c-.015-.719-.032-1.859-.032-2.594h-.094c-.109,0-.156.015-.172.078l-.14.766h-.016a3.993,3.993,0,0,0-2.688-.953c-2.953,0-4.922,2.562-4.922,5.656a7.1,7.1,0,0,0,.063.828h-.031a4.016,4.016,0,0,0-3.2-1.328v-.032c1.548-.312,2.594-1.094,2.594-2.406,0-2-2.156-2.5-3.891-2.5-.468,0-1.531.031-1.859.031-.765,0-1.594-.015-2.312-.031v.171c0,.094.015.141.11.141,1.265.048,1.265.219,1.265,2.172v5.656c0,1.952,0,2.125-1.249,2.172-.11,0-.125.047-.125.141V-19c.734-.015,1.438-.03,2.187-.03.938,0,1.344.03,2.578.03,2.594,0,4.2-1.234,4.313-2.812h.031A5,5,0,0,0-95-18.785a4.545,4.545,0,0,0,2.891-1h.015l.141.813c.016.062.062.077.171.077h.094c0-.515.015-1.921.032-2.968h.031a4.873,4.873,0,0,0,4.687,3.078c2.078,0,2.844-1.3,3.734-1.3.079,0,.11-.031.11-.156,0-.156-.031-.609-.031-.875v-.719c0-1.328,0-1.5.906-1.547.109,0,.124-.047.124-.141v-.172c-.734.015-1.218.031-1.968.031C-84.827-23.661-85.749-23.676-86.468-23.691Zm-17.781,4.281c-1.406,0-1.625-.234-1.625-2.187v-2.813h.625c1.875,0,3.578.454,3.578,2.47A2.331,2.331,0,0,1-104.249-19.41Zm-1.625-5.374v-4.25c0-.11.015-.141.172-.157.219-.015.75-.032,1-.032a2.007,2.007,0,0,1,2.14,2.235c0,1.626-1,2.2-2.656,2.2h-.656" transform="translate(296.937 3165.151)"/>
</svg>
