<?xml version="1.0" encoding="utf-8"?>
<!-- Generator: Adobe Illustrator 22.0.1, SVG Export Plug-In . SVG Version: 6.00 Build 0)  -->
<svg version="1.1" id="Layer_1" xmlns="http://www.w3.org/2000/svg" xmlns:xlink="http://www.w3.org/1999/xlink" x="0px" y="0px"
	 viewBox="0 0 150.2 132.4" style="enable-background:new 0 0 150.2 132.4;" xml:space="preserve">
<style type="text/css">
	.st0{fill:#EDEDFC;}
	.st1{fill:#FEFEFE;}
	.st2{fill:none;stroke:#5526C6;stroke-width:3.5;}
</style>
<path class="st0" d="M50.1,48.6c-7.6,1.6-14,5.9-21,8.9c-4.8,2.1-9.6,3.9-14.8,3.9C8.8,61.5,3.8,56.8,3,51.2
	c-0.6-4.4,3.6-11,8.3-11.9c12.2-2.5,22.3-9.8,33.5-14.6C55,20.3,64.7,14.4,76.1,13.2c4.4-0.5,8,1.3,10,4.9c2.3,4,2.3,8.2-0.3,12.7
	c-4.5,7.7-8.3,15.7-12.5,23.7c1.7,1.2,2.6-0.2,3.7-1c10.5-8.2,21.4-15.9,32.7-23c5-3.2,11.8-2.8,15.8,0.9c4.3,3.9,5.2,9.5,2.4,15.1
	c-2.7,5.2-5.5,10.4-8.3,15.6c-0.7,1.3-2.9,2.7-1.3,4.1c1.7,1.5,2.7-0.9,3.7-1.9c2.6-2.9,5.8-3.8,9.6-3.8c4.4,0,8.6,0.6,10,5.3
	c1.3,4.5,2.1,9.2-2.1,13.3c-15.1,14.9-30.7,29.1-48,41.4c-7.6,5.4-12.6,4.6-18.6-1.3c-3.8-3.8-3.9-7.7-1.9-12.2
	c3.4-7.4,6.8-14.8,10.2-22.3c0.8-1.7,1.4-3.4,2.1-5.2c-0.4-0.3-0.8-0.6-1.1-0.9c-6.7,5.4-13.1,11.1-20,16.2
	c-5.1,3.8-8.7,9.4-15,11.8c-4.2,1.6-7.5,0.8-10.7-2.3c-3.4-3.3-5.6-6.8-4.1-11.8c3.8-13.2,9.2-25.7,15.4-37.9
	C48.9,52.7,49.4,50.6,50.1,48.6c0.1-0.1,0.2-0.3,0.2-0.5C50.3,48.3,50.2,48.5,50.1,48.6z"/>
<path class="st1" d="M333,47.4c0.1-0.1,0.2-0.3,0.2-0.4C333.2,47.1,333.1,47.3,333,47.4L333,47.4z"/>
<g>
	<polyline class="st2" points="76.5,51.7 76.5,71.4 89.7,80.2 	"/>
	<g>
		<circle class="st2" cx="78.8" cy="68.4" r="39"/>
		<line class="st2" x1="16.1" y1="68.8" x2="30.6" y2="68.8"/>
		<line class="st2" x1="21.7" y1="81.2" x2="30.6" y2="81.2"/>
		<line class="st2" x1="21.7" y1="55.5" x2="30.6" y2="55.5"/>
	</g>
</g>
</svg>
