<?xml version="1.0" encoding="utf-8"?>
<!-- Generator: Adobe Illustrator 22.0.1, SVG Export Plug-In . SVG Version: 6.00 Build 0)  -->
<svg version="1.1" id="Layer_1" xmlns="http://www.w3.org/2000/svg" xmlns:xlink="http://www.w3.org/1999/xlink" x="0px" y="0px"
	 viewBox="0 0 150.2 132.4" style="enable-background:new 0 0 150.2 132.4;" xml:space="preserve">
<style type="text/css">
	.st0{fill:#EDEDFC;}
	.st1{fill:#FEFEFE;}
	.st2{fill:#5526C6;}
	.st3{fill:#FFFFFF;}
</style>
<path class="st0" d="M50.1,48.6c-7.6,1.6-14,5.9-21,8.9c-4.8,2.1-9.6,3.9-14.8,3.9C8.8,61.5,3.8,56.8,3,51.2
	c-0.6-4.4,3.6-11,8.3-11.9c12.2-2.5,22.3-9.8,33.5-14.6C55,20.3,64.7,14.4,76.1,13.2c4.4-0.5,8,1.3,10,4.9c2.3,4,2.3,8.2-0.3,12.7
	c-4.5,7.7-8.3,15.7-12.5,23.7c1.7,1.2,2.6-0.2,3.7-1c10.5-8.2,21.4-15.9,32.7-23c5-3.2,11.8-2.8,15.8,0.9c4.3,3.9,5.2,9.5,2.4,15.1
	c-2.7,5.2-5.5,10.4-8.3,15.6c-0.7,1.3-2.9,2.7-1.3,4.1c1.7,1.5,2.7-0.9,3.7-1.9c2.6-2.9,5.8-3.8,9.6-3.8c4.4,0,8.6,0.6,10,5.3
	c1.3,4.5,2.1,9.2-2.1,13.3c-15.1,14.9-30.7,29.1-48,41.4c-7.6,5.4-12.6,4.6-18.6-1.3c-3.8-3.8-3.9-7.7-1.9-12.2
	c3.4-7.4,6.8-14.8,10.2-22.3c0.8-1.7,1.4-3.4,2.1-5.2c-0.4-0.3-0.8-0.6-1.1-0.9C75.5,84,69.1,89.7,62.2,94.8
	c-5.1,3.8-8.7,9.4-15,11.8c-4.2,1.6-7.5,0.8-10.7-2.3c-3.4-3.3-5.6-6.8-4.1-11.8c3.8-13.2,9.2-25.7,15.4-37.9
	C48.9,52.7,49.4,50.6,50.1,48.6c0.1-0.1,0.2-0.3,0.2-0.5C50.3,48.3,50.2,48.5,50.1,48.6z"/>
<path class="st1" d="M333,47.4c0.1-0.1,0.2-0.3,0.2-0.4C333.2,47.1,333.1,47.3,333,47.4C333,47.4,333,47.4,333,47.4z"/>
<g id="Group_89" transform="translate(0.25 0.25)">
	<g id="Group_26" transform="translate(11.684 62.313)">
		<g id="Group_25">
			<path id="Path_62" class="st2" d="M46.1,35.7c-7.2-3.1-13.1-8.5-16.9-15.3c-0.4-0.6-1.2-0.9-1.9-0.5c-0.6,0.4-0.8,1.1-0.5,1.8
				c4.1,7.4,10.5,13.2,18.2,16.5c0.7,0.3,1.5,0,1.8-0.7C47.1,36.8,46.8,36,46.1,35.7L46.1,35.7z"/>
		</g>
	</g>
	<g id="Group_28" transform="translate(57.697 62.314)">
		<g id="Group_27">
			<path id="Path_63" class="st2" d="M46.2,19.9c-0.7-0.4-1.5-0.1-1.8,0.5c0,0,0,0,0,0c-3.8,6.9-9.7,12.3-16.9,15.3
				c-0.7,0.3-1,1.1-0.7,1.8c0.3,0.7,1.1,1,1.8,0.7c0,0,0,0,0,0c7.7-3.3,14.2-9.1,18.2-16.5C47.1,21,46.9,20.2,46.2,19.9
				C46.2,19.9,46.2,19.9,46.2,19.9z"/>
		</g>
	</g>
	<g id="Group_30" transform="translate(55.072 10.591)">
		<g id="Group_29">
			<path id="Path_64" class="st2" d="M48.5,35.8c-4.6-7.5-11.7-13.2-20.1-16.1c-0.7-0.2-1.5,0.2-1.7,0.9c-0.2,0.7,0.1,1.4,0.8,1.7
				C35.4,25,42,30.2,46.2,37.2c0.4,0.6,1.2,0.8,1.9,0.4C48.7,37.3,48.9,36.5,48.5,35.8z"/>
		</g>
	</g>
	<g id="Group_32" transform="translate(12.523 10.589)">
		<g id="Group_31">
			<path id="Path_65" class="st2" d="M48.7,20.6c-0.2-0.7-1-1.1-1.7-0.9c-8.4,2.8-15.5,8.5-20.1,16.1c-0.4,0.6-0.2,1.5,0.4,1.9
				c0.6,0.4,1.5,0.2,1.9-0.4c0,0,0,0,0,0c4.3-7,10.9-12.3,18.6-14.9C48.5,22.1,48.9,21.3,48.7,20.6z"/>
		</g>
	</g>
	<g id="Group_34" transform="translate(34.78)">
		<g id="Group_33">
			<path id="Path_66" class="st2" d="M44.4,37.9L41,36.2c0,0-0.1,0-0.1-0.1v-2c1.8-1.3,2.9-3.5,2.9-5.7v-2.9c0-3.1-2.6-5.7-5.7-5.7
				h-2.9c-3.1,0-5.7,2.6-5.7,5.7v2.9c0,2.3,1.1,4.4,2.9,5.7v2.1c0,0,0,0.1-0.1,0.1L29,37.9c-1.4,0.7-2.4,2.2-2.4,3.8v4
				c0,0.7,0.6,1.4,1.4,1.4c0.7,0,1.4-0.6,1.4-1.4v-4c0-0.6,0.3-1.1,0.9-1.4l2.3-1.2l2.1,2.1c1.1,1.1,2.9,1.1,4,0c0,0,0,0,0,0
				l2.1-2.1l2.4,1.2c0.5,0.3,0.9,0.8,0.9,1.4v4c0,0.7,0.6,1.4,1.4,1.4c0.7,0,1.4-0.6,1.4-1.4v-4C46.8,40.1,45.9,38.6,44.4,37.9z
				 M36.8,39.4c0,0-0.1,0-0.1,0c0,0,0,0,0,0l-1.9-1.9c0.2-0.4,0.4-0.9,0.4-1.4v-0.8c1,0.2,2.1,0.2,3.1,0v0.8c0,0.5,0.1,1,0.4,1.4
				L36.8,39.4z M36.7,32.7c-2.5,0-4.4-2-4.4-4.4v-2.9l0,0c0-1.7,1.3-3,3-3h2.9c1.6,0,3,1.3,3,3v2.9C41.2,30.7,39.2,32.7,36.7,32.7
				L36.7,32.7z"/>
		</g>
	</g>
	<g id="Group_36" transform="translate(34.78 65.212)">
		<g id="Group_35">
			<path id="Path_67" class="st2" d="M44.4,37.9L41,36.2c0,0-0.1,0-0.1-0.1V34c1.8-1.3,2.9-3.5,2.9-5.7v-2.9c0-3.1-2.6-5.7-5.7-5.7
				h-2.9c-3.1,0-5.7,2.6-5.7,5.7v2.9c0,2.3,1.1,4.4,2.9,5.7v2.1c0,0,0,0.1-0.1,0.1L29,37.9c-1.4,0.7-2.4,2.2-2.4,3.8v4
				c0,0.7,0.6,1.4,1.4,1.4c0.7,0,1.4-0.6,1.4-1.4l0,0v-4c0-0.6,0.3-1.1,0.9-1.4l2.3-1.2l2.1,2.1c1.1,1.1,2.9,1.1,4,0c0,0,0,0,0,0
				l2.1-2.1l2.4,1.2c0.5,0.3,0.9,0.8,0.9,1.4v4c0,0.7,0.6,1.4,1.4,1.4c0.7,0,1.4-0.6,1.4-1.4v-4C46.8,40.1,45.9,38.6,44.4,37.9z
				 M36.8,39.4c0,0-0.1,0-0.1,0c0,0,0,0,0,0l-1.9-1.9c0.2-0.4,0.4-0.9,0.4-1.4v-0.8c1,0.2,2.1,0.2,3.1,0v0.8c0,0.5,0.1,1,0.4,1.4
				L36.8,39.4z M36.7,32.7c-2.5,0-4.4-2-4.4-4.4v-2.9l0,0c0-1.7,1.3-3,3-3h2.9c1.7,0,3,1.3,3,3v2.9C41.2,30.7,39.2,32.7,36.7,32.7z"
				/>
		</g>
	</g>
	<g id="Group_38" transform="translate(0 31.882)">
		<g id="Group_37">
			<path id="Path_68" class="st2" d="M44.4,37.9L41,36.2c0,0-0.1,0-0.1-0.1V34c1.8-1.3,2.9-3.5,2.9-5.7v-2.9c0-3.1-2.6-5.7-5.7-5.7
				h-2.9c-3.1,0-5.7,2.6-5.7,5.7v2.9c0,2.3,1.1,4.4,2.9,5.7v2.1c0,0,0,0.1-0.1,0.1L29,37.9c-1.4,0.7-2.4,2.2-2.4,3.8v4
				c0,0.7,0.6,1.4,1.4,1.4c0.7,0,1.4-0.6,1.4-1.4v-4c0-0.6,0.3-1.1,0.9-1.4l2.4-1.2l2.1,2.1c1.1,1.1,2.9,1.1,4,0l2.1-2.1l2.4,1.2
				c0.5,0.3,0.9,0.8,0.9,1.4v4c0,0.7,0.6,1.4,1.4,1.4c0.7,0,1.4-0.6,1.4-1.4v-4C46.8,40.1,45.9,38.6,44.4,37.9z M36.8,39.4
				c0,0-0.1,0-0.1,0c0,0,0,0,0,0l-1.9-1.9c0.2-0.4,0.4-0.9,0.4-1.4v-0.8c1,0.2,2.1,0.2,3.1,0v0.8c0,0.5,0.1,1,0.4,1.4L36.8,39.4z
				 M36.7,32.7c-2.5,0-4.4-2-4.4-4.4v-2.9l0,0c0-1.7,1.3-3,3-3h2.9c1.7,0,3,1.3,3,3v2.9C41.2,30.7,39.2,32.7,36.7,32.7z"/>
		</g>
	</g>
	<g id="Group_40" transform="translate(69.56 31.882)">
		<g id="Group_39">
			<path id="Path_69" class="st2" d="M44.4,37.9L41,36.2c0,0-0.1,0-0.1-0.1V34c1.8-1.3,2.9-3.5,2.9-5.7v-2.9c0-3.1-2.6-5.7-5.7-5.7
				h-2.9c-3.1,0-5.7,2.6-5.7,5.7v2.9c0,2.3,1.1,4.4,2.9,5.7v2.1c0,0,0,0.1-0.1,0.1L29,37.9c-1.4,0.7-2.4,2.2-2.4,3.8v4
				c0,0.7,0.6,1.4,1.4,1.4c0.7,0,1.4-0.6,1.4-1.4v-4c0-0.6,0.3-1.1,0.9-1.4l2.4-1.2l2.1,2.1c1.1,1.1,2.9,1.1,4,0l2.1-2.1l2.4,1.2
				c0.5,0.3,0.9,0.8,0.9,1.4v4c0,0.7,0.6,1.4,1.4,1.4c0.7,0,1.4-0.6,1.4-1.4c0,0,0,0,0,0v-4C46.8,40.1,45.9,38.6,44.4,37.9z
				 M36.8,39.4c0,0-0.1,0-0.1,0c0,0,0,0,0,0l-1.9-1.9c0.2-0.4,0.4-0.9,0.4-1.4v-0.8c1,0.2,2.1,0.2,3.1,0v0.8c0,0.5,0.1,1,0.4,1.4
				L36.8,39.4z M36.7,32.7c-2.5,0-4.4-2-4.4-4.4v-2.9l0,0c0-1.7,1.3-3,3-3h2.9c1.7,0,3,1.3,3,3v2.9C41.2,30.7,39.2,32.7,36.7,32.7
				L36.7,32.7z"/>
		</g>
	</g>
</g>
<rect x="154.1" y="-127.1" class="st3" width="1.5" height="5.7"/>
</svg>
