<svg xmlns="http://www.w3.org/2000/svg" viewBox="0 0 1728 177.12"><defs><style>.cls-1{fill:#fff;}</style></defs><title>Asset 7</title><g id="Layer_2" data-name="Layer 2"><g id="Layer_1-2" data-name="Layer 1"><path d="M0,134.88a3.34,3.34,0,0,0,1,0c5.38-1.48,10.76-3,16.37-4.54v-2.41q0-46.32,0-92.63a5.17,5.17,0,0,0-1.5-3.83c-3.1-3.35-6-6.87-9.17-10.15a6.11,6.11,0,0,1-1.93-5.36c.08-.54.07-1.11.1-1.86.72-.05,1.41-.14,2.1-.14,5.52,0,11,.05,16.56,0A4,4,0,0,1,27,15.5Q50.13,43,73.39,70.51,88,87.84,102.67,105.16c.48.58,1,1.09,1.61,1.66,1-.89.67-1.83.68-2.64,0-8.64,0-17.28,0-25.92V32.42A8.19,8.19,0,0,0,99.13,25L86.53,21.8V15.27c1.69-.46,42.54-.64,46.59-.19V21l-16.91,5.19V141.72c-2.41,0-4.62.11-6.8-.07-.62-.05-1.26-.89-1.75-1.48Q98.06,128.8,88.5,117.4L30.16,47.94c-.45-.54-.94-1-1.67-1.85-.1.93-.2,1.52-.2,2.1q0,38.28,0,76.56a5.8,5.8,0,0,0,1.23,3.48,9.27,9.27,0,0,0,6.21,4c3.58.74,7.09,1.85,10.71,2.83v5.47a8.35,8.35,0,0,1-1.54.29q-21.84,0-43.68,0A8,8,0,0,1,0,140.64Z"/><path d="M1728,152.64c-.38,1.36-.66,2.76-1.16,4.08a24.2,24.2,0,0,1-12,13.18,51.13,51.13,0,0,1-19.68,5.65,91.63,91.63,0,0,1-20.34-.34,35.44,35.44,0,0,1-10.12-2.82,23.75,23.75,0,0,1-4.51-2.68,12.39,12.39,0,0,1-1.29-18.43,18.57,18.57,0,0,1,7.92-4.78c.38-.12.77-.21,1.15-.33,0,0,.08-.11.3-.42-5.38-4.38-7.31-10.29-7.07-17.11s3.77-12,9.31-16.1c-.75-.53-1.34-.93-1.91-1.34-1.61-1.18-3.26-2.32-4.82-3.56a20.19,20.19,0,0,1-7.73-15.35c-.83-13.62,6.39-23.94,19.69-27.86a39.4,39.4,0,0,1,25.42.66c2.47.91,4.88,2,7.39,2.8a17.84,17.84,0,0,0,5.36,1,9.37,9.37,0,0,0,8.44-5c.83-1.46,1.48-3,2.25-4.5,1.11-2.14,1.8-2.2,3.38-.34V69.12c-.16.76-.38,1.52-.48,2.29-.53,4.25-2,7.88-6.22,9.81a3.84,3.84,0,0,0-.78.57c0,1.8,0,3.4,0,5a40,40,0,0,1-.45,6.2c-2.06,10.48-8.53,17-18.54,20.26-6.34,2-12.86,2.23-19.44,1.78a28.76,28.76,0,0,0-5.72.08,5.93,5.93,0,0,0-5.3,5.14,21.29,21.29,0,0,0-.07,5.47,3.49,3.49,0,0,0,2.2,2.94,10.54,10.54,0,0,0,3,.93c3.73.38,7.47.74,11.21.89,6.78.27,13.57.27,20.35.61a31.08,31.08,0,0,1,11.8,2.86c4.44,2.1,7.56,5.29,8.15,10.43,0,.21.24.39.36.59Zm-25.25-62.28c-.07-1.43-.06-2.88-.21-4.31a26.58,26.58,0,0,0-4.18-12.6c-4.94-7.21-17.06-7.91-22,1.3A21.29,21.29,0,0,0,1674.7,79a35.43,35.43,0,0,0-.61,16.38A23.54,23.54,0,0,0,1678,105a12,12,0,0,0,7.14,4.93,13.08,13.08,0,0,0,15.37-7.66A28.71,28.71,0,0,0,1702.75,90.36Zm-13.13,57.23,0,.23c-3.92,0-7.84.1-11.76,0-3.06-.1-5.92,1.26-7.28,5.4a12.07,12.07,0,0,0,5.65,14.39,19.84,19.84,0,0,0,4.66,1.84,45.43,45.43,0,0,0,19,.19,23.35,23.35,0,0,0,8.72-3.19A11.42,11.42,0,0,0,1714.1,155a5.23,5.23,0,0,0-3.21-4.7,18.29,18.29,0,0,0-5-1.44C1700.46,148.3,1695,148,1689.62,147.59Z"/><path d="M1147.2,0a23.55,23.55,0,0,0-.23,2.36q0,86.07,0,172.15c0,.87.12,1.74.18,2.61h-3.36c.05-.87.14-1.75.14-2.62V2.62c0-.87-.09-1.75-.14-2.62Z"/><path d="M378,18.29v-4c2.6-1.57,27.7-9.81,29.86-9.71-.26,10-.63,19.9-.76,29.86s0,20,0,30.35c.78-.48,1.36-.79,1.9-1.18a108.43,108.43,0,0,1,16-9.69c7.76-3.84,15.76-4.31,24-2.1,9.93,2.66,15.94,9.08,18,19.1a48.11,48.11,0,0,1,.92,9.28c.09,14.87,0,29.75,0,44.62a8.63,8.63,0,0,0,5.3,7.46c3.46,1.22,6.93,2.42,10.49,3.66v4.7h-44v-4.85l12-4.64c0-2.49,0-5,0-7.42.15-11.67.38-23.35.41-35a41.84,41.84,0,0,0-1-9.26c-1.78-7.9-6.68-12.94-14.66-14.71-6.25-1.39-12.5-1.75-18.66.53a30.2,30.2,0,0,0-9.53,5.88A3.57,3.57,0,0,0,407,74.08q.06,25.67,0,51.34a4.79,4.79,0,0,0,.93,2.86,11,11,0,0,0,6.58,4.77c2.83.76,5.55,1.92,8.34,2.91v4.42c-1.68.54-39.53.75-44.06.23,0-.72-.07-1.49-.09-2.25s0-1.59,0-2.5L391.24,131v-2.41q0-45.22-.09-90.44A50.37,50.37,0,0,0,390,27.73c-1.3-6-4.27-8.48-10.34-9.25Z"/><path d="M480,58.09V52.93h37.29v5.26L506,62c5.62,19,11.2,37.88,16.9,57.12a10.59,10.59,0,0,0,.93-1.46q8.49-20.62,17-41.24a4.9,4.9,0,0,0,.09-3.9c-1.37-3.66-2.65-7.36-3.89-11.07a2.67,2.67,0,0,0-2.26-2.1c-1.57-.26-3.08-.77-4.72-1.2V52.94h36.08v5.55L554.81,62c6.36,19.08,12.64,37.94,19,56.86,1.08-1.31,19.32-53,20-56.59L581.3,57.82V52.94h33.8c0,.79.09,1.63.11,2.47s0,1.59,0,2.5a20.09,20.09,0,0,1-2.14.56A13.7,13.7,0,0,0,603.21,65a59.1,59.1,0,0,0-6.05,12.75Q586.53,107.8,576,137.87c-.42,1.2-.87,2.39-1.36,3.73h-9.1q-10-27.63-20-55.46l-.53-.07c-7.63,18.46-15.26,36.92-23,55.53h-8.14c-1.35-4-2.69-8-4-12.06q-9.19-28-18.41-56c-1.08-3.25-2.4-6.44-3.78-9.58S484,58.28,480,58.09Z"/><path d="M1046.43,136c-.15,1.61-.28,3.1-.43,4.68h-43.53v-4.88l12.2-4.7c.05-.59.13-1.06.13-1.53,0-14.24.07-28.48-.11-42.72A87,87,0,0,0,1013.25,75a14.54,14.54,0,0,0-1.36-3.82,10.29,10.29,0,0,0-9.08-6.46c-.32,0-.63-.09-.95-.15-.07,0-.13-.08-.37-.23V60L1011,56.5c3.23-1.18,6.42-2.45,9.69-3.51s6.23-2.78,9.79-3.11v15c1-.71,1.65-1.19,2.32-1.7a94.68,94.68,0,0,1,16-9.68c8-3.78,16.09-3.79,24.29-1.11,9.16,3,14.35,9.52,16,18.87a45.82,45.82,0,0,1,.64,8.11c0,15.12-.07,30.24-.11,45.36a8.75,8.75,0,0,0,5.44,7.62l10.43,3.64c-.08,1.55-.17,3.09-.25,4.71H1061.5v-4.81l12.2-4.68c0-2.61,0-5.16,0-7.7.15-11.6.32-23.19.45-34.79a33.74,33.74,0,0,0-1.4-10.18,18.93,18.93,0,0,0-14.1-13.69,31.82,31.82,0,0,0-14.49-.58A24.41,24.41,0,0,0,1031.93,71a4.29,4.29,0,0,0-1.44,3.36q.06,25.55,0,51.11a5.36,5.36,0,0,0,1,3.08,10.7,10.7,0,0,0,6.45,4.55C1040.79,133.85,1043.52,135,1046.43,136Z"/><path d="M222.93,94.87c-.41,18.64-7.8,32.77-23.55,42.1-18,10.69-40.84,6-53.23-5.91a39.81,39.81,0,0,1-10.66-17.39,53.65,53.65,0,0,1-.38-31.44c5-16.73,16.39-26.89,33.28-30.73a46.3,46.3,0,0,1,30,3.31c13.84,6.31,21.54,17.34,23.84,32.24C222.65,89.81,222.73,92.62,222.93,94.87Zm-17.66,4c-.27-3.1-.38-6.23-.85-9.3-1.18-7.71-3.82-14.86-8.92-20.89-5.73-6.77-13-10.19-21.94-9.66a20.27,20.27,0,0,0-15.13,7.69,28.91,28.91,0,0,0-5.3,10.4,62.22,62.22,0,0,0-1.66,26.35,44.52,44.52,0,0,0,6.4,18.17c4.63,7.18,11,11.72,19.67,12.58,8.23.81,15.11-1.81,20.23-8.49a30.52,30.52,0,0,0,4.36-8.23A59.73,59.73,0,0,0,205.27,98.84Z"/><path d="M915.23,92.1H859.14c.19,2.55.29,4.85.54,7.12A38.62,38.62,0,0,0,864,113.83c5.07,9.29,13,14.24,23.45,15.31,8.27.85,16.21-1,24.09-3.18l3.15-.87c.63,1.17,1.23,2.26,1.87,3.42a12.33,12.33,0,0,1-1,1.15c-8.63,7.63-18.52,12.73-30.16,13.16-16.84.62-29.64-6.5-37.75-21.48a45.57,45.57,0,0,1-5-17.38c-1.08-10.72.13-21.1,5.23-30.75,6.26-11.85,15.8-19.51,29.11-22.07a37.2,37.2,0,0,1,20.31,1.57c10.73,4,16.72,11.87,18.53,23.05A45.88,45.88,0,0,1,915.23,92.1Zm-56.05-6.75a6.63,6.63,0,0,0,1.2.19c10-.35,20.11-.69,30.16-1.11a15.72,15.72,0,0,0,4-.88,6.27,6.27,0,0,0,4.27-4.49,19.72,19.72,0,0,0,.61-3c.77-6.56-1.52-11.87-6.82-14.33-7.74-3.6-15.53-3.58-22.76,1.39-6,4.13-9,10.23-10.12,17.28C859.41,82,859.34,83.64,859.18,85.35Z"/><path d="M687.67,92.08H631.81c.11,2,.17,3.78.32,5.57a40.55,40.55,0,0,0,4.45,16.06c5,9.33,13,14.31,23.39,15.42,8.27.88,16.22-1,24.1-3.13l3.3-.92,1.82,3.36a7.34,7.34,0,0,1-.86,1.1c-8.75,7.78-18.78,12.91-30.6,13.3-15.72.52-28.12-5.84-36.31-19.49-8.94-14.9-9.34-39.08,2.08-55.15,8.31-11.7,19.66-17.75,34.08-17.72a34.36,34.36,0,0,1,15.31,3.46c8.39,4.15,13.35,11,15.24,20a46.82,46.82,0,0,1,0,16.94A6.24,6.24,0,0,1,687.67,92.08Zm-55.82-6.7a6.64,6.64,0,0,0,1,.17c10-.35,20-.68,29.94-1.1a17.55,17.55,0,0,0,4-.78,6.21,6.21,0,0,0,4.68-5,28.43,28.43,0,0,0,.53-6.17c-.13-5-2.44-8.87-7-10.92-7.69-3.49-15.45-3.53-22.56,1.44C634.87,68.37,632.2,76.28,631.85,85.38Z"/><path d="M703.78,115h8.15l.85,3a24.82,24.82,0,0,0,6.09,11c6.19,6.25,13.62,7.7,21.85,5.18,9.24-2.84,10-14.54,5.61-19.29a27.05,27.05,0,0,0-5.83-4.9c-4.1-2.46-8.42-4.56-12.65-6.81-2.33-1.23-4.68-2.42-7-3.71-1.53-.86-3-1.83-4.48-2.78-8.08-5.22-11.5-12.74-11-22.23.53-10.94,5.95-18.41,16.42-21.72,13.26-4.2,26.17-2.36,39.13,2.8-.83,7.44-1.64,14.78-2.46,22.22h-7.68c-.16-1.49-.28-2.91-.46-4.31-.11-1-.26-1.9-.45-2.84-1.3-6.45-5.17-10.3-11.7-11.3a25.85,25.85,0,0,0-12.56.82c-5.51,1.92-7.94,6-7.08,11.74A8.11,8.11,0,0,0,721.36,77,36.4,36.4,0,0,0,727,81.08c5.29,3,10.7,5.74,16,8.63,3.09,1.68,6.18,3.37,9.16,5.21,8.5,5.26,12.43,12.94,12.2,22.93a22.17,22.17,0,0,1-7.41,16.56,31.8,31.8,0,0,1-17.85,8.07,69.49,69.49,0,0,1-25.91-1.83,19.91,19.91,0,0,1-4.25-1.58,7.11,7.11,0,0,1-4.17-6c-.39-5.58-.7-11.17-1-16.75A12.14,12.14,0,0,1,703.78,115Z"/><path d="M366.55,45.4l3.65.71c-.76,6.25-1.5,12.33-2.27,18.62H339.65c-.09.92-.19,1.61-.2,2.3q-.34,23.27-.64,46.52a28,28,0,0,0,.24,5c1.25,7.48,6.74,12.14,14.5,12.47,5.14.21,9-.63,14.61-3.28.69,1.36,1.39,2.73,2.14,4.18-.59.54-1,1-1.52,1.36-5.72,4.36-11.92,7.74-19.1,9a33,33,0,0,1-10.73.33,16,16,0,0,1-13-9.74,35,35,0,0,1-2.8-14.5c0-9.11.22-18.22.38-27.33.1-5.36.25-10.71.37-16.06,0-1.12,0-2.25,0-3.36-.26-4-2-6.33-6-7.39a35.82,35.82,0,0,0-5.66-.87c-1.19-.12-2.39,0-3.89,0-.22-2.53-.1-4.89-.08-7.52l15.58-1.61c1.61-7.19,3.19-14.26,4.79-21.43l11-1.87c.33,7.55,0,14.86.21,22.3a15.17,15.17,0,0,0,1.66.16c6.4-.21,12.79-.48,19.18-.64a3.74,3.74,0,0,0,3.56-2.34C365,48.85,365.7,47.25,366.55,45.4Z"/><path d="M789.25,54.25,794,32.82,805,30.93V53.2a18.05,18.05,0,0,0,2,.18c6.24-.2,12.47-.46,18.7-.62a3.81,3.81,0,0,0,3.75-2.42c.72-1.59,1.46-3.17,2.26-4.89l3.66.59c-.74,6.22-1.48,12.3-2.24,18.65-2.31.24-4.6.09-6.88.12s-4.8,0-7.2,0H805c-.06,2.21-.13,4.18-.16,6.15-.25,14.55-.52,29.1-.72,43.64a22.42,22.42,0,0,0,.58,5.23c1.55,6.66,6.9,10.84,14.09,11.21a28.62,28.62,0,0,0,14.79-3.31c.69,1.38,1.36,2.71,2,4.11a4,4,0,0,1-.57.74c-5.89,4.69-12.31,8.31-19.82,9.69a32.78,32.78,0,0,1-11,.36,15.9,15.9,0,0,1-12.85-9.57,31.41,31.41,0,0,1-2.78-13.28c0-9.35.17-18.7.29-28,.08-6.56.23-13.11.25-19.67,0-4.31-1.79-6.71-6-7.82a37.46,37.46,0,0,0-5.9-.86,33.05,33.05,0,0,0-3.47,0V55.83Z"/><path d="M297.46,51.58l-2.77,20.88c-2.32.45-4.17.2-5.24-2.14a5.21,5.21,0,0,0-4-3c-8.33-1.73-19.52,2.06-23,12.07a20.15,20.15,0,0,0-1.2,6.31c-.1,13.28,0,26.55-.07,39.82a4.74,4.74,0,0,0,1,2.85,10.8,10.8,0,0,0,6.38,4.66c2.84.74,5.58,1.91,8.44,2.91v4.71H233.44c0-.88-.09-1.66-.11-2.43s0-1.44,0-2.34l12.36-4.73a10.1,10.1,0,0,0,.15-1.22c0-14.71.07-29.42-.1-44.13a62.9,62.9,0,0,0-1.46-10.89,16.27,16.27,0,0,0-2-4.86,10.07,10.07,0,0,0-8.09-5.3c-.54,0-1.07-.16-1.71-.26V60.16C236.35,58.1,259.05,50,261.1,50.05l-.4,20.4.45.13c.47-.59,1-1.17,1.42-1.78a67,67,0,0,1,13-13.37c3.11-2.31,6.43-4.22,10.34-4.78A31.85,31.85,0,0,1,297.46,51.58Z"/><path d="M956.24,70.76c.76-1,1.26-1.53,1.73-2.13a68.14,68.14,0,0,1,11.89-12.46c3.24-2.53,6.68-4.68,10.82-5.43,3.93-.7,7.78,0,12,.8-.72,7.08-1.77,14-2.76,21.12-1,0-1.8-.13-2.58-.13a1.77,1.77,0,0,1-1.75-1c-.07-.14-.19-.26-.26-.41-1.33-3-3.9-3.92-6.94-4.14-9-.66-19.17,4.27-21.41,14.91a26.3,26.3,0,0,0-.51,5.24c0,12.63,0,25.26,0,37.9,0,2.61,2.58,6.23,5.1,7.14,2.93,1.05,5.87,2.07,8.81,3.11.66.23,1.31.51,2,.78v4.32c-1.77.54-40.09.7-43.49.19v-4.77L941.2,131v-2.69c0-12.88,0-25.75,0-38.63a55.71,55.71,0,0,0-1.37-13.8,25.67,25.67,0,0,0-2-5.37,10.15,10.15,0,0,0-8.52-5.8c-.46,0-.91-.16-1.48-.25V59.92q13.41-5,26.89-9.93a5,5,0,0,1,1.52,0Z"/><path d="M1238.42,79a5.21,5.21,0,0,0,3.88-2q10.65-10.38,21.29-20.78c5.38-5.24,10.9-10.35,16.16-15.72A81.71,81.71,0,0,0,1287,31.6a15.05,15.05,0,0,0,2.18-4.76c.71-2.52-.12-4-2.58-4.88-1.41-.54-2.91-.83-4.37-1.25A18.27,18.27,0,0,1,1280,20a2.41,2.41,0,0,1-1.36-2.78,2.35,2.35,0,0,1,1.93-2.41,15.26,15.26,0,0,1,3.09-.22c4.48.18,9,.58,13.42.58,5.75,0,11.5-.29,17.25-.46,1.44,0,2.88-.14,4.32-.15a12.66,12.66,0,0,1,2.38.18c1.73.32,2.54,1.13,2.71,2.58s-.42,2.45-2.19,2.94c-8.59,2.38-15.42,7.58-21.82,13.48q-15.69,14.49-31.35,29c-4,3.68-4.13,4.76-.94,9.09q18.7,25.26,37.5,50.44a65.7,65.7,0,0,0,4.69,5.45,31.86,31.86,0,0,0,13.25,8.79c2.17.72,2.62,1.41,2.55,3a1.77,1.77,0,0,1-1.71,1.93,16.49,16.49,0,0,1-2.63,0c-2.63-.18-5.26-.56-7.89-.55-4,0-8,.28-12,.45-.8,0-1.6.06-2.4.15-4.06.43-7.06-1.22-9.42-4.5-5.5-7.66-11.1-15.26-16.66-22.88L1251.8,85.34c-.38-.52-.75-1-1.16-1.53-1.46-1.8-2.19-2-3.92-.37-2.55,2.41-4.93,5-7.27,7.63A6.87,6.87,0,0,0,1238,95.8q0,13.32,0,26.64a19.59,19.59,0,0,0,.33,2.85,10.05,10.05,0,0,0,6.07,8.06c1.89.83,3.93,1.34,5.9,2a25.55,25.55,0,0,1,3.16,1.08,4.35,4.35,0,0,1,1.75,1.54,1.92,1.92,0,0,1-1.46,3.17,35.54,35.54,0,0,1-5.26.19c-8.15-.16-16.31-.49-24.46-.53-5.19,0-10.38.4-15.58.56a36.32,36.32,0,0,1-4.78-.19c-1.93-.19-2.33-.9-1.86-2.72a3.29,3.29,0,0,1,2.18-2.36c1-.4,2.12-.72,3.19-1a9.25,9.25,0,0,0,6.74-6.26,63.93,63.93,0,0,0,1.83-8.39,25,25,0,0,0,.14-4.07q0-38.74,0-77.5a38,38,0,0,0-.67-7.38,11.18,11.18,0,0,0-8.34-9c-1.76-.51-3.57-.85-5.34-1.34a12.74,12.74,0,0,1-2.89-1.09,3,3,0,0,1-1.49-3.27,2.57,2.57,0,0,1,2.54-2.16,15.39,15.39,0,0,1,3.11-.05c13.74,1.12,27.48.75,41.23.06a36.36,36.36,0,0,1,4.55,0c1,.08,2.06.4,2.26,1.73a2.76,2.76,0,0,1-1.59,3.17,11.15,11.15,0,0,1-2.3.62c-5.58,1-7.91,3.39-8.6,9a43.91,43.91,0,0,0-.35,5.5q-.07,20.63,0,41.27A25.82,25.82,0,0,0,1238.42,79Z"/><path d="M1591.32,112.48c-1.23-.83-2.24-1.46-3.2-2.16-1.35-1-2.7-2-4-3.07a20.09,20.09,0,0,1-7.3-15.08,29,29,0,0,1,1.23-10.9c2.54-7.55,7.76-12.59,15-15.55a39.18,39.18,0,0,1,28.81-.69c2.48.87,4.9,1.94,7.39,2.8a16.93,16.93,0,0,0,4.17,1c3.87.31,7.11-1,9.28-4.33.86-1.33,1.49-2.82,2.23-4.23a13.19,13.19,0,0,1,1-1.89,1.37,1.37,0,0,1,2.49.22,3.82,3.82,0,0,1,.4,1.6,47,47,0,0,1-.89,13.12c-.84,3.53-2.51,6.37-6,7.9a3.68,3.68,0,0,0-.76.57c0,1.46-.08,2.9,0,4.33.76,11.43-5.23,23.61-20.72,27.6a52.88,52.88,0,0,1-17.15,1.28c-1.51-.11-3-.21-4.55-.17-4.43.12-7,2.6-7.24,7-.36,5.49.8,7.24,6.26,7.82,5.63.59,11.32.74,17,.85s11.52,0,17.23,1a30.94,30.94,0,0,1,9.1,2.87c4.72,2.47,7.14,6.43,7.68,11.67,1.29,12.69-6.41,20.64-14,24.28a53.59,53.59,0,0,1-21.24,5.37c-6,.22-12,.45-18-.5-5.25-.84-10.37-2.1-14.65-5.5a12.44,12.44,0,0,1-1.38-18.29,17.15,17.15,0,0,1,7.2-4.59l2.55-.88c-5.6-4.56-7.51-10.39-7.32-17.14C1582.18,121.8,1585.63,116.71,1591.32,112.48Zm32.31-22.24c-.26-2.45-.39-4.93-.8-7.36a21.28,21.28,0,0,0-4.34-10.24,12.8,12.8,0,0,0-21,1.46,18.75,18.75,0,0,0-2,4.59,34.78,34.78,0,0,0-.65,16.81,23.54,23.54,0,0,0,3.86,9.45,12.19,12.19,0,0,0,7.09,5,13.07,13.07,0,0,0,15.3-7.31A30.72,30.72,0,0,0,1623.63,90.24Zm-13.05,57.34,0,.24h-11.75c-4.14,0-6.55,1.86-7.62,5.85a12,12,0,0,0,6.2,14.15,19.61,19.61,0,0,0,4.25,1.59,45.8,45.8,0,0,0,18.8.22,23.79,23.79,0,0,0,8.75-3.12,11.44,11.44,0,0,0,5.71-11.1,5.8,5.8,0,0,0-3.93-5.49,17.28,17.28,0,0,0-4.39-1.12C1621.25,148.32,1615.91,148,1610.58,147.58Z"/><path d="M1529.68,62.64a42,42,0,0,1,21.6,5.53c11,6.44,16.73,16.19,17.77,28.76a42.87,42.87,0,0,1-2.53,18.87c-5.23,13.79-15.35,21.89-29.66,24.79-8.82,1.79-17.56,1.31-25.87-2.34-13.92-6.11-21.22-17-22-32.08a41.42,41.42,0,0,1,5.42-23.51C1502.21,69.12,1514.3,62.93,1529.68,62.64Zm21.6,49.33a93.73,93.73,0,0,0-3.4-21.31,41.31,41.31,0,0,0-7.25-15c-3.47-4.29-7.82-7-13.5-7.2-8.67-.35-14.48,3.65-17.16,11.93a28,28,0,0,0-.87,3.23,59.49,59.49,0,0,0,3.4,34.77,32.28,32.28,0,0,0,7.4,11.36,18,18,0,0,0,11.73,5.35c9.29.51,15.94-3.46,18.24-13A97.74,97.74,0,0,0,1551.28,112Z"/><path d="M1422.59,140.49q-10.54.39-21.08.76c-1.19.05-2.39.05-3.59,0a1.69,1.69,0,0,1-1.87-1.49,2.19,2.19,0,0,1,1.18-2.41,7.93,7.93,0,0,1,1.57-.56c5.26-1.44,7.13-3.64,7.59-9.06.13-1.51.15-3,.15-4.55q0-35.74,0-71.49c0-6.32.06-12.64.08-19,0-1,0-2.08-.11-3.12-.31-3.4-1.66-5-5-5.8-1.24-.3-2.52-.45-3.77-.7a6.1,6.1,0,0,1-1.59-.48,2.32,2.32,0,0,1-.25-4.09,13.53,13.53,0,0,1,3.11-1.23c4.27-1.32,8.57-2.57,12.83-3.91a34.75,34.75,0,0,0,10.74-5.17A1.29,1.29,0,0,1,1423,8c.89-.25,1.91-.86,2.65-.62,1.16.39.94,1.74.81,2.74-1.25,10.12-.75,20.29-.77,30.44q-.11,41.14-.06,82.29c0,1.12,0,2.24.07,3.35a9.78,9.78,0,0,0,5.9,8.65c1.23.57,2.53,1,3.79,1.5a23.41,23.41,0,0,1,2.41,1.05,1.94,1.94,0,0,1,1,2.22,1.84,1.84,0,0,1-1.84,1.58,19.26,19.26,0,0,1-2.15.16c-4.07-.14-8.15-.31-12.22-.48Z"/><path d="M1465,140.59l-15.87.72c-.71,0-1.43,0-2.15,0-1-.06-1.75-.38-1.87-1.48a2.18,2.18,0,0,1,1.16-2.42,10.89,10.89,0,0,1,1.8-.61c4.75-1.25,6.66-3.41,7.25-8.31a38.27,38.27,0,0,0,.26-4.54q.08-34.42.11-68.84,0-11.52,0-23c0-6.08-1.42-7.69-7.51-8.63a16.94,16.94,0,0,1-2.8-.64,2.09,2.09,0,0,1-1.52-2,2.18,2.18,0,0,1,1.25-2.38,26.15,26.15,0,0,1,3.14-1.15c4.49-1.4,9-2.75,13.5-4.18a32.47,32.47,0,0,0,9.84-4.84,2.1,2.1,0,0,1,.6-.4,5.55,5.55,0,0,1,2.46-.51c1,.27.86,1.42.81,2.28-.12,2-.37,4-.45,6-.17,4-.35,8-.36,12q0,47.73,0,95.47c0,.8,0,1.6,0,2.4.2,4.59,2.3,7.9,6.59,9.69,1.4.59,2.86,1,4.26,1.62a6.15,6.15,0,0,1,1.84,1.08,1.87,1.87,0,0,1-.84,3.21,14.19,14.19,0,0,1-3.57.25C1477.34,141.13,1471.75,140.87,1465,140.59Z"/><path d="M1364.55,96.26h-22.3c-1.77,0-2,.14-2.26,2a26.75,26.75,0,0,0,.67,9.52c2,8.59,6.5,15.45,14.48,19.59,6.72,3.48,13.66,3.79,20.52.41,2.86-1.4,5.53-3.19,8.29-4.8a30.15,30.15,0,0,1,3.52-2,1.88,1.88,0,0,1,2.75,2.26,6.75,6.75,0,0,1-1.29,2.78,31.17,31.17,0,0,1-3.87,4.24c-7.64,6.69-16.49,10.76-26.69,11.13-11.41.41-21.45-3.07-29.07-12a32.16,32.16,0,0,1-7.28-17,52.06,52.06,0,0,1,5.28-31.19c3.51-6.87,8.47-12.45,15.6-15.7,18.3-8.33,42.63,1.14,46.93,24.6a13.8,13.8,0,0,1,.15,3.34c-.15,2.4-.69,2.88-3.11,2.89-4.8,0-9.6,0-14.4,0h-7.92ZM1340.1,89.8c.9.06,1.6.13,2.31.13q6.84.07,13.68.11c3.75,0,7.52,0,11.27,0,2.23-.05,2.9-.62,3.07-2.54.59-6.69-1.56-12.34-6.83-16.55-5.82-4.65-17-5.12-21.73,5.32a24.72,24.72,0,0,0-2.16,11.44A16.53,16.53,0,0,0,1340.1,89.8Z"/><path class="cls-1" d="M205.27,98.84a59.73,59.73,0,0,1-3.14,18.62,30.52,30.52,0,0,1-4.36,8.23c-5.12,6.68-12,9.3-20.23,8.49-8.66-.86-15-5.4-19.67-12.58a44.52,44.52,0,0,1-6.4-18.17,62.22,62.22,0,0,1,1.66-26.35,28.91,28.91,0,0,1,5.3-10.4A20.27,20.27,0,0,1,173.56,59c9-.53,16.21,2.89,21.94,9.66,5.1,6,7.74,13.18,8.92,20.89C204.89,92.61,205,95.74,205.27,98.84Z"/><path class="cls-1" d="M859.18,85.35c.16-1.71.23-3.37.5-5,1.15-7,4.12-13.15,10.12-17.28,7.23-5,15-5,22.76-1.39,5.3,2.46,7.59,7.77,6.82,14.33a19.72,19.72,0,0,1-.61,3,6.27,6.27,0,0,1-4.27,4.49,15.72,15.72,0,0,1-4,.88c-10,.42-20.11.76-30.16,1.11A6.63,6.63,0,0,1,859.18,85.35Z"/><path class="cls-1" d="M631.85,85.38c.35-9.1,3-17,10.65-22.33,7.11-5,14.87-4.93,22.56-1.44,4.51,2,6.82,5.94,7,10.92a28.43,28.43,0,0,1-.53,6.17,6.21,6.21,0,0,1-4.68,5,17.55,17.55,0,0,1-4,.78c-10,.42-20,.75-29.94,1.1A6.64,6.64,0,0,1,631.85,85.38Z"/></g></g></svg>