<?xml version="1.0" encoding="utf-8"?>
<!-- Generator: Adobe Illustrator 23.0.0, SVG Export Plug-In . SVG Version: 6.00 Build 0)  -->
<svg version="1.1" id="Layer_1" xmlns="http://www.w3.org/2000/svg" xmlns:xlink="http://www.w3.org/1999/xlink" x="0px" y="0px"
	 viewBox="0 0 150.2 132.4" style="enable-background:new 0 0 150.2 132.4;" xml:space="preserve">
<style type="text/css">
	.st0{fill:#EAEAEA;}
	.st1{fill:#FEFEFE;}
	.st2{fill:#6D6D6D;stroke:#6D6D6D;}
</style>
<path class="st0" d="M50.1,48.6c-7.6,1.6-14,5.9-21,8.9c-4.8,2.1-9.6,3.9-14.8,3.9C8.8,61.5,3.8,56.8,3,51.2
	c-0.6-4.4,3.6-11,8.3-11.9c12.2-2.5,22.3-9.8,33.5-14.6C55,20.3,64.7,14.4,76.1,13.2c4.4-0.5,8,1.3,10,4.9c2.3,4,2.3,8.2-0.3,12.7
	c-4.5,7.7-8.3,15.7-12.5,23.7c1.7,1.2,2.6-0.2,3.7-1c10.5-8.2,21.4-15.9,32.7-23c5-3.2,11.8-2.8,15.8,0.9c4.3,3.9,5.2,9.5,2.4,15.1
	c-2.7,5.2-5.5,10.4-8.3,15.6c-0.7,1.3-2.9,2.7-1.3,4.1c1.7,1.5,2.7-0.9,3.7-1.9c2.6-2.9,5.8-3.8,9.6-3.8c4.4,0,8.6,0.6,10,5.3
	c1.3,4.5,2.1,9.2-2.1,13.3c-15.1,14.9-30.7,29.1-48,41.4c-7.6,5.4-12.6,4.6-18.6-1.3c-3.8-3.8-3.9-7.7-1.9-12.2
	c3.4-7.4,6.8-14.8,10.2-22.3c0.8-1.7,1.4-3.4,2.1-5.2c-0.4-0.3-0.8-0.6-1.1-0.9c-6.7,5.4-13.1,11.1-20,16.2
	c-5.1,3.8-8.7,9.4-15,11.8c-4.2,1.6-7.5,0.8-10.7-2.3c-3.4-3.3-5.6-6.8-4.1-11.8c3.8-13.2,9.2-25.7,15.4-37.9
	C48.9,52.7,49.4,50.6,50.1,48.6c0.1-0.1,0.2-0.3,0.2-0.5C50.3,48.3,50.2,48.5,50.1,48.6z"/>
<path class="st1" d="M333,47.4c0.1-0.1,0.2-0.3,0.2-0.4C333.2,47.1,333.1,47.3,333,47.4L333,47.4z"/>
<path id="Path_75" class="st2" d="M108.7,57.3L88.6,46.1l-5.8-3.2L62.7,31.6c-0.2-0.1-0.4-0.1-0.6,0L39.3,45.3
	c-0.2,0.1-0.3,0.3-0.3,0.5v4.5l-0.4,0.2c-0.2,0.1-0.3,0.3-0.3,0.5v5.9c0,0.2,0.1,0.4,0.3,0.5l0.4,0.2v4.6l-0.4,0.3
	c-0.2,0.1-0.3,0.3-0.3,0.5v2.9c0,0.7,0,1.5,0,2c0,0.4,0,0.7,0,0.9l0,0v5.6c0,0.2,0.1,0.4,0.3,0.5l19.8,11.4l5.7,3.3L83.9,101
	c0.1,0,0.2,0.1,0.3,0.1c0.1,0,0.2,0,0.3-0.1l23.2-13.4c0.2-0.1,0.3-0.3,0.3-0.5v-5.8l0.1-0.1c0.2-0.1,0.3-0.3,0.3-0.5v-4.5h0.1
	c0.2-0.1,0.3-0.3,0.3-0.5V70c0-0.2-0.1-0.4-0.3-0.5l-0.4-0.3v-4.6l0.8-0.5c0.2-0.1,0.3-0.3,0.3-0.5v-5.9
	C109,57.6,108.9,57.4,108.7,57.3z M108.2,63.5l-1,0.6l0,0L85.9,76.9v-5.3l22.3-13.3V63.5z M107.5,80.8l-0.4,0.3l0,0l-11.3,6.7
	l-10.6,6.3v-4.7l22.3-12.9V80.8z M107.1,87.1l-22.7,13.1v-5.3l0.3-0.2h0.1h0.1l0,0H85l11-6.6l0,0l11.1-6.4V87.1z M62.4,32.4L82,43.3
	L59.8,56.7l-19.7-11L62.4,32.4z M107.1,69.4L84.4,82.6v-5.3l0.3-0.2l0.8,0.4h0.1l0,0l0,0h0.1l0,0L107,64.7L107.1,69.4L107.1,69.4z
	 M84.2,94.5L81,92.6L84.2,94.5L84.2,94.5z M52.2,70.1L52.2,70.1L39.9,63v-5.3l18.7,10.8l0,0l0.6,0.4v5.3l0,0l0,0L52.2,70.1z
	 M84.9,76.6L84.9,76.6L65.8,65.9v-5.3l19.7,10.9v5.3L84.9,76.6z M83.9,82.6L65.2,71.8l0,0l-0.6-0.3v-5.3l19.3,11.1L83.9,82.6
	L83.9,82.6z M65,78.1l19.7,11.4v4.7L65,83.2V78.1z M84.7,88.8L65.3,77.7v-5.3L84,83.2l0,0l0.6,0.3L84.7,88.8z M84.2,76.8l-3.9-2.2
	L84.2,76.8L84.2,76.8z M85.7,71.1L66,60.2l22.3-13.4l19.6,11L85.7,71.1z M59.5,57.1v5.3L59,62.1l0,0l0,0l-6.8-3.8l0,0l0,0l0,0
	l-12.3-6.8v-5.3L59.5,57.1z M39.2,51.4l0.2,0.1v0.1l0,0v0.1c0,0,0,0.1,0.1,0.1l0,0l12.4,6.9l0,0l6.6,3.8v5.3L39.8,57.1l0,0l-0.6-0.3
	V51.4L39.2,51.4z M51.9,70.5L51.9,70.5L51.9,70.5l6.9,4v5.2L52.2,76l0,0l0,0l0,0l-13-7.2v-5.3L51.9,70.5z M39.2,69.3l12.7,7.1l0,0
	l6.6,3.8v5.3L39.2,74.3V69.3z M64.6,83.7l19.3,11.2v5.3L64.6,89.1V83.7z M107.9,75.7l-0.2,0.1l0,0l-22.5,13v-5.3l22.7-13.1
	C107.9,70.4,107.9,75.7,107.9,75.7z M84.9,83.1L84.7,83l22.7-13.1l0.2,0.1L84.9,83.1z"/>
</svg>
