<svg xmlns="http://www.w3.org/2000/svg" viewBox="0 0 730 137"><defs><style>.cls-1{fill:#fff;}</style></defs><title>Asset 8</title><g id="Layer_2" data-name="Layer 2"><g id="Layer_1-2" data-name="Layer 1"><path class="cls-1" d="M411,137H356l10.78-5.43c.2,1,.44,2.15.7,3.43l4.66-.3V78l-5.13.47V99.68c-1.66-1.28-2.84-2.31-4.13-3.15-6.41-4.17-15.46-3.44-20.39,1.59C332,108.81,336,129.48,350,137H316a17.65,17.65,0,0,1,2.45-1.07c6.82-1.84,11.5-7.6,10.93-13.56-3.06-1-5-.2-6.35,3-1.69,4-5.22,5.62-9.52,5.68-8,.12-11.3-3.28-13.24-14.15H331.6c-1-4.53-1.68-8.34-2.67-12.06a13.92,13.92,0,0,0-11.31-10.54c-6.85-1.16-14.28-1-18.87,5.66-5.45,8-6,16.75-2.74,25.79,2.24,6.16,7.18,9.2,13,11.22q-152.25,0-304.51,0A21.83,21.83,0,0,1,0,136H15V23.12A16.43,16.43,0,0,1,16.58,25Q27.22,44.65,37.79,64.31c10.75,20.06,22,39.89,31.93,60.32,4.36,8.92,9.52,12.78,19.47,11.48,7.08-.93,14.38-.18,22.53-.18-1.25-2.61-2-4.22-2.78-5.77-7.46-14-15-28-22.42-42Q63.21,44.1,40,0H55a42.24,42.24,0,0,0,1.66,4c7.69,14.44,15.51,28.82,23.13,43.3,10.91,20.71,21.68,41.49,32.54,62.22a31.8,31.8,0,0,0,2.37,3.22l43.41-78.21,1.26.45V135.61H191V0h36V56.6h13.1v-43c6.71,14.26,12.78,27.27,19,40.21.6,1.25,2,2.92,3.1,3,5.09.32,10.21.14,15.8.14V0H395V56.63h11.93c0-7.75,0-15.2,0-22.65,0-5.53,3.05-9.09,7.57-9q5.53.06,5.56,8.85c0,7.6,0,15.19,0,22.9H432.9c0-9.17.39-18.13-.13-27-.38-6.48-3.66-12-10.7-12.78-4.86-.52-9.93.86-15.07,1.41V0H730V28c-.33-.32-.89-.6-1-1-1.51-8.41-4.52-11.33-12.89-10.82-4.46.27-8.82,2-13,3.07-2.48-5.34-7.74-.65-11.63-2.43V56.57h12.45c0-8,0-15.64,0-23.29,0-4.79,3.37-8.49,7.27-8.33s5.83,2.92,5.85,8.21c0,7.78,0,15.56,0,23.84H730v80H515a17.65,17.65,0,0,1,2.45-1.07c6.82-1.83,11.5-7.6,10.94-13.56-3.07-1-5-.19-6.35,3-1.7,3.95-5.22,5.62-9.52,5.68-8,.12-11.28-3.25-13.26-14.15h31.32c-1-4.69-1.46-8.74-2.76-12.52-2-5.69-6.17-9.56-12.16-10.21-7.59-.82-15-.2-19.16,7.88-7.53,14.51-3,28.48,11.5,34.92H418a17.54,17.54,0,0,1,2.44-1.07c6-1.61,10.12-8.06,8.75-13.63h-4.82c-2,6.31-4.7,8.68-9.92,8.77-4.46.08-9.38-3.12-10.29-8.15a42.5,42.5,0,0,1-.11-14.92c1-5.74,5.36-9.16,10.15-9,5,.18,8.08,1.6,10.34,8.56h5.21c.12-6.82-2.64-10.57-9-12.62-7.56-2.44-16-.33-19.63,4.88C391.76,113.39,396.3,130.44,411,137Zm44.45-93.5A19.9,19.9,0,0,1,454,40.61c-1.71-6.79-3.27-13.62-5.14-20.37-.34-1.22-1.79-2.9-2.87-3a108.2,108.2,0,0,0-11.39-.15c3.6,10.65,6.94,20.51,10.27,30.37s3.34,9.78,13.8,9.56c2.78-.06,3.67-1.24,4.29-3.58,2-7.62,4.23-15.2,6.66-23.89,2.35,8.59,4.52,16.07,6.42,23.62.66,2.6,1.63,3.81,4.56,3.84,10.27.13,10.27.24,13.69-9.75.42-1.23,1-2.43,1.37-3.66,3-8.71,6-17.43,9.11-26.52-3.71,0-6.74-.29-9.67.13a5.38,5.38,0,0,0-3.78,2.72c-1.4,4-2.17,8.18-3.24,12.27-1,3.78-2.05,7.54-3.35,12.33-2.11-7.16-3.78-13.11-5.61-19-2.65-8.55-2.7-8.41-11.76-8.5-3.12,0-4.63.76-5.43,4C460.13,28.31,457.81,35.43,455.45,43.5Zm-228,34.69V135l5.63-.3V86.85c6.71,14.15,13.08,28.23,18.57,42.65,1.84,4.82,4,6.3,8.78,5.12l19.89-47.91.83.15v47.69h5.49v-56c-5.72-1.76-8.93-.07-11.19,5.44-5.07,12.39-10.81,24.51-16.26,36.75-.66,1.48-1.22,3-2.14,5.24-7.21-16.64-14-32.17-20.72-47.8ZM542.92,40.93c0-3.19.31-5.86,0-8.44-1.6-11.27-8.94-19-22.65-16.59-10.6,1.83-15,9-16,18.4-1.08,10.49,1.54,21.46,13.61,23.93a33.39,33.39,0,0,0,10.82.54c8.17-1.1,13.22-6.71,12.7-14.55-4,1-8.48,1-11.67,3-3,1.89-5.3,3.75-8.84,2.25-3.7-1.56-4.39-4.5-3.64-8.56h25.67Zm85.15,1.51,1.34-1.51c7.48,0,15-.07,22.43,0,3.43,0,4.26-1.71,3.76-4.66A28.11,28.11,0,0,1,655,33c-.68-14.83-14.83-21.48-26.89-15.82-11.42,5.35-12.34,15.22-10.28,29,.83,5.55,4,10.33,9.65,11.3a59.8,59.8,0,0,0,17.92.1c5.12-.71,8.82-7.38,7.81-13-3.59.61-8.38,0-10.54,2.13-2.93,2.87-5.92,4.44-9,2.94C631.22,48.4,629.89,44.92,628.07,42.44Zm-303.14-4.8c1.2-14.7-9.18-21.25-19.61-21.79-14.87-.78-22.27,9.35-22.14,21.65.15,13.09,7.16,21.14,20.8,21.49C315.7,59.28,326.35,49.94,324.93,37.64ZM546,45.08c1.59,3.33,2.31,6.24,4.06,8.23,5.25,6,14.67,7.07,23.22,3.79,6.17-2.36,9.75-7.45,9.62-13s-3-8.65-10.54-11c-2.79-.89-5.69-1.49-8.4-2.57a11.17,11.17,0,0,1-3.91-3c-.26-.28.66-2.4,1.28-2.53,2.14-.45,5.84-1.28,6.37-.4,3.48,5.75,8.54,2.44,12.86,3.34.41-5.73-1.49-9.19-6.4-10.65-7.13-2.13-14.19-2.08-21,1.72-4.19,2.35-5.1,6-5.18,10.36-.08,4.12,1.72,7.07,5.39,8.61,4.33,1.82,8.9,3.08,13.2,5,1.62.71,2.79,2.47,4.16,3.76-1.8,1.13-3.6,3.16-5.39,3.15-2,0-4.06-1.82-6.06-2.91-1-.55-1.94-1.67-3-1.76C553.41,44.92,550.42,45.08,546,45.08Zm67.73,3.13c-9.34.35-8.57-.15-9.62-6-.91-5.13-.19-10.55-.19-16.39h9.72V17h-9.92V5.07C597.48,7.27,589.63,7,592.2,17.3h-7.8v8.47l6.9.32c.35.41.54.54.55.67.08,7.32.12,14.64.24,22,.07,4.5,3.35,8.85,7.46,9.07,4.67.26,9.39-.23,14.21-.4ZM388.77,17h-9.84V4.72c-4.09,1.46-8.06,1.94-10.56,4.11-1.71,1.48-1.4,5.31-2,8.07l-6.91.41v8.44l7.59.43c0,8-.2,15.6.13,23.21.09,2.19,1.11,5.09,2.73,6.33,4.7,3.58,10.4,2.36,15.77,1.73.85-.1,1.9-2,2.13-3.2a35.21,35.21,0,0,0,.09-6.21c-3.8.08-8.54,2.06-8.89-3.82S379,32.34,379,25.84h9.82Zm-33.21,11V15.1L342.06,20l-.45-2.59H330.32V56.57h12.61c0-7-.06-13.65,0-20.29.07-5.26,3-8.15,8.27-8.34C352.54,27.89,353.87,27.93,355.56,27.93ZM673.93,56.8c0-6.78,0-13.08,0-19.37,0-6.64,2.64-9.34,9.14-9.51,1.12,0,2.25-.1,3.56-.16V15.09l-13.31,4.72c-2.59-6-7.93-1.09-11.88-3v40Zm-214,77.9V123.3c0-3.66-.07-7.33,0-11,.18-7.19,5.42-13.43,11.15-13.38,6.63.06,10,4.42,10,13v23l5.85-.27c0-9.12.7-18-.21-26.69-.85-8.16-3.09-14.91-15.64-13.8-3.69.32-7.24,2.26-11,3.51-.06-.29-.3-1.44-.56-2.71l-5.2.3V134.7Zm-72.36.12V95l-5.14.24v39.54Zm56,0V95l-5.16.24v39.54ZM536.35,97c4.77,0,7.58-2.41,7.54-6.51a7.15,7.15,0,0,0-7.28-7.06c-3.51,0-6.51,3.36-6.55,7.17C530,94.86,532.2,96.86,536.35,97Zm-154-12.36h6.38V78.4h-6.38Zm61.29.09V78.31h-6.2v6.38Z"/><path d="M191,0V135.61H159.37V35l-1.26-.45L114.7,112.78a31.8,31.8,0,0,1-2.37-3.22C101.47,88.83,90.7,68.05,79.79,47.34,72.17,32.86,64.35,18.48,56.66,4A42.24,42.24,0,0,1,55,0H91l32.91,63.23L159,0Z"/><path d="M40,0Q63.25,44.09,86.52,88.15c7.42,14,15,28,22.42,42,.83,1.55,1.53,3.16,2.78,5.77-8.15,0-15.45-.75-22.53.18-10,1.3-15.11-2.56-19.47-11.48-10-20.43-21.18-40.26-31.93-60.32Q27.25,44.63,16.58,25A16.43,16.43,0,0,0,15,23.12V136H0V0Z"/><path class="cls-1" d="M159,0,123.91,63.23,91,0Z"/><path d="M278,0V56.92c-5.59,0-10.71.18-15.8-.14-1.12-.07-2.5-1.74-3.1-3-6.22-12.94-12.29-25.95-19-40.21v43H227V0h19q9.5,20.24,19,40.46l1-.31V0Z"/><path d="M407,0V18.27c5.14-.55,10.21-1.93,15.07-1.41,7,.75,10.32,6.3,10.7,12.78.52,8.91.13,17.87.13,27H420.07c0-7.71,0-15.3,0-22.9q0-8.79-5.56-8.85c-4.52,0-7.55,3.52-7.57,9,0,7.45,0,14.9,0,22.65H395V0Z"/><path d="M730,57H717.07c0-8.28,0-16.06,0-23.84,0-5.29-2-8.06-5.85-8.21S704,28.49,704,33.28c-.07,7.65,0,15.3,0,23.29H691.48V16.86c3.89,1.78,9.15-2.91,11.63,2.43,4.23-1,8.59-2.8,13-3.07,8.37-.51,11.38,2.41,12.89,10.82.06.36.62.64,1,1Z"/><path d="M350,137c-14-7.52-18-28.19-7.51-38.88,4.93-5,14-5.76,20.39-1.59,1.29.84,2.47,1.87,4.13,3.15V78.46l5.13-.47V134.7l-4.66.3c-.26-1.28-.5-2.42-.7-3.43L356,137Zm16.54-22.35-.47-.09c0-1.33.07-2.67,0-4-.36-5.56-5.45-11-10.86-11.63a10.26,10.26,0,0,0-11.05,8.52,47.72,47.72,0,0,0,.33,16.34c.85,4.53,4.1,7.5,9.61,7.38s8.6-3.17,10.56-7.49C365.89,121,366,117.68,366.54,114.65Z"/><path d="M309,137c-5.81-2-10.75-5.06-13-11.22-3.29-9-2.71-17.81,2.74-25.79,4.59-6.71,12-6.82,18.87-5.66a13.92,13.92,0,0,1,11.31,10.54c1,3.72,1.68,7.53,2.67,12.06H300.27c1.94,10.87,5.22,14.27,13.24,14.15,4.3-.06,7.83-1.72,9.52-5.68,1.38-3.23,3.29-4,6.35-3,.57,6-4.11,11.72-10.93,13.56A17.65,17.65,0,0,0,316,137Zm-7.75-25.93h22.54c.06-7.07-4-11.49-10.58-12.14C308.51,98.47,300.69,103.76,301.25,111.07Z"/><path d="M508,137c-14.47-6.44-19-20.41-11.5-34.92,4.19-8.08,11.57-8.7,19.16-7.88,6,.65,10.21,4.52,12.16,10.21,1.3,3.78,1.76,7.83,2.76,12.52H499.26c2,10.9,5.23,14.27,13.26,14.15,4.3-.06,7.82-1.73,9.52-5.68,1.38-3.22,3.28-4,6.35-3,.56,6-4.12,11.73-10.94,13.56A17.65,17.65,0,0,0,515,137Zm-7.85-26.13h23.31c-1.82-9.75-5.75-11.05-12.07-11.85C507.28,98.5,500,103.63,500.15,110.87Z"/><path d="M411,137c-14.7-6.56-19.24-23.61-9.88-37.16,3.6-5.21,12.07-7.32,19.63-4.88,6.36,2.05,9.12,5.8,9,12.62h-5.21c-2.26-7-5.33-8.38-10.34-8.56-4.79-.18-9.11,3.24-10.15,9a42.5,42.5,0,0,0,.11,14.92c.91,5,5.83,8.23,10.29,8.15,5.22-.09,7.95-2.46,9.92-8.77h4.82c1.37,5.57-2.78,12-8.75,13.63A17.54,17.54,0,0,0,418,137Z"/><path class="cls-1" d="M266,0V40.15l-1,.31Q255.51,20.22,246,0Z"/><path d="M455.45,43.5c2.36-8.07,4.68-15.19,6.46-22.45.8-3.28,2.31-4.08,5.43-4,9.06.09,9.11-.05,11.76,8.5,1.83,5.9,3.5,11.85,5.61,19,1.3-4.79,2.36-8.55,3.35-12.33,1.07-4.09,1.84-8.29,3.24-12.27a5.38,5.38,0,0,1,3.78-2.72c2.93-.42,6-.13,9.67-.13-3.12,9.09-6.11,17.81-9.11,26.52-.42,1.23-.95,2.43-1.37,3.66-3.42,10-3.42,9.88-13.69,9.75-2.93,0-3.9-1.24-4.56-3.84-1.9-7.55-4.07-15-6.42-23.62-2.43,8.69-4.62,16.27-6.66,23.89-.62,2.34-1.51,3.52-4.29,3.58-10.46.22-10.45.35-13.8-9.56s-6.67-19.72-10.27-30.37a108.2,108.2,0,0,1,11.39.15c1.08.11,2.53,1.79,2.87,3,1.87,6.75,3.43,13.58,5.14,20.37A19.9,19.9,0,0,0,455.45,43.5Z"/><path d="M227.44,78.19h8.88c6.77,15.63,13.51,31.16,20.72,47.8.92-2.24,1.48-3.76,2.14-5.24,5.45-12.24,11.19-24.36,16.26-36.75,2.26-5.51,5.47-7.2,11.19-5.44v56h-5.49V86.86l-.83-.15-19.89,47.91c-4.75,1.18-6.94-.3-8.78-5.12-5.49-14.42-11.86-28.5-18.57-42.65v47.82l-5.63.3Z"/><path d="M542.92,40.93H517.25c-.75,4.06-.06,7,3.64,8.56,3.54,1.5,5.85-.36,8.84-2.25,3.19-2,7.63-2.07,11.67-3,.52,7.84-4.53,13.45-12.7,14.55a33.39,33.39,0,0,1-10.82-.54c-12.07-2.47-14.69-13.44-13.61-23.93,1-9.44,5.35-16.57,16-18.4,13.71-2.36,21,5.32,22.65,16.59C543.23,35.07,542.92,37.74,542.92,40.93Zm-13-9.14c.7-4.9-2.6-7.25-5.82-7.49-4.08-.3-6.85,2.6-6.79,7.49Z"/><path d="M628.07,42.44c1.82,2.48,3.15,6,5.59,7.17,3,1.5,6-.07,9-2.94,2.16-2.11,7-1.52,10.54-2.13,1,5.63-2.69,12.3-7.81,13a59.8,59.8,0,0,1-17.92-.1c-5.63-1-8.82-5.75-9.65-11.3-2.06-13.8-1.14-23.67,10.28-29,12.06-5.66,26.21,1,26.89,15.82a28.11,28.11,0,0,0,.65,3.34c.5,3-.33,4.71-3.76,4.66-7.47-.09-15,0-22.43,0Zm13.78-10.52c.55-4.5-1.29-7.74-5.2-7.73-4.16,0-7.16,2.81-7.06,7.73Z"/><path d="M324.93,37.64C326.35,49.94,315.7,59.28,304,59c-13.64-.35-20.65-8.4-20.8-21.49-.13-12.3,7.27-22.43,22.14-21.65C315.75,16.39,326.13,22.94,324.93,37.64Zm-12.87,1.64c0-2.63.75-5.37-.18-7.31-1.27-2.66-3.39-5.7-5.92-6.8-3.65-1.58-7.43.48-8.61,4.3a26.07,26.07,0,0,0-1.15,11.59c1.32,7.69,6.08,10.4,11.36,7.94C311.69,47.07,312.24,43.11,312.06,39.28Z"/><path d="M546,45.08c4.39,0,7.38-.16,10.34.08,1,.09,2,1.21,3,1.76,2,1.09,4,2.9,6.06,2.91,1.79,0,3.59-2,5.39-3.15-1.37-1.29-2.54-3-4.16-3.76-4.3-1.88-8.87-3.14-13.2-5-3.67-1.54-5.47-4.49-5.39-8.61.08-4.33,1-8,5.18-10.36,6.78-3.8,13.84-3.85,21-1.72,4.91,1.46,6.81,4.92,6.4,10.65-4.32-.9-9.38,2.41-12.86-3.34-.53-.88-4.23,0-6.37.4-.62.13-1.54,2.25-1.28,2.53a11.17,11.17,0,0,0,3.91,3c2.71,1.08,5.61,1.68,8.4,2.57,7.52,2.39,10.4,5.43,10.54,11s-3.45,10.62-9.62,13c-8.55,3.28-18,2.17-23.22-3.79C548.34,51.32,547.62,48.41,546,45.08Z"/><path d="M613.76,48.21V57.4c-4.82.17-9.54.66-14.21.4-4.11-.22-7.39-4.57-7.46-9.07-.12-7.33-.16-14.65-.24-22,0-.13-.2-.26-.55-.67l-6.9-.32V17.3h7.8c-2.57-10.28,5.28-10,11.55-12.23V17h9.92v8.89H604c0,5.84-.72,11.26.19,16.39C605.19,48.06,604.42,48.56,613.76,48.21Z"/><path d="M388.77,17v8.87H379c0,6.5-.28,12.46.08,18.38s5.09,3.9,8.89,3.82a35.21,35.21,0,0,1-.09,6.21c-.23,1.2-1.28,3.1-2.13,3.2-5.37.63-11.07,1.85-15.77-1.73-1.62-1.24-2.64-4.14-2.73-6.33-.33-7.61-.13-15.25-.13-23.21l-7.59-.43V17.31l6.91-.41c.58-2.76.27-6.59,2-8.07,2.5-2.17,6.47-2.65,10.56-4.11V17Z"/><path d="M355.56,27.93c-1.69,0-3,0-4.34,0C346,28.13,343,31,343,36.28c-.08,6.64,0,13.29,0,20.29H330.32V17.39h11.29l.45,2.59,13.5-4.88Z"/><path d="M673.93,56.8H661.44v-40c3.95,1.94,9.29-3,11.88,3l13.31-4.72V27.76c-1.31.06-2.44.13-3.56.16-6.5.17-9.12,2.87-9.14,9.51C673.91,43.72,673.93,50,673.93,56.8Z"/><path d="M459.93,134.7h-5.62V95.31l5.2-.3c.26,1.27.5,2.42.56,2.71,3.76-1.25,7.31-3.19,11-3.51,12.55-1.11,14.79,5.64,15.64,13.8.91,8.7.21,17.57.21,26.69l-5.85.27V112c0-8.6-3.35-13-10-13-5.73-.05-11,6.19-11.15,13.38-.08,3.66,0,7.33,0,11Z"/><path d="M387.57,134.82h-5.14V95.28l5.14-.24Z"/><path d="M443.58,134.82h-5.16V95.28l5.16-.24Z"/><path d="M536.35,97c-4.15-.1-6.34-2.1-6.29-6.4,0-3.81,3-7.15,6.55-7.17a7.15,7.15,0,0,1,7.28,7.06C543.93,94.55,541.12,97,536.35,97Z"/><path d="M382.31,84.6V78.4h6.38v6.2Z"/><path d="M443.6,84.69h-6.2V78.31h6.2Z"/><path class="cls-1" d="M366.54,114.65c-.59,3-.65,6.3-1.89,9-2,4.32-5.09,7.36-10.56,7.49s-8.76-2.85-9.61-7.38a47.72,47.72,0,0,1-.33-16.34,10.26,10.26,0,0,1,11.05-8.52c5.41.64,10.5,6.07,10.86,11.63.08,1.32,0,2.66,0,4Z"/><path class="cls-1" d="M301.25,111.07c-.56-7.31,7.26-12.6,12-12.14,6.59.65,10.64,5.07,10.58,12.14H301.25Z"/><path class="cls-1" d="M500.15,110.87C500,103.63,507.28,98.5,511.39,99c6.32.8,10.25,2.1,12.07,11.85Z"/><path class="cls-1" d="M529.88,31.79H517.27c-.06-4.89,2.71-7.79,6.79-7.49C527.28,24.54,530.58,26.89,529.88,31.79Z"/><path class="cls-1" d="M641.85,31.92H629.59c-.1-4.92,2.9-7.71,7.06-7.73C640.56,24.18,642.4,27.42,641.85,31.92Z"/><path class="cls-1" d="M312.06,39.28c.18,3.83-.37,7.79-4.5,9.72-5.28,2.46-10-.25-11.36-7.94a26.07,26.07,0,0,1,1.15-11.59c1.18-3.82,5-5.88,8.61-4.3,2.53,1.1,4.65,4.14,5.92,6.8C312.81,33.91,312.06,36.65,312.06,39.28Z"/></g></g></svg>