<?xml version="1.0" encoding="utf-8"?>
<!-- Generator: Adobe Illustrator 22.0.1, SVG Export Plug-In . SVG Version: 6.00 Build 0)  -->
<svg version="1.1" id="Layer_1" xmlns="http://www.w3.org/2000/svg" xmlns:xlink="http://www.w3.org/1999/xlink" x="0px" y="0px"
	 viewBox="0 0 150.2 132.4" style="enable-background:new 0 0 150.2 132.4;" xml:space="preserve">
<style type="text/css">
	.st0{fill:#EDEDFC;}
	.st1{fill:#FEFEFE;}
	.st2{fill:#5526C6;stroke:#EDEDFC;stroke-width:1.5;}
	.st3{fill:#5526C6;stroke:#5526C6;stroke-width:0.5;}
</style>
<path class="st0" d="M50.1,48.6c-7.6,1.6-14,5.9-21,8.9c-4.8,2.1-9.6,3.9-14.8,3.9C8.8,61.5,3.8,56.8,3,51.2
	c-0.6-4.4,3.6-11,8.3-11.9c12.2-2.5,22.3-9.8,33.5-14.6C55,20.3,64.7,14.4,76.1,13.2c4.4-0.5,8,1.3,10,4.9c2.3,4-4,17-6.6,21.5
	c-4.5,7.7,18.9-2,30.2-9.1c5-3.2,11.8-2.8,15.8,0.9c4.3,3.9,5.2,9.5,2.4,15.1c-2.7,5.2-5.5,10.4-8.3,15.6c-0.7,1.3-2.9,2.7-1.3,4.1
	c1.7,1.5,2.7-0.9,3.7-1.9c2.6-2.9,5.8-3.8,9.6-3.8c4.4,0,8.6,0.6,10,5.3c1.3,4.5,2.1,9.2-2.1,13.3c-15.1,14.9-30.7,29.1-48,41.4
	c-7.6,5.4-12.6,4.6-18.6-1.3c-3.8-3.8-3.9-7.7-1.9-12.2c3.4-7.4,6.8-14.8,10.2-22.3c0.8-1.7,1.4-3.4,2.1-5.2
	c-0.4-0.3-0.8-0.6-1.1-0.9c-6.7,5.4-13.1,11.1-20,16.2c-5.1,3.8-8.7,9.4-15,11.8c-4.2,1.6-7.5,0.8-10.7-2.3
	c-3.4-3.3-5.6-6.8-4.1-11.8c3.8-13.2,9.2-25.7,15.4-37.9C48.9,52.7,49.4,50.6,50.1,48.6c0.1-0.1,0.2-0.3,0.2-0.5
	C50.3,48.3,50.2,48.5,50.1,48.6z"/>
<path class="st1" d="M333,47.4c0.1-0.1,0.2-0.3,0.2-0.4C333.2,47.1,333.1,47.3,333,47.4L333,47.4z"/>
<g id="Group_90" transform="translate(-1440.61 -3144.393)">
	<g id="Group_41" transform="translate(1471.537 3167.634)">
		<g id="Group_39">
			<path id="Path_69" class="st2" d="M55.6,52.2l-6.2-3.1c-0.1,0-0.1-0.1-0.1-0.2v-3.7c3.3-2.4,5.3-6.3,5.3-10.4v-5.3
				c0-5.7-4.6-10.3-10.3-10.3H39c-5.7,0-10.3,4.6-10.3,10.3v5.3c0,4.1,2,8,5.3,10.4V49c0,0.1,0,0.1-0.1,0.2l-6.2,3.1
				c-2.6,1.3-4.3,4-4.3,6.9v7.3c0,1.4,1.2,2.4,2.5,2.4s2.4-1.1,2.4-2.4v-7.3c0-1.1,0.6-2,1.5-2.5l4.3-2.1l3.9,3.9c2,2,5.2,2,7.2,0
				l3.9-3.9l4.3,2.1c0.9,0.5,1.5,1.4,1.5,2.5v7.3c0,1.4,1.1,2.5,2.4,2.5s2.5-1.1,2.5-2.4v-0.1v-7.3C59.9,56.2,58.2,53.5,55.6,52.2z
				 M41.8,54.9c-0.1,0.1-0.2,0.1-0.2,0l-3.4-3.4c0.4-0.8,0.7-1.7,0.7-2.6v-1.5c1.8,0.4,3.8,0.4,5.6,0V49c0,0.9,0.2,1.8,0.7,2.6
				L41.8,54.9z M41.7,42.9c-4.4,0-8.1-3.6-8.1-8.1v-5.3l0,0c0-3,2.4-5.4,5.4-5.4h5.3c3,0,5.4,2.4,5.4,5.4v5.3
				C49.7,39.3,46.1,42.9,41.7,42.9L41.7,42.9z"/>
		</g>
	</g>
	<g id="Group_14" transform="translate(1441.317 3145.1)">
		<path id="Path_54" class="st3" d="M32.1,67.2l4.3,4.9l1.6-1.5l-7-7.8l-7.6,6.9l1.5,1.6l4.9-4.5c-0.3,19.6,13.2,37.4,32.4,41.9
			l0.4-2.2C44.6,102.3,31.8,85.9,32.1,67.2z"/>
		<path id="Path_55" class="st3" d="M72.6,27.9l-4.9,4.3l1.5,1.6l7.8-7l-6.9-7.6l-1.6,1.5l4.5,4.9c-19.7-0.2-37.5,13.2-42,32.5
			l2.2,0.4C37.6,40.4,53.9,27.7,72.6,27.9z"/>
		<path id="Path_56" class="st3" d="M111.9,68.4l-4.3-4.9L106,65l7,7.8l7.8-7l-1.5-1.6l-4.9,4.5c0.2-19.4-13.3-37.2-32.6-41.7
			l-0.4,2.2C99.4,33.4,112.2,49.8,111.9,68.4z"/>
		<path id="Path_57" class="st3" d="M71.4,107.8l4.9-4.3l-1.5-1.6l-7.8,7l7,7.8l1.6-1.5l-4.5-4.9H72c19.5-0.1,36.4-13.5,41-32.4
			l-2.2-0.4C106.4,95.3,90,108,71.4,107.8z"/>
	</g>
</g>
</svg>
