<svg xmlns="http://www.w3.org/2000/svg" viewBox="0 0 984 347"><defs><style>.cls-1{fill:#333;}.cls-2{fill:#fff;}</style></defs><title>Asset 1</title><g id="Layer_2" data-name="Layer 2"><g id="Layer_1-2" data-name="Layer 1"><path class="cls-1" d="M4.51,235.69a8,8,0,0,1,1.7-.45c22,.29,43.92.42,65.87,1.06,4.7.14,9.52,1.67,14,3.38,12,4.57,18,13.66,18.77,26.35.88,13.86-3.68,24.82-16.68,31.27-8.26,4.09-17.16,5.07-26.2,5.17-10.94.11-21.89,0-33.44,0V332.9c0,10.09,0,10.1-9.94,10.09q-6.24,0-12.48-.12a6.05,6.05,0,0,1-1.57-.55ZM28.8,284.54c12.37,0,24.45,0,36.52-.07a15.59,15.59,0,0,0,5.28-1.35c7.58-2.9,11.1-9.77,9.21-17.64-1.71-7.09-6.77-11.06-13.42-11.57-12.22-.95-24.52-.82-36.79-1.11-.24,0-.49.41-.8.68Z"/><path class="cls-2" d="M41.55,67.6v-41c10.84,0,21.31-.15,31.77,0,9,.17,18,.06,26.86,1.27,11.46,1.56,16.86,7.64,17.2,17.31.38,10.8-4.72,17.68-15.62,20.7a36.62,36.62,0,0,1-9.31,1.59C75.67,67.68,58.88,67.6,41.55,67.6Z"/><path class="cls-2" d="M0,347V0H984V347ZM41.16,146.77v-6.4c0-15.17,0-30.33,0-45.5,0-2.81.24-4.83,3.92-4.75,15.15.35,30.32.15,45.45.86,12.9.6,19.87,6.46,22.47,17.51a61.28,61.28,0,0,1,1.18,7.38c1,9.1,1.81,18.21,2.93,27.28.16,1.33,1.59,3.55,2.48,3.57,10.72.25,21.45.16,31.77.16-1.18-9.53-2.23-18.42-3.39-27.29-.88-6.75-1.48-13.56-2.92-20.19-2-9.07-8-14.76-16.87-17.32-4-1.16-8.15-1.88-12.23-2.8a33.25,33.25,0,0,1,7.53-2.45c16.21-4,26-15.13,27.31-31C152.2,28.15,145,14.66,128.88,9A101.65,101.65,0,0,0,98.2,3.42c-27.81-.74-55.66-.25-83.49-.25H9.53v143.6ZM808.06,60.4C786.39,35,742,41,725.73,59.49c-17.79,20.22-17.41,57.06,1.28,76.08,10.18,10.37,23,14.58,36.94,15.15,16.93.7,32.83-2.21,44.86-16.87.55,4.74,1,8.75,1.48,12.76h27.88V3.53H808.06V60.4Zm164.32,43.51c2.42-30-11.29-50.32-38-57.68-12.71-3.51-25.61-3.47-38.62-2.1-28.7,3-45.93,18.39-49.07,45.58C843.5,117.4,855,141,886.23,148.12a113.72,113.72,0,0,0,44.11,1.13c10.1-1.66,19.82-4.38,28.25-10.5,6.16-4.48,10.23-10.29,11.26-18.58-8.69,0-17.13.09-25.57,0-3.79-.06-7.07-.05-9,4.21-.8,1.77-3,3.06-4.84,4.16-12.57,7.63-33.68,5.6-44.5-4.3-5.82-5.32-8.36-12-8.1-20.28Zm-508.83-.08c4-25.24-8.84-47.27-32-55.75-14.41-5.28-29.24-5.52-44.3-3.94C356.55,47.35,339,65.41,337.87,95.29c-1,26.83,12.51,45.81,37.63,52.31a111.57,111.57,0,0,0,46.06,1.72c9.94-1.6,19.53-4.23,27.9-10.07,6.49-4.53,11-10.4,11.82-19.08-8.57,0-16.71.08-24.85,0-4,0-7.43-.13-9.89,4.37-1.41,2.58-5,4.39-8,5.61-11.57,4.72-23.24,4-34.35-1.35-10-4.82-14.92-13.19-15-24.93h94.32Zm91.24,12.58c.69,17,9.21,27.6,25.14,31.26,17.21,4,34.67,4.21,52.11,1.87,9.12-1.22,17.75-4.09,25.22-10,13.64-10.73,14.64-38.24-5-47-5.82-2.61-12.26-4.08-18.56-5.33-11.9-2.36-23.94-4-35.84-6.34-4.1-.82-7.87-2.88-8.09-8.15-.24-5.49,3-8.2,7.55-9.87,7.79-2.87,15.72-2.38,23.58-.4,5.9,1.48,10,5,11.55,11.17.27,1.13,1.72,2.79,2.65,2.81,9.46.21,18.92.13,29.07.13a68.29,68.29,0,0,0-1-7.83c-2.69-11-10.46-17.24-20.53-20.65-20.34-6.91-40.9-6.7-61.24,0a39.11,39.11,0,0,0-13.35,7.49c-16.13,14.18-12.54,38.06,7.41,45.86,10.06,3.94,21.19,5.17,31.89,7.39,7.47,1.55,15.23,2,22.48,4.23,7.45,2.25,8.26,10.58,1.94,15.22a13.66,13.66,0,0,1-6.26,2.88c-7.56.72-15.18,1.49-22.74,1.22-8.12-.29-13.47-4.94-15.88-12.9-.36-1.22-2-2.91-3-2.93C574.37,116.31,564.74,116.41,554.79,116.41ZM514.07,342.67v-84c2,2.56,3.23,4.08,4.4,5.64q27.74,37.29,55.49,74.56c1.14,1.53,2.73,3.79,4.17,3.84,10.25.33,20.51.18,30.94.18V235.58h-21.3v81a10.22,10.22,0,0,1-4.36-3.71q-27.33-37-54.69-73.92c-1.11-1.49-2.83-3.52-4.32-3.57-10.59-.31-21.2-.16-31.84-.16V342.67Zm-260.2.32c6.62,0,12.92-.18,19.19.07,3.64.15,4.54-1.34,4.5-4.67-.14-11.33,0-22.66-.1-34,0-3.15.87-4.56,4.23-4.45,11,.39,22,.32,32.94.93,10.8.6,16.31,6.09,17.58,16.82.81,6.94,1.24,13.92,2.13,20.84.2,1.53,1.56,4.1,2.48,4.14,7.86.33,15.74.19,23.1.19-1.08-10.13-2.11-19.52-3.08-28.92-1.33-12.81-6.94-18.78-19.56-20.8a35.1,35.1,0,0,1-4-1.28c3.38-.92,5.43-1.46,7.47-2,11.44-3.28,18.32-11.59,19-22.93.8-13.22-4.28-23.14-15.8-27.15a83.49,83.49,0,0,0-24.33-4.38c-18.81-.62-37.66-.19-56.49-.2h-9.24Zm566.07-50.73c3-.71,4.66-1.17,6.38-1.54,13.82-2.93,21.46-11.81,22.09-25.68.59-13.16-6.14-23-19.41-26.7a86.1,86.1,0,0,0-21.12-3c-20.15-.39-40.32-.14-60.48-.13-1.6,0-3.21.18-4.85.27V342.54H766c0-12.76.11-25.07-.07-37.38,0-3.82,1-5.41,5.1-5.23,10.14.45,20.31.36,30.45.85,13.19.64,18.76,6.4,19.77,19.59.5,6.46,1.14,12.92,2,19.34.16,1.19,1.84,3.06,2.87,3.09,7.59.27,15.19.15,22.48.15-.92-8-2.14-15.38-2.55-22.81C844.85,297.68,837,294.32,819.94,292.26ZM965.7,266.94c-.81-12.85-6.31-22.13-17.24-27.87-12.53-6.58-26.06-7.59-39.85-6.41-10.39.89-20.25,3.52-28.88,9.82-14.65,10.69-18.61,39.46,5.65,49.26a90.56,90.56,0,0,0,17.67,5c9.81,1.78,19.78,2.68,29.61,4.34,8.39,1.41,12.78,5.41,13.44,11.33.65,5.75-3.5,11.69-10.59,14.82-8,3.54-16.53,3.75-25,2.55-10.76-1.53-19.33-6.11-22-17.87a3.31,3.31,0,0,0-2.35-2.08c-7.24-.17-14.49-.1-21.72-.1.12,15.33,8.76,26.59,24.17,32.07,12.67,4.5,25.76,4.78,38.95,3.53,10.34-1,20.43-3.06,29.31-8.83,10.69-6.94,15.07-17.1,13.77-29.53-1.28-12.26-8.6-20.1-20.09-23.53-7.12-2.12-14.63-2.94-22-4.19-8.67-1.48-17.45-2.48-26-4.3-5.18-1.1-8.89-4.57-9.61-10.24s2-9.72,6.46-12.59c2.33-1.49,5.12-3.06,7.75-3.13,6.88-.21,13.91-.27,20.66.85,7.3,1.22,11.87,6.2,13.58,13.65.3,1.3,1.74,3.29,2.72,3.33C951.19,267.07,958.32,266.94,965.7,266.94ZM238.51,343a7.2,7.2,0,0,0-.11-1.75q-26.31-51.57-52.77-103.06a6.79,6.79,0,0,0-5-2.86c-7.65-.31-15.33,0-23-.2-3-.08-4.39,1-5.69,3.59q-25.18,49.62-50.55,99.15c-.73,1.43-1.26,3-2.16,5.1,8.19,0,15.8.13,23.4-.14,1.14,0,2.6-1.76,3.24-3,2.92-5.79,5.39-11.82,8.48-17.5.89-1.62,3.33-3.35,5.08-3.37q27.73-.37,55.48,0c1.76,0,4.17,1.72,5.11,3.32,3.36,5.74,6.09,11.83,9.33,17.64.75,1.34,2.54,2.93,3.89,3C221.61,343.11,229.93,343,238.51,343ZM346,47.06c-9.82,0-18.77.14-27.7-.08-3.31-.08-5,1-6.46,4C302,71.54,292,92,282,112.5c-1.85,3.8-3.83,7.53-6.12,12-1.37-2.66-2.31-4.38-3.17-6.15-9.57-19.57-19.85-38.85-28.38-58.87-4.26-10-9.54-14.1-20.26-12.63-6.74.93-13.72.18-21.3.18,17.49,33.13,34.46,65.35,51.6,97.47.69,1.28,3.09,2.27,4.72,2.31,9.83.21,19.67-.08,29.49.2,3.69.11,5.57-1.1,7.26-4.36,11.93-23.05,24.07-46,36.14-69C336.54,65.07,341.07,56.43,346,47.06ZM4.46,193.66h974V188.6H4.46ZM657.52,295.73h58.83V278.11H657.86V252.4h60.57v-17H634.06v107.2h87.36V326H662.21c-2.36,0-4.77.29-4.73-3.37C657.59,314,657.52,305.32,657.52,295.73Zm-653-60V342.32a6.05,6.05,0,0,0,1.57.55q6.24.11,12.48.12c9.94,0,9.94,0,9.94-10.09V302.49c11.55,0,22.5.09,33.44,0,9-.1,17.94-1.08,26.2-5.17,13-6.45,17.56-17.41,16.68-31.27-.8-12.69-6.82-21.78-18.77-26.35-4.45-1.71-9.27-3.24-14-3.38-21.95-.64-43.91-.77-65.87-1.06A8,8,0,0,0,4.51,235.69ZM555.93,68.42c0-6-.15-12.18.07-18.32.11-3.16-1.86-3.63-4-3.79-6.62-.47-13.3-1.36-19.89-1C520.2,46,510.67,51.07,505,62.06a20.84,20.84,0,0,1-1.81,2.39c-.42-6.08-.79-11.5-1.17-17H474v99.15h29.95c0-2.27,0-4.24,0-6.2.29-14.64,0-29.32,1.06-43.9,1.11-14.82,9.86-24.23,24.58-26.74C538,68.35,546.73,68.83,555.93,68.42ZM478.32,235.49H372.54v17h40.83v90.14H437v-6.19c0-26.16.1-52.32-.1-78.48,0-4.43,1.24-5.72,5.64-5.59,10.32.32,20.66.23,31,0,1.62,0,4.45-1.65,4.58-2.78C478.63,245,478.32,240.36,478.32,235.49Zm227-188H675.71v99.13h29.58Zm-510.53-.09H165.47v99.22h29.29Z"/><path d="M41.16,146.77H9.53V3.17h5.18c27.83,0,55.68-.49,83.49.25A101.65,101.65,0,0,1,128.88,9C145,14.66,152.2,28.15,150.77,45.83c-1.29,15.87-11.1,27-27.31,31a33.25,33.25,0,0,0-7.53,2.45c4.08.92,8.22,1.64,12.23,2.8C137,84.64,143.05,90.33,145,99.4c1.44,6.63,2,13.44,2.92,20.19,1.16,8.87,2.21,17.76,3.39,27.29-10.32,0-21.05.09-31.77-.16-.89,0-2.32-2.24-2.48-3.57-1.12-9.07-2-18.18-2.93-27.28a61.28,61.28,0,0,0-1.18-7.38c-2.6-11-9.57-16.91-22.47-17.51-15.13-.71-30.3-.51-45.45-.86-3.68-.08-3.93,1.94-3.92,4.75,0,15.17,0,30.33,0,45.5Zm.39-79.17c17.33,0,34.12.08,50.9-.08a36.62,36.62,0,0,0,9.31-1.59c10.9-3,16-9.9,15.62-20.7-.34-9.67-5.74-15.75-17.2-17.31-8.85-1.21-17.89-1.1-26.86-1.27-10.46-.19-20.93,0-31.77,0Z"/><path d="M808.06,60.4V3.53h30.11V146.61H810.29c-.46-4-.93-8-1.48-12.76-12,14.66-27.93,17.57-44.86,16.87-14-.57-26.76-4.78-36.94-15.15-18.69-19-19.07-55.86-1.28-76.08C742,41,786.39,35,808.06,60.4Zm0,39.46c0-18-8.21-30.79-21-35.71a31.29,31.29,0,0,0-34.21,8.45c-11.41,13-11.76,34.58-.76,48a30.84,30.84,0,0,0,40.12,6.78C803.43,120.39,807.65,109.6,808.07,99.86Z"/><path d="M972.38,103.91H877.84c-.26,8.25,2.28,15,8.1,20.28,10.82,9.9,31.93,11.93,44.5,4.3,1.82-1.1,4-2.39,4.84-4.16,1.93-4.26,5.21-4.27,9-4.21,8.44.14,16.88,0,25.57,0-1,8.29-5.1,14.1-11.26,18.58-8.43,6.12-18.15,8.84-28.25,10.5a113.72,113.72,0,0,1-44.11-1.13C855,141,843.5,117.4,846.71,89.71c3.14-27.19,20.37-42.55,49.07-45.58,13-1.37,25.91-1.41,38.62,2.1C961.09,53.59,974.8,73.89,972.38,103.91ZM878.2,85.72h62.59c.37-14.35-12.46-24.6-30.59-24.78C892.25,60.77,878,71.66,878.2,85.72Z"/><path d="M463.55,103.83H369.23c.07,11.74,5,20.11,15,24.93,11.11,5.37,22.78,6.07,34.35,1.35,3-1.22,6.56-3,8-5.61,2.46-4.5,5.86-4.42,9.89-4.37,8.14.12,16.28,0,24.85,0-.81,8.68-5.33,14.55-11.82,19.08-8.37,5.84-18,8.47-27.9,10.07a111.57,111.57,0,0,1-46.06-1.72c-25.12-6.5-38.65-25.48-37.63-52.31,1.13-29.88,18.68-47.94,49.39-51.15,15.06-1.58,29.89-1.34,44.3,3.94C454.71,56.56,467.54,78.59,463.55,103.83ZM369.64,85.74h62.87c-.64-15.2-12.33-24.56-30.6-24.79C384,60.72,370.6,70.76,369.64,85.74Z"/><path d="M554.79,116.41c10,0,19.58-.1,29.2.13,1,0,2.64,1.71,3,2.93,2.41,8,7.76,12.61,15.88,12.9,7.56.27,15.18-.5,22.74-1.22a13.66,13.66,0,0,0,6.26-2.88c6.32-4.64,5.51-13-1.94-15.22-7.25-2.2-15-2.68-22.48-4.23-10.7-2.22-21.83-3.45-31.89-7.39-19.95-7.8-23.54-31.68-7.41-45.86a39.11,39.11,0,0,1,13.35-7.49c20.34-6.68,40.9-6.89,61.24,0,10.07,3.41,17.84,9.69,20.53,20.65a68.29,68.29,0,0,1,1,7.83c-10.15,0-19.61.08-29.07-.13-.93,0-2.38-1.68-2.65-2.81C631,67.43,626.85,64,621,62.47c-7.86-2-15.79-2.47-23.58.4-4.52,1.67-7.79,4.38-7.55,9.87.22,5.27,4,7.33,8.09,8.15,11.9,2.35,23.94,4,35.84,6.34,6.3,1.25,12.74,2.72,18.56,5.33,19.59,8.78,18.59,36.29,5,47-7.47,5.87-16.1,8.74-25.22,10-17.44,2.34-34.9,2.09-52.11-1.87C564,144,555.48,133.4,554.79,116.41Z"/><path class="cls-1" d="M514.07,342.67H492.56V235.21c10.64,0,21.25-.15,31.84.16,1.49,0,3.21,2.08,4.32,3.57q27.4,36.9,54.69,73.92a10.22,10.22,0,0,0,4.36,3.71v-81h21.3V342.91c-10.43,0-20.69.15-30.94-.18-1.44-.05-3-2.31-4.17-3.84q-27.8-37.23-55.49-74.56c-1.17-1.56-2.4-3.08-4.4-5.64Z"/><path class="cls-1" d="M253.87,343V235.17h9.24c18.83,0,37.68-.42,56.49.2a83.49,83.49,0,0,1,24.33,4.38c11.52,4,16.6,13.93,15.8,27.15-.68,11.34-7.56,19.65-19,22.93-2,.58-4.09,1.12-7.47,2a35.1,35.1,0,0,0,4,1.28c12.62,2,18.23,8,19.56,20.8,1,9.4,2,18.79,3.08,28.92-7.36,0-15.24.14-23.1-.19-.92,0-2.28-2.61-2.48-4.14-.89-6.92-1.32-13.9-2.13-20.84-1.27-10.73-6.78-16.22-17.58-16.82-11-.61-22-.54-32.94-.93-3.36-.11-4.27,1.3-4.23,4.45.13,11.33,0,22.66.1,34,0,3.33-.86,4.82-4.5,4.67C266.79,342.81,260.49,343,253.87,343Zm23.69-90.1c0,9.74-.1,19.18.17,28.62,0,.87,2.46,2.35,3.8,2.38,8.65.22,17.32.34,26,0a97.75,97.75,0,0,0,16.27-1.9,13.5,13.5,0,0,0,10.4-9.12c3.54-10.09-2.52-19.24-14.33-19.85C306.07,252.34,292.25,252.89,277.56,252.89Z"/><path class="cls-1" d="M819.94,292.26c17,2.06,24.91,5.42,26.14,27.88.41,7.43,1.63,14.82,2.55,22.81-7.29,0-14.89.12-22.48-.15-1,0-2.71-1.9-2.87-3.09-.9-6.42-1.54-12.88-2-19.34-1-13.19-6.58-18.95-19.77-19.59-10.14-.49-20.31-.4-30.45-.85-4.06-.18-5.15,1.41-5.1,5.23.18,12.31.07,24.62.07,37.38H742.55V235.45c1.64-.09,3.25-.26,4.85-.27,20.16,0,40.33-.26,60.48.13a86.1,86.1,0,0,1,21.12,3c13.27,3.69,20,13.54,19.41,26.7-.63,13.87-8.27,22.75-22.09,25.68C824.6,291.09,822.9,291.55,819.94,292.26ZM789,252l0,.5c-6.32,0-12.64.11-19,0-3-.08-4.13,1.08-4.08,4.07.12,7.65.16,15.3,0,23-.09,3.54,1.32,4.63,4.71,4.58,10-.15,20,.16,29.94-.15a48,48,0,0,0,12.69-2.2c7.36-2.33,10.53-7.46,10.19-15.2-.3-7-3.77-11.42-11.64-12.7C804.33,252.58,796.64,252.55,789,252Z"/><path class="cls-1" d="M965.7,266.94c-7.38,0-14.51.13-21.63-.16-1,0-2.42-2-2.72-3.33-1.71-7.45-6.28-12.43-13.58-13.65-6.75-1.12-13.78-1.06-20.66-.85-2.63.07-5.42,1.64-7.75,3.13-4.48,2.87-7.17,7-6.46,12.59s4.43,9.14,9.61,10.24c8.6,1.82,17.38,2.82,26,4.3,7.36,1.25,14.87,2.07,22,4.19,11.49,3.43,18.81,11.27,20.09,23.53,1.3,12.43-3.08,22.59-13.77,29.53-8.88,5.77-19,7.85-29.31,8.83-13.19,1.25-26.28,1-38.95-3.53-15.41-5.48-24.05-16.74-24.17-32.07,7.23,0,14.48-.07,21.72.1a3.31,3.31,0,0,1,2.35,2.08c2.66,11.76,11.23,16.34,22,17.87,8.48,1.2,17,1,25-2.55,7.09-3.13,11.24-9.07,10.59-14.82-.66-5.92-5.05-9.92-13.44-11.33-9.83-1.66-19.8-2.56-29.61-4.34a90.56,90.56,0,0,1-17.67-5c-24.26-9.8-20.3-38.57-5.65-49.26,8.63-6.3,18.49-8.93,28.88-9.82,13.79-1.18,27.32-.17,39.85,6.41C959.39,244.81,964.89,254.09,965.7,266.94Z"/><path class="cls-1" d="M238.51,343c-8.58,0-16.9.14-25.21-.14-1.35,0-3.14-1.63-3.89-3-3.24-5.81-6-11.9-9.33-17.64-.94-1.6-3.35-3.3-5.11-3.32q-27.74-.36-55.48,0c-1.75,0-4.19,1.75-5.08,3.37-3.09,5.68-5.56,11.71-8.48,17.5-.64,1.27-2.1,3-3.24,3-7.6.27-15.21.14-23.4.14.9-2.13,1.43-3.67,2.16-5.1q25.29-49.57,50.55-99.15c1.3-2.55,2.72-3.67,5.69-3.59,7.65.22,15.33-.11,23,.2a6.79,6.79,0,0,1,5,2.86q26.57,51.43,52.77,103.06A7.2,7.2,0,0,1,238.51,343Zm-71.3-89.2c-7.82,16.4-15.06,31.55-22.46,47H189.7Z"/><path d="M346,47.06c-4.91,9.37-9.44,18-14,26.65-12.07,23-24.21,45.92-36.14,69-1.69,3.26-3.57,4.47-7.26,4.36-9.82-.28-19.66,0-29.49-.2-1.63,0-4-1-4.72-2.31-17.14-32.12-34.11-64.34-51.6-97.47,7.58,0,14.56.75,21.3-.18,10.72-1.47,16,2.63,20.26,12.63,8.53,20,18.81,39.3,28.38,58.87.86,1.77,1.8,3.49,3.17,6.15,2.29-4.5,4.27-8.23,6.12-12,10-20.49,20-41,29.8-61.52,1.45-3,3.15-4.08,6.46-4C327.21,47.2,336.16,47.06,346,47.06Z"/><path d="M4.46,193.66V188.6h974v5.06Z"/><path class="cls-1" d="M657.52,295.73c0,9.59.07,18.25,0,26.9,0,3.66,2.37,3.37,4.73,3.37h59.21v16.61H634.06V235.42h84.37v17H657.86v25.71h58.49v17.62Z"/><path d="M555.93,68.42c-9.2.41-17.94-.07-26.35,1.36C514.86,72.29,506.11,81.7,505,96.52c-1.09,14.58-.77,29.26-1.06,43.9,0,2,0,3.93,0,6.2H474V47.47h28c.38,5.48.75,10.9,1.17,17A20.84,20.84,0,0,0,505,62.06c5.69-11,15.22-16.09,27.08-16.75,6.59-.36,13.27.53,19.89,1,2.19.16,4.16.63,4,3.79C555.78,56.24,555.93,62.39,555.93,68.42Z"/><path class="cls-1" d="M478.32,235.49c0,4.87.31,9.53-.22,14.09-.13,1.13-3,2.74-4.58,2.78-10.33.25-20.67.34-31,0-4.4-.13-5.67,1.16-5.64,5.59.2,26.16.1,52.32.1,78.48v6.19H413.37V252.5H372.54v-17Z"/><path d="M705.29,47.44v99.13H675.71V47.44Z"/><path d="M194.76,47.35v99.22H165.47V47.35Z"/><path class="cls-2" d="M808.07,99.86c-.42,9.74-4.64,20.53-15.88,27.49a30.84,30.84,0,0,1-40.12-6.78c-11-13.39-10.65-34.94.76-48A31.29,31.29,0,0,1,787,64.15C799.86,69.07,808,81.81,808.07,99.86Z"/><path class="cls-2" d="M878.2,85.72c-.18-14.06,14-24.95,32-24.78,18.13.18,31,10.43,30.59,24.78Z"/><path class="cls-2" d="M369.64,85.74c1-15,14.32-25,32.27-24.79,18.27.23,30,9.59,30.6,24.79Z"/><path class="cls-2" d="M277.56,252.89c14.69,0,28.51-.55,42.27.17,11.81.61,17.87,9.76,14.33,19.85a13.5,13.5,0,0,1-10.4,9.12,97.75,97.75,0,0,1-16.27,1.9c-8.64.3-17.31.18-26,0-1.34,0-3.77-1.51-3.8-2.38C277.46,272.07,277.56,262.63,277.56,252.89Z"/><path class="cls-2" d="M789,252c7.6.55,15.29.58,22.79,1.81,7.87,1.28,11.34,5.7,11.64,12.7.34,7.74-2.83,12.87-10.19,15.2a48,48,0,0,1-12.69,2.2c-10,.31-20,0-29.94.15-3.39.05-4.8-1-4.71-4.58.18-7.65.14-15.3,0-23-.05-3,1-4.15,4.08-4.07,6.32.15,12.64,0,19,0Z"/><path class="cls-2" d="M167.21,253.77l22.49,47H144.75C152.15,285.32,159.39,270.17,167.21,253.77Z"/><path class="cls-2" d="M28.8,284.54V253.48c.31-.27.56-.69.8-.68,12.27.29,24.57.16,36.79,1.11,6.65.51,11.71,4.48,13.42,11.57,1.89,7.87-1.63,14.74-9.21,17.64a15.59,15.59,0,0,1-5.28,1.35C53.25,284.59,41.17,284.54,28.8,284.54Z"/></g></g></svg>