<?xml version="1.0" encoding="utf-8"?>
<!-- Generator: Adobe Illustrator 22.0.1, SVG Export Plug-In . SVG Version: 6.00 Build 0)  -->
<svg version="1.1" id="Layer_1" xmlns="http://www.w3.org/2000/svg" xmlns:xlink="http://www.w3.org/1999/xlink" x="0px" y="0px"
	 viewBox="0 0 150.2 132.4" style="enable-background:new 0 0 150.2 132.4;" xml:space="preserve">
<style type="text/css">
	.st0{fill:#EDEDFC;}
	.st1{fill:#FEFEFE;}
	.st2{fill:#5526C6;}
	.st3{fill:none;stroke:#5526C6;stroke-width:3;stroke-miterlimit:10;}
	.st4{fill:#5526C6;stroke:#5526C6;stroke-width:3;stroke-miterlimit:10;}
</style>
<path class="st0" d="M50.1,48.6c-7.6,1.6-14,5.9-21,8.9c-4.8,2.1-9.6,3.9-14.8,3.9C8.8,61.5,3.8,56.8,3,51.2
	c-0.6-4.4,3.6-11,8.3-11.9c12.2-2.5,22.3-9.8,33.5-14.6C55,20.3,64.7,14.4,76.1,13.2c4.4-0.5,8,1.3,10,4.9c2.3,4,2.3,8.2-0.3,12.7
	c-4.5,7.7-8.3,15.7-12.5,23.7c1.7,1.2,2.6-0.2,3.7-1c10.5-8.2,21.4-15.9,32.7-23c5-3.2,11.8-2.8,15.8,0.9c4.3,3.9,5.2,9.5,2.4,15.1
	c-2.7,5.2-5.5,10.4-8.3,15.6c-0.7,1.3-2.9,2.7-1.3,4.1c1.7,1.5,2.7-0.9,3.7-1.9c2.6-2.9,5.8-3.8,9.6-3.8c4.4,0,8.6,0.6,10,5.3
	c1.3,4.5,2.1,9.2-2.1,13.3c-15.1,14.9-30.7,29.1-48,41.4c-7.6,5.4-12.6,4.6-18.6-1.3c-3.8-3.8-3.9-7.7-1.9-12.2
	c3.4-7.4,6.8-14.8,10.2-22.3c0.8-1.7,1.4-3.4,2.1-5.2c-0.4-0.3-0.8-0.6-1.1-0.9c-6.7,5.4-13.1,11.1-20,16.2
	c-5.1,3.8-8.7,9.4-15,11.8c-4.2,1.6-7.5,0.8-10.7-2.3c-3.4-3.3-5.6-6.8-4.1-11.8c3.8-13.2,9.2-25.7,15.4-37.9
	C48.9,52.7,49.4,50.6,50.1,48.6c0.1-0.1,0.2-0.3,0.2-0.5C50.3,48.3,50.2,48.5,50.1,48.6z"/>
<path class="st1" d="M333,47.4c0.1-0.1,0.2-0.3,0.2-0.4C333.2,47.1,333.1,47.3,333,47.4L333,47.4z"/>
<g id="experiment-results" transform="translate(19.786 16.612)">
	<path id="Path_71" class="st2" d="M68.6,35.5l-1.9,2.8c-0.3,0.5-0.9,0.6-1.4,0.3c-0.1-0.1-0.2-0.2-0.3-0.3l-0.1-0.1
		c-1.4-2.1-4.3-2.6-6.4-1.2c-0.7,0.5-1.2,1.1-1.6,1.9l-1,2.1c-0.2,0.5-0.8,0.7-1.3,0.5c-0.1-0.1-0.3-0.4-0.3-0.6l-2.2-8.5
		c-0.5-2-2.3-3.5-4.4-3.5l0,0c-2.1,0-3.9,1.4-4.4,3.5l-1.9,8c-0.1,0.5-0.7,0.9-1.2,0.7c-0.3-0.1-0.6-0.3-0.7-0.6l-1.9-4.4
		c-0.7-1.7-2.4-2.8-4.2-2.8h-5.2l0,3.1h5.1c0.4,0,0.8,0.2,0.9,0.6l1.9,4.4c1,2.3,3.7,3.4,6,2.4c1.3-0.6,2.3-1.7,2.6-3.1l1.9-8
		c0.1-0.5,0.7-0.9,1.2-0.7c0.4,0.1,0.6,0.4,0.7,0.7l2.2,8.5c0.5,1.9,2.1,3.3,4,3.4c0.1,0,0.3,0,0.4,0c1.8,0,3.4-1,4.1-2.7l1-2.1
		c0.2-0.5,0.8-0.7,1.3-0.5c0.2,0.1,0.3,0.2,0.4,0.3l0.1,0.1c0.9,1.2,2.3,2,3.8,2l0,0c1.5,0,2.9-0.8,3.8-2.1l1.9-2.8
		c0.2-0.3,0.5-0.4,0.8-0.4h5.6l0-3.1h-5.6C70.9,33.4,69.5,34.2,68.6,35.5z"/>
</g>
<path class="st3" d="M100.9,106H46c-2.7,0-4.8-2.2-4.8-4.8V31.3c0-2.7,2.2-4.8,4.8-4.8h55c2.7,0,4.8,2.2,4.8,4.8v69.9
	C105.8,103.8,103.6,106,100.9,106z"/>
<line class="st4" x1="47.9" y1="91" x2="88.2" y2="91"/>
<line class="st4" x1="47.9" y1="80.8" x2="68" y2="80.8"/>
</svg>
