<?xml version="1.0" encoding="utf-8"?>
<!-- Generator: Adobe Illustrator 23.0.0, SVG Export Plug-In . SVG Version: 6.00 Build 0)  -->
<svg version="1.1" id="Layer_1" xmlns="http://www.w3.org/2000/svg" xmlns:xlink="http://www.w3.org/1999/xlink" x="0px" y="0px"
	 viewBox="0 0 150.2 132.4" style="enable-background:new 0 0 150.2 132.4;" xml:space="preserve">
<style type="text/css">
	.st0{fill:#EAEAEA;}
	.st1{fill:#FEFEFE;}
	.st2{fill:#6D6D6D;stroke:#828282;}
</style>
<path class="st0" d="M50.1,48.6c-7.6,1.6-14,5.9-21,8.9c-4.8,2.1-9.6,3.9-14.8,3.9C8.8,61.5,3.8,56.8,3,51.2
	c-0.6-4.4,3.6-11,8.3-11.9c12.2-2.5,22.3-9.8,33.5-14.6C55,20.3,64.7,14.4,76.1,13.2c4.4-0.5,8,1.3,10,4.9c2.3,4,2.3,8.2-0.3,12.7
	c-4.5,7.7-8.3,15.7-12.5,23.7c1.7,1.2,2.6-0.2,3.7-1c10.5-8.2,21.4-15.9,32.7-23c5-3.2,11.8-2.8,15.8,0.9c4.3,3.9,5.2,9.5,2.4,15.1
	c-2.7,5.2-5.5,10.4-8.3,15.6c-0.7,1.3-2.9,2.7-1.3,4.1c1.7,1.5,2.7-0.9,3.7-1.9c2.6-2.9,5.8-3.8,9.6-3.8c4.4,0,8.6,0.6,10,5.3
	c1.3,4.5,2.1,9.2-2.1,13.3c-15.1,14.9-30.7,29.1-48,41.4c-7.6,5.4-12.6,4.6-18.6-1.3c-3.8-3.8-3.9-7.7-1.9-12.2
	c3.4-7.4,6.8-14.8,10.2-22.3c0.8-1.7,1.4-3.4,2.1-5.2c-0.4-0.3-0.8-0.6-1.1-0.9c-6.7,5.4-13.1,11.1-20,16.2
	c-5.1,3.8-8.7,9.4-15,11.8c-4.2,1.6-7.5,0.8-10.7-2.3c-3.4-3.3-5.6-6.8-4.1-11.8c3.8-13.2,9.2-25.7,15.4-37.9
	C48.9,52.7,49.4,50.6,50.1,48.6c0.1-0.1,0.2-0.3,0.2-0.5C50.3,48.3,50.2,48.5,50.1,48.6z"/>
<path class="st1" d="M333,47.4c0.1-0.1,0.2-0.3,0.2-0.4C333.2,47.1,333.1,47.3,333,47.4L333,47.4z"/>
<g id="stress2" transform="translate(-5.6 -4.1)">
	<g id="Group_84" transform="translate(25.645 71.173)">
		<path id="Path_120" class="st2" d="M46.4,27.7v4.7c0,0.6,0.5,1.2,1.1,1.2s1.2-0.5,1.2-1.1l0,0v-4.7c0-0.6-0.4-1.1-1-1.2h-0.1
			C46.9,26.6,46.4,27.1,46.4,27.7z"/>
	</g>
	<g id="Group_85" transform="translate(6.112 8.769)">
		<path id="Path_121" class="st2" d="M46.5,33.4l3.4,5.9c0.3,0.6,1,0.8,1.6,0.5s0.8-1,0.5-1.6l0,0L49.6,34h2.6
			c0.7,0,1.2-0.6,1.1-1.2c0-0.2-0.1-0.4-0.2-0.6L49.7,27c-0.4-0.5-1-0.6-1.5-0.2c-0.5,0.3-0.7,1-0.4,1.6c0,0,0,0,0,0.1l2.3,3.3h-2.5
			c-0.7,0-1.2,0.5-1.3,1.2C46.4,33.1,46.4,33.3,46.5,33.4z"/>
	</g>
	<g id="Group_86" transform="translate(59.747 8.775)">
		<path id="Path_122" class="st2" d="M53.2,32.3l-3.4-5.2c-0.3-0.5-1.1-0.7-1.6-0.3c-0.5,0.3-0.7,1.1-0.3,1.6l0,0l2.3,3.3h-2.5
			c-0.6,0-1.2,0.5-1.2,1.1c0,0.2,0,0.4,0.2,0.6l3.4,5.9c0.3,0.6,1,0.8,1.6,0.5s0.8-1,0.5-1.6L49.7,34h2.6c0.6,0,1.1-0.5,1.1-1.1
			C53.4,32.7,53.4,32.5,53.2,32.3z"/>
	</g>
	<g id="Group_87" transform="translate(7.248 4.6)">
		<path id="Path_123" class="st2" d="M46.4,68c0,0.6,0.4,1.1,1,1.2h0.1h3.2c1.4,4,3.6,7.7,6.4,10.8c1.2,1.3,1.8,3.1,1.8,4.8V99
			c0,0.6,0.5,1.2,1.1,1.2s1.2-0.5,1.2-1.1l0,0V84.9c0-2.3-0.8-4.6-2.4-6.3c-2.5-2.7-4.4-5.9-5.7-9.3H57l2.3,4.9
			c0.2,0.6,0.9,0.8,1.5,0.6c0.3-0.1,0.5-0.3,0.6-0.6l4.1-10l2.9,4.5c0.2,0.4,0.5,0.6,0.9,0.6h4.5l2.9,8.6c0.2,0.6,0.9,0.9,1.5,0.7
			c0.3-0.1,0.6-0.4,0.7-0.7l5.5-15.5l4.3,7.6c0.2,0.4,0.6,0.6,1,0.6h11.4l3.1,6.3H99c-0.6,0-1.1,0.4-1.1,1V78v10.5
			c0,3.3-2.6,4.9-5.7,4.9H86c-0.6,0-1.1,0.4-1.2,1v0.1V99c0,0.6,0.5,1.2,1.1,1.2s1.2-0.5,1.2-1.1l0,0v-3.6H92c0.1,0,3.9,0,6.2-2.3
			c1.3-1.3,1.9-3,1.8-4.8V79h6c0.6,0,1.1-0.5,1.1-1.1c0-0.2,0-0.3-0.1-0.5l-3.4-6.9h2.4c0.6,0,1.2-0.5,1.2-1.1s-0.5-1.2-1.1-1.2l0,0
			h-3.5l-1.7-3.3c-1.2-2.2-0.6-3.8-0.7-9.1c-0.7-8.3-6.4-15.4-14.5-17.7l-4.9-10.8c-0.2-0.4-0.6-0.7-1-0.7H69.4
			c-0.4,0-0.8,0.2-0.9,0.6c-0.2,0.3-0.2,0.8,0,1.2l3.4,5.4h-6.4c-0.6,0-1.1,0.6-1.1,1.3c0,0.3,0.1,0.5,0.3,0.7l2.4,2.8
			c-2.8,0.9-5.5,2.3-7.8,4.1c-6.2,4.5-9.8,11.7-9.8,19.3c0,1.7,0.2,3.3,0.6,4.9h-2.5c-0.6,0-1.1,0.4-1.1,1
			C46.4,67.9,46.4,67.9,46.4,68z M84.8,42h-6.3c-0.6,0.1-1.1,0.6-1.1,1.3c0,0.1,0,0.2,0,0.2l1.8,5.4L67.9,36h6
			c0.6,0,1.1-0.5,1.1-1.2c0-0.2-0.1-0.4-0.2-0.6l-3.4-5.4H79L84.8,42z M52.4,66.8c-0.5-1.6-0.7-3.2-0.7-4.8c0-6.9,3.3-13.5,8.9-17.6
			c2.4-1.8,5.2-3.2,8-4.1l12.9,14.5c0.4,0.5,1.2,0.5,1.6,0.1c0.3-0.3,0.5-0.8,0.3-1.2l-3.2-9.3h6.6c0.6,0,1.1-0.5,1.1-1.1
			c0-0.2,0-0.3-0.1-0.5l-0.7-1.7c6.1,2.4,10.3,8.1,10.8,14.7c0.1,5.1-0.6,7.1,0.9,10.1l1.2,2.3h-9.5L85.3,59
			c-0.3-0.5-1.1-0.7-1.6-0.4c-0.2,0.1-0.4,0.3-0.5,0.6l-5.3,14.7l-2.1-6.3c-0.1-0.5-0.6-0.8-1-0.8h-4.7L66.4,61
			c-0.4-0.5-1.2-0.6-1.7-0.2c-0.1,0.1-0.2,0.2-0.3,0.4l-4,9.5l-1.5-3.2c-0.2-0.4-0.6-0.7-1-0.7H52.4L52.4,66.8z"/>
	</g>
</g>
</svg>
