<?xml version="1.0" encoding="utf-8"?>
<!-- Generator: Adobe Illustrator 22.0.1, SVG Export Plug-In . SVG Version: 6.00 Build 0)  -->
<svg version="1.1" id="svg2" xmlns:svg="http://www.w3.org/2000/svg"
	 xmlns="http://www.w3.org/2000/svg" xmlns:xlink="http://www.w3.org/1999/xlink" x="0px" y="0px" viewBox="0 0 945 190"
	 style="enable-background:new 0 0 945 190;" xml:space="preserve">
<style type="text/css">
	.st0{fill:#020202;}
	.st1{fill:#FFFFFF;}
</style>
<path id="path2883" d="M149.6,109.7l0-106.1C64.3-4.6,0,3.7,0,3.7s0,106.1,0,106.1c6.8,71.9,74.1,80.4,74.8,80.2
	C86.8,187.8,143.3,176.5,149.6,109.7z"/>
<path id="path2881" class="st0" d="M189.2,135.4c0,19.6,9.4,33.5,21.6,41.9c11.1,7.5,24.2,10.2,37.9,10.2c9.7,0,20.7-2.3,24.1-3.5
	c1.7-0.6,3.5-1.2,5.3-1.5c2.3-2.9,6.2-12.9,7.3-20.9c-0.6-1.1-2.9-1.4-4-0.6c-3.5,9-12.2,21.8-31.8,21.8c-25,0-45.2-17.7-45.2-49.7
	c0-31.5,19.8-46.3,43.1-46.3c22.1,0,28.9,11.9,31.2,22.2c1.1,0.9,3.4,0.8,4.1-0.3c-1.2-9.3-2-18.9-2.1-22.4
	c-1.4,0.2-2.4-0.2-4.3-0.6c-7.2-2-18.7-3.7-27-3.7c-15.8,0-30,4.3-41.1,12.9C196.8,104.1,189.2,118.5,189.2,135.4L189.2,135.4z"/>
<path id="path2879" class="st0" d="M232.4,3.5l0-0.2l-0.1-0.2c-0.2-0.5-1-0.5-1.2-0.5c-0.2,0-0.4,0-0.6,0.1l-0.2,0.1L230.3,3
	c-0.8,1.4-1.2,1.5-4.5,1.5h-26.2c-2.8,0-4.1-0.1-4.4-1.6l0-0.1l-0.1-0.1c-0.2-0.2-0.5-0.3-0.9-0.3c-0.2,0-0.7,0-0.9,0.2l-0.2,0.1
	l0,0.2c-0.4,2.5-1.4,6.5-2.4,9.4l-0.1,0.2l0.1,0.2c0.4,0.8,1.7,1.1,2.4,0.6l0.1-0.1l0.1-0.1c0.6-1.5,1.3-2.8,2.7-4.2
	c1.4-1.3,4.6-1.5,7.5-1.5h3.5c1.4,0,1.4,0,1.4,1.5v28.4c0,6.9-0.4,7.2-3.5,7.4l-2.3,0.2l-0.2,0.1c-0.4,0.2-0.6,0.7-0.6,1.3
	c0,0.4,0.2,1,0.6,1.2l0.1,0.1l0.1,0c3.9-0.1,6.2-0.2,8.8-0.2c2.5,0,4.5,0.1,8.3,0.2l0.1,0l0.1-0.1c0.4-0.2,0.6-0.8,0.6-1.2
	c0-0.5-0.1-1-0.4-1.2l-2.3-0.3c-3.2-0.3-3.4-0.7-3.4-7.4V8.9c0-0.6,0-1.3,0.1-1.4c0.1-0.1,0.8-0.1,1.3-0.1h4.5
	c3.4,0,5.7,0.5,7.1,1.5c0.6,0.4,1.1,2,1.4,4.3l0,0.1l0.1,0.1c0.2,0.3,0.7,0.5,1.1,0.5c0.6,0,1.1-0.3,1.3-0.7l0.1-0.1l0-0.1
	C231.3,11.2,231.7,6.1,232.4,3.5L232.4,3.5z"/>
<path id="path2877" class="st0" d="M284.6,37.4V14.5c0-6.8,0.2-7.2,3.4-7.5l1.3-0.1l0.2-0.1c0.3-0.2,0.5-0.6,0.4-1.2
	c0-0.2-0.1-1-0.6-1.2l-0.1-0.1l-0.1,0c-3.1,0.1-5.2,0.2-7.5,0.2c-2.7,0-5-0.1-7.7-0.2l-0.1,0l-0.1,0.1c-0.5,0.3-0.6,1-0.6,1.2
	c0,0.6,0.1,1,0.4,1.2l1.4,0.2c3.2,0.3,3.4,0.8,3.4,7.5v7.3c0,1.5,0,1.5-2.7,1.5h-18.2c-2.7,0-2.7,0-2.7-1.5v-7.3
	c0-6.8,0.2-7.2,3.4-7.5l1.2-0.1l0.2-0.1c0.3-0.2,0.5-0.7,0.4-1.2c0-0.2-0.1-1-0.6-1.2l-0.1-0.1l-0.1,0c-2.9,0.1-5,0.2-7.3,0.2
	c-1.7,0-3.1,0-4.7-0.1c-1,0-2.1-0.1-3.3-0.1l-0.1,0l-0.1,0.1c-0.5,0.3-0.6,1-0.6,1.2c0,0.6,0.1,1,0.4,1.2l0.1,0.1l1.8,0.1
	c2.8,0.2,3.3,0.8,3.3,7.5v22.8c0,6.6-0.1,6.9-3.3,7.5l-1.2,0.2l-0.1,0.1c-0.4,0.4-0.4,1-0.3,1.4c0.1,0.5,0.3,0.8,0.6,1l0.1,0.1
	l0.1,0c0.9,0,1.7,0,2.5-0.1c1.5-0.1,3.1-0.1,4.8-0.1c2.4,0,4.4,0.1,8,0.2l0.1,0l0.1-0.1c0.4-0.2,0.6-0.8,0.6-1.2
	c0-0.5-0.1-1-0.4-1.2l-2.1-0.3c-3-0.3-3.4-0.6-3.4-7.4v-9c0-1.5,0-1.5,2.7-1.5h18.2c2.7,0,2.7,0,2.7,1.5v9c0,6.8-0.1,6.9-3.5,7.5
	l-1.4,0.2l-0.1,0.1c-0.4,0.4-0.4,1-0.3,1.4c0.1,0.5,0.3,0.8,0.6,1l0.1,0.1l0.1,0c3-0.1,5.3-0.2,7.7-0.2c2.5,0,4.7,0.1,7.7,0.2l0.1,0
	l0.1-0.1c0.5-0.3,0.6-1,0.6-1.2c0-0.6-0.1-1-0.4-1.2l-1.7-0.3C284.7,44.4,284.6,44.1,284.6,37.4L284.6,37.4z"/>
<path id="path2875" class="st0" d="M337.6,38.3l0-0.2l-0.1-0.1c-0.3-0.6-0.9-0.9-1.5-0.9c-0.3,0-0.6,0.1-0.8,0.2l-0.2,0.2
	c-1.8,3.6-3.5,5.5-4.3,5.9c-1.4,0.7-3.3,0.9-7.9,0.9c-5.3,0-6.6-0.6-7.3-1.3c-0.9-1-1.1-3-1.1-6.3v-8.9c0-1.2,0-1.2,1.6-1.2h3.7
	c2.2,0,3.9,0.1,4.8,0.3c0.9,0.2,1.3,0.8,1.6,2.1l0.6,2.5l0.1,0.2c0.2,0.3,0.7,0.5,1.2,0.5c0.6,0,1.1-0.2,1.3-0.6l0.1-0.1v-0.1
	c0-0.6,0-1.4-0.1-2.4c-0.1-1.2-0.1-2.5-0.1-3.7c0-1.3,0.1-2.7,0.1-3.9c0.1-1,0.1-1.8,0.1-2.5v-0.1l-0.1-0.1
	c-0.2-0.4-0.7-0.6-1.3-0.6c-0.5,0-0.9,0.2-1.2,0.5l-0.6,2.8c-0.3,1.5-0.6,1.7-1.2,1.9c-0.7,0.2-2.6,0.4-5.2,0.4h-3.7
	c-1.6,0-1.6,0-1.6-1.3V9.5c0-2.1,0-2.1,1.4-2.1h4.6c2.7,0,4.8,0.1,6,0.4c2.9,0.7,3.5,2.6,4.4,5.3l0.1,0.4l0.1,0.2
	c0.2,0.3,0.6,0.4,1,0.4c0.4,0,1-0.1,1.3-0.6l0.1-0.1l-0.1-0.9c-0.3-3.7-0.6-6.8-1-7.8l-0.1-0.4l-0.4,0.1c-0.7,0.2-4.6,0.2-8.5,0.2
	h-11.9c-2.4,0-4.5-0.1-7.5-0.2l-0.1,0l-0.1,0.1c-0.5,0.3-0.6,1-0.6,1.2c0,0.6,0.1,1,0.4,1.2l1.2,0.2c3.2,0.4,3.4,0.8,3.4,7.5v22.8
	c0,6.9-0.4,7.2-3.5,7.4l-2.3,0.2l-0.1,0.1c-0.4,0.4-0.4,1-0.3,1.4c0.1,0.5,0.3,0.8,0.6,1l0.1,0.1l0.1,0c3.7-0.1,5.9-0.2,8.6-0.2h5.7
	c5.5,0,11.1,0.1,17,0.2l0.3,0l0.1-0.3C335.6,45.5,337.2,40.6,337.6,38.3L337.6,38.3z"/>
<path id="path2873" class="st0" d="M343.7,87.9c0.9-0.6,0.6-3.4-0.3-3.8c-6.5,0.3-11.7,0.5-17.7,0.5c-6.5,0-11.7-0.3-19.2-0.5
	c-0.9,0.5-1.2,3.2-0.3,3.8l4,0.3c7.9,0.6,9,3.2,9,19.2v54.8c0,16-0.3,17.5-8.8,19l-2.6,0.5c-0.9,0.9-0.6,3.4,0.3,3.8
	c5.9-0.2,11.1-0.5,17.7-0.5c5.9,0,11.1,0.2,19.3,0.5c0.9-0.5,1.2-3.2,0.3-3.8l-4.4-0.5c-8.5-0.9-9.3-3-9.3-19v-21.5
	c0-4.6,0.3-4.9,7.6-4.9h43.6c7.3,0,7.6,0.3,7.6,4.9v21.5c0,16,0,17.5-9.3,19l-2.9,0.5c-0.9,0.9-0.6,3.4,0.3,3.8
	c6.7-0.3,12.2-0.5,18.4-0.5c5.9,0,11.1,0.2,18.4,0.5c0.9-0.5,1.2-3.2,0.3-3.8l-3.7-0.5c-8.8-1.1-9.1-3-9.1-19v-54.8
	c0-16,0.3-18.3,9.1-19.2l3.2-0.3c0.9-0.6,0.6-3.4-0.3-3.8c-6.9,0.3-12,0.5-18,0.5c-6.2,0-11.4-0.2-18.4-0.5
	c-0.9,0.5-1.2,3.2-0.3,3.8l2.9,0.3c9,0.9,9.3,3.2,9.3,19.2v17.5c0,4.7-0.3,4.9-7.6,4.9h-43.6c-7.3,0-7.6-0.2-7.6-4.9v-17.5
	c0-16,0.3-18.3,9.1-19.2L343.7,87.9L343.7,87.9z"/>
<path id="path2871" class="st0" d="M416.7,6.6c0.3-0.3,0.4-0.9,0.3-1.3c-0.1-0.4-0.3-0.7-0.6-0.9l-0.1-0.1l-0.2,0
	c-2.2,0.1-3.9,0.2-6.6,0.2c-2.4,0-4.8-0.1-7.2-0.2l-0.2,0L402,4.4c-0.3,0.2-0.5,0.6-0.6,1c-0.1,0.5,0.1,0.9,0.3,1.3l0.1,0.2l1.8,0.1
	c1.5,0.1,2.4,0.5,2.8,1.1c0.7,1.3,1.1,5.9,1.1,12.9v7.3c0,7.5-2.1,16.4-12.2,16.4c-8.5,0-12.4-5.2-12.4-16.5V14.4
	c0-6.7,0.2-7.2,3.4-7.5l1.6-0.1l0.1-0.1c0.3-0.2,0.5-0.6,0.4-1.2c0-0.4-0.2-1-0.6-1.2l-0.1-0.1l-0.1,0c-3,0.1-5.1,0.2-7.8,0.2
	c-2.6,0-4.9-0.1-7.8-0.2l-0.1,0l-0.1,0.1c-0.4,0.2-0.6,0.7-0.6,1.2c0,0.5,0.1,1,0.4,1.2l0.1,0.1l1.7,0.1c3.1,0.3,3.4,0.8,3.4,7.5v15
	c0,7.7,1.6,12.4,5.1,15.4c2.8,2.4,6.9,3.6,12.2,3.6c5,0,9.8-1.8,12.5-4.8c3.1-3.3,4.6-8.4,4.6-15.5v-7.2c0-3.2,0-10.8,0.8-12.7
	c0.3-0.6,1.4-1.1,2.8-1.2l1.7-0.1L416.7,6.6L416.7,6.6z"/>
<path id="path2869" class="st0" d="M473.6,6.7c0.3-0.3,0.5-0.8,0.4-1.3c-0.1-0.5-0.3-0.8-0.6-1l-0.1-0.1l-0.2,0
	c-2.1,0.1-3.7,0.2-6.5,0.2c-2.2,0-4.3-0.1-7.5-0.2l-0.1,0l-0.1,0c-0.4,0.1-0.6,0.5-0.7,1c-0.1,0.6,0.1,1.1,0.4,1.5l0.1,0.1L460,7
	c2.2,0.3,3.3,0.6,3.6,1c0.8,1.2,1.2,5.9,1.2,12.9v13.6c0,0.6,0,1.3,0,1.8c-2.2-2.3-4.5-4.9-7.4-8.1l-8.8-9.9
	c-6.3-7-9.9-11.7-10.7-13.7l-0.1-0.4l-0.4,0.1c-0.8,0.1-1.8,0.2-2.8,0.2c-1.1,0-4.5,0-7.1-0.2l-0.1,0l-0.1,0.1
	c-0.3,0.2-0.6,0.5-0.6,1c-0.1,0.5,0.1,1.1,0.4,1.4l0.1,0.1l1.2,0.1c1.7,0.2,3,0.7,3.6,1.4c1.2,1.3,1.3,2.5,1.3,4.2l0,18.9
	c0,3.1,0,10.3-0.8,12.3c-0.1,0.3-0.7,0.8-2.4,1L428,45l-0.1,0.1c-0.3,0.3-0.4,0.7-0.4,1.2c0,0.5,0.2,0.9,0.6,1.1l0.1,0.1l0.2,0
	c2.2-0.1,3.9-0.2,6.6-0.2c2.1,0,4.3,0.1,7.4,0.2l0.2,0l0.1-0.1c0.3-0.2,0.5-0.5,0.6-1c0.1-0.5,0-0.9-0.3-1.3l-0.1-0.2l-2.2-0.2
	c-1.5-0.1-2.6-0.5-2.9-1c-0.7-1.2-1.1-5.9-1.1-12.9V17.1c0-1.1,0-2.3,0.1-3.2c1,1.1,2.7,3.1,4.2,4.9c1,1.2,2,2.4,2.6,3.1l14.7,16.8
	c4.9,5.6,7.2,8.3,8.1,9.5l0.1,0.2h0.3c0.8,0,1.5-0.4,1.7-1l0-0.1l0-0.1c-0.1-0.7-0.2-3.3-0.2-11l0-16c0-3.3,0-10,0.9-12
	c0.1-0.2,0.8-0.7,3.2-1.1l1-0.1L473.6,6.7L473.6,6.7z"/>
<path id="path2867" class="st0" d="M465.7,161.9v-54.2c0-16.1,0.3-18.7,9.3-19.5l3.8-0.3c0.9-0.6,0.6-3.4-0.3-3.8
	c-7.6,0.3-12.8,0.5-18.9,0.5c-6.4,0-11.6-0.2-19.2-0.5c-0.9,0.5-1.2,3.2-0.3,3.8l3.8,0.3c9,0.8,9.3,3.4,9.3,19.5v54.2
	c0,16.1-0.3,18.3-9.3,19.3l-3.8,0.5c-0.9,0.9-0.6,3.4,0.3,3.8c7.6-0.3,12.8-0.5,19.2-0.5c6.1,0,11.3,0.2,18.9,0.5
	c0.9-0.5,1.2-3.2,0.3-3.8l-3.8-0.5C466,180.2,465.7,178.1,465.7,161.9z"/>
<path id="path2865" class="st0" d="M497.6,37.2V14.6c0-6.9,0.2-7.4,3.4-7.6l1.7-0.1l0.1-0.1c0.3-0.2,0.5-0.7,0.4-1.2
	c0-0.2-0.1-1-0.6-1.2l-0.1-0.1l-0.1,0c-3,0.1-5.2,0.2-7.8,0.2c-2.7,0-4.9-0.1-8-0.2l-0.1,0l-0.1,0.1c-0.5,0.3-0.6,1-0.6,1.2
	c0,0.6,0.1,1,0.4,1.2l0.1,0.1L488,7c3.2,0.3,3.4,0.8,3.4,7.6v22.6c0,6.8-0.2,7.2-3.4,7.6l-1.8,0.2l-0.1,0.1c-0.4,0.4-0.4,1-0.3,1.4
	c0.1,0.5,0.3,0.8,0.6,1l0.1,0.1l0.1,0c3.2-0.1,5.3-0.2,8-0.2c2.5,0,4.7,0.1,7.8,0.2l0.1,0l0.1-0.1c0.5-0.3,0.6-1,0.6-1.2
	c0-0.6-0.1-1-0.4-1.2l-1.8-0.3C497.7,44.4,497.6,44.1,497.6,37.2z"/>
<path id="path2863" class="st0" d="M517.1,95.1c-11.6,9-19.2,23.5-19.2,40.4c0,19.6,9.4,33.5,21.6,41.9
	c11.1,7.5,24.2,10.2,37.9,10.2c9.7,0,20.7-2.3,24.1-3.5c1.7-0.6,3.5-1.2,5.3-1.5c2.3-2.9,6.2-12.9,7.3-20.9c-0.6-1.1-2.9-1.4-4-0.6
	c-3.5,9-12.2,21.8-31.8,21.8c-25,0-45.2-17.7-45.2-49.7c0-31.5,19.8-46.3,43.1-46.3c22.1,0,28.9,11.9,31.2,22.2
	c1.1,0.9,3.4,0.8,4.1-0.3c-1.2-9.3-2-18.9-2.1-22.4c-1.4,0.2-2.4-0.2-4.3-0.6c-7.2-2-18.7-3.7-27-3.7
	C542.3,82.1,528.2,86.4,517.1,95.1z"/>
<path id="path2861" class="st0" d="M558.5,6.7c0.3-0.3,0.4-0.9,0.3-1.4c-0.1-0.5-0.3-0.8-0.6-1l-0.1-0.1l-0.1,0
	c-2.1,0.1-4.1,0.2-6.1,0.2c-2.5,0-4.9-0.1-6.6-0.2l-0.1,0L545,4.4c-0.4,0.2-0.6,0.6-0.6,1.1c0,0.5,0.1,1,0.4,1.3l0.1,0.1l1.3,0.1
	c2.2,0.3,2.4,0.7,2.4,0.7c0,0.4-0.1,1.1-0.5,2.3c-1.1,2.8-4.1,10-5.9,14.2c-0.5,1.1-1.1,2.5-1.7,4c-1.2,2.9-2.7,6.3-3.9,9.1
	c-3-6.9-5.8-13.8-8.6-20.9c-1.9-4.6-2.9-7.9-3.1-8.7c0.1-0.2,0.6-0.5,2.5-0.7l1.1-0.1l0.1-0.1c0.3-0.3,0.5-0.7,0.4-1.3
	c0-0.5-0.3-0.9-0.6-1.1l-0.1-0.1l-0.1,0c-2.8,0.1-5,0.2-7.7,0.2c-2.6,0-4.7-0.1-6.6-0.2l-0.2,0l-0.1,0.1C513.3,4.6,513,5,513,5.5
	c0,0.5,0.1,0.9,0.5,1.2l0.1,0.1l1.3,0.1c2.5,0.3,3.3,1.4,4.7,4.9l11.2,27.5c1.3,3.3,2.3,6.1,2.9,8.4l0.1,0.2l0.2,0.1
	c0.4,0.2,0.7,0.2,1.1,0.2c0.4,0,0.7-0.1,1-0.3l0.1-0.1l0.1-0.2c1.1-3.4,4.1-10.9,6.6-16.5l3.4-7.8c2.9-6.7,5.4-11.7,7.1-14.5
	c0.8-1.3,1.7-1.9,2.9-2l2.1-0.1L558.5,6.7L558.5,6.7z"/>
<path id="path2859" class="st0" d="M602,38.3l0-0.2L602,38c-0.3-0.6-0.9-0.9-1.5-0.9c-0.3,0-0.6,0.1-0.8,0.2l-0.2,0.2
	c-1.8,3.6-3.5,5.5-4.3,5.9c-1.4,0.7-3.3,0.9-7.9,0.9c-5.3,0-6.6-0.6-7.3-1.3c-0.9-1-1.1-3-1.1-6.3v-8.9c0-1.2,0-1.2,1.6-1.2h3.7
	c2.2,0,3.9,0.1,4.8,0.3c0.9,0.2,1.3,0.8,1.6,2l0.6,2.5l0.1,0.2c0.2,0.3,0.7,0.5,1.2,0.5c0.6,0,1.1-0.2,1.3-0.6l0.1-0.1v-0.1
	c0-0.6,0-1.4-0.1-2.4c-0.1-1.2-0.1-2.5-0.1-3.7c0-1.3,0.1-2.7,0.1-3.9c0.1-1,0.1-1.8,0.1-2.5v-0.1l-0.1-0.1
	c-0.2-0.4-0.7-0.6-1.3-0.6c-0.5,0-1,0.2-1.2,0.5l-0.6,2.8c-0.3,1.5-0.6,1.7-1.2,1.9c-0.7,0.2-2.6,0.4-5.2,0.4h-3.7
	c-1.6,0-1.6,0-1.6-1.3V9.5c0-2.1,0-2.1,1.4-2.1h4.6c2.7,0,4.8,0.1,6,0.4c2.9,0.7,3.5,2.6,4.4,5.3l0.1,0.4l0.1,0.2
	c0.2,0.3,0.6,0.4,1,0.4c0.4,0,1-0.1,1.3-0.6l0.1-0.1l-0.1-0.9c-0.3-3.7-0.6-6.8-1-7.8l-0.1-0.4l-0.4,0.1c-0.7,0.2-4.6,0.2-8.4,0.2
	H576c-2.4,0-4.5-0.1-7.5-0.2l-0.1,0l-0.1,0.1c-0.5,0.3-0.6,1-0.6,1.2c0,0.6,0.1,1,0.4,1.2l1.2,0.2c3.2,0.4,3.4,0.8,3.4,7.5v22.8
	c0,6.9-0.4,7.2-3.5,7.4L567,45l-0.1,0.1c-0.4,0.4-0.4,0.9-0.3,1.4c0.1,0.5,0.3,0.8,0.6,1l0.1,0.1l0.1,0c3.7-0.1,5.9-0.2,8.6-0.2h5.7
	c5.5,0,11.1,0.1,17,0.2l0.3,0l0.1-0.3C600,45.5,601.6,40.6,602,38.3L602,38.3z"/>
<path id="path2857" class="st0" d="M634.8,24c-1.8,1.4-4.3,1.6-6.2,1.6c-2.9,0-3.7-0.1-4-0.2c-0.1-0.3-0.1-1-0.1-1.7V8.8
	c0-1.4,0-1.5,3.6-1.5c7.1,0,9.7,5,9.7,9.3C637.8,20.1,636.8,22.4,634.8,24L634.8,24z M653.9,47.6c0.3-0.2,0.4-0.6,0.4-1
	c-0.1-0.3-0.3-0.6-0.6-0.7l-0.1,0c-1.5-0.1-3-0.7-4.1-1.7c-4.4-3.7-7.8-9-12.7-16.8c-0.3-0.5-0.4-0.8-0.4-0.9c2.1-0.9,8.1-4,8.1-11
	c0-5.3-3-8-5.5-9.3c-3.2-1.7-7.3-2-10.8-2c-5.8,0-10.3,0.2-14.2,0.5l-0.2,0.1c-0.4,0.2-0.6,0.6-0.7,1.1c0,0.5,0.2,1.1,0.5,1.3
	l0.1,0.1l2.2,0.3c2.1,0.3,2.4,0.7,2.4,6.9v22.8c0,6.7-0.2,7.1-3.4,7.4l-1.8,0.2l-0.1,0.1c-0.4,0.4-0.4,1-0.3,1.5
	c0.1,0.4,0.3,0.7,0.6,0.9l0.1,0.1l0.1,0c2.8-0.1,5.1-0.2,7.9-0.2c2.6,0,4.8,0.1,7.5,0.2l0.1,0l0.1-0.1c0.5-0.2,0.6-0.8,0.6-1.1
	c0.1-0.6-0.1-1-0.4-1.3l-0.1-0.1l-1.5-0.2c-3.3-0.5-3.4-0.7-3.4-7.4v-8c0-0.9,0-0.9,2.5-0.9c2.4,0,3.3,0.6,4.1,1.8
	c1,1.4,2.1,3.2,3.2,4.9c1.1,1.8,2.2,3.5,3.1,4.7c4.4,6.2,7.6,8.2,13.5,8.2c1.2,0,2.3-0.1,2.9-0.3L653.9,47.6L653.9,47.6z"/>
<path id="path2853" class="st0" d="M669.9,13c0-2.4,0.9-6.6,7.1-6.6c5.6,0,7.3,3.6,8.2,6.8l0.1,0.2c0.2,0.2,0.5,0.4,1,0.4
	c0.5,0,1.1-0.2,1.4-0.6l0.1-0.1v-0.1c0-2.6-0.5-6.2-1.2-7.9l-0.1-0.3h-0.3c-0.4,0-1.3-0.1-2.1-0.4c-1.5-0.4-3.9-0.8-6-0.8
	c-8,0-13.4,4.6-13.4,11.4c0,5.8,4.4,9.6,7.1,11.3l6,3.9c4.4,2.8,5,5.7,5,8.5c0,3.4-2.3,6.8-7.4,6.8c-6.4,0-9.2-5-10.4-9.1l-0.1-0.1
	c-0.2-0.3-0.5-0.4-1-0.4c-0.4,0-1,0.2-1.4,0.6l-0.1,0.1l0,0.2c0.1,2.9,0.9,7.6,1.8,9.1l0.1,0.1l0.1,0.1c1.2,0.7,4.7,2.4,10.1,2.4
	c8.4,0,14-4.9,14-12.2c0-5.1-2.7-9.2-8.2-12.6l-5.1-3.2C673.2,19.2,669.9,16.6,669.9,13L669.9,13z"/>
<path id="path2851" class="st0" d="M663.7,139.9H645c-4.3,0-4.4-0.2-3.2-3.7l9.6-26.5c1.7-4.6,3.2-8.2,3.7-9h0.3
	c0.9,1.8,2.3,5.9,3.5,9.6l8.2,24.8C668.4,139.2,668.1,139.9,663.7,139.9z M703,181.3c-6.5-0.8-8.5-3-12.9-16.1l-20.9-61.2
	c-2.3-6.7-4.7-13.7-6.7-20.4c-0.3-1.1-1.4-1.4-2.3-1.4c-1.7,2-4.3,4.7-7.9,5.8c0.5,2.4-0.5,5.3-2.6,10.8l-15.5,41.1
	c-6.4,17.1-10.7,27-13.4,34c-2.1,5.5-5.5,7.2-9.1,7.5l-5,0.5c-0.9,0.8-0.6,3.2,0.3,3.8c4.1-0.2,9.6-0.5,14.6-0.5
	c7.2,0.2,11.9,0.2,15.8,0.5c1.4-0.6,1.4-3,0.3-3.8l-5-0.5c-3.7-0.3-4.4-1.2-4.4-3c0-1.7,1.1-5.8,3.4-12.6l5.3-16
	c1.1-3.2,2-3.7,5.8-3.7h23c4.6,0,5.2,0.5,6.2,3.8l6.7,20.7c1.2,3.7,2,6.4,2,8.1c0,1.5-2.1,2.4-5.3,2.7l-4.4,0.5
	c-1.1,0.8-0.9,3.2,0.3,3.8c4.4-0.2,10.2-0.5,17.5-0.5c6.9,0,12.2,0.2,18.4,0.5c0.8-0.6,1.1-3,0-3.8L703,181.3L703,181.3z"/>
<path id="path2847" class="st0" d="M713.5,37.2V14.6c0-6.9,0.2-7.4,3.4-7.6l1.7-0.1l0.1-0.1c0.3-0.2,0.5-0.7,0.4-1.2
	c0-0.2-0.1-1-0.6-1.2l-0.1-0.1l-0.1,0c-3,0.1-5.2,0.2-7.9,0.2c-2.7,0-4.9-0.1-8-0.2l-0.1,0l-0.1,0.1c-0.5,0.3-0.6,1-0.6,1.2
	c0,0.6,0.1,1,0.4,1.2l0.1,0.1l1.7,0.1c3.2,0.3,3.4,0.7,3.4,7.6v22.6c0,6.8-0.2,7.2-3.4,7.6l-1.8,0.2l-0.1,0.1
	c-0.4,0.4-0.4,1-0.3,1.4c0.1,0.5,0.3,0.8,0.6,1l0.1,0.1l0.1,0c3.2-0.1,5.4-0.2,8-0.2c2.5,0,4.6,0.1,7.9,0.2l0.1,0l0.1-0.1
	c0.5-0.3,0.6-1,0.6-1.2c0-0.5-0.1-1-0.4-1.2l-1.8-0.3C713.6,44.4,713.5,44.1,713.5,37.2L713.5,37.2z"/>
<path id="path2845" class="st0" d="M771.3,3.5l0-0.2l-0.1-0.2c-0.2-0.5-0.9-0.5-1.2-0.5c-0.2,0-0.4,0-0.6,0.1l-0.2,0.1L769.3,3
	c-0.8,1.4-1.2,1.5-4.5,1.5h-26.2c-2.8,0-4.1-0.1-4.4-1.6l0-0.2L734,2.7c-0.2-0.2-0.5-0.3-0.9-0.3c-0.2,0-0.7,0-0.9,0.2L732,2.7
	l0,0.2c-0.4,2.5-1.4,6.6-2.4,9.4l-0.1,0.2l0.1,0.2c0.4,0.8,1.7,1.1,2.4,0.6l0.1-0.1l0.1-0.1c0.6-1.5,1.3-2.9,2.7-4.2
	c1.4-1.3,4.6-1.5,7.5-1.5h3.5c1.4,0,1.4,0,1.4,1.5v28.4c0,6.9-0.4,7.2-3.5,7.4l-2.3,0.2l-0.2,0.1c-0.4,0.2-0.6,0.7-0.6,1.3
	c0,0.4,0.2,1,0.6,1.2l0.1,0.1l0.1,0c3.9-0.1,6.2-0.2,8.8-0.2c2.5,0,4.5,0.1,8.3,0.2l0.1,0l0.1-0.1c0.5-0.3,0.6-1,0.6-1.2
	c0-0.6-0.1-1-0.4-1.2l-2.3-0.3c-3.2-0.3-3.4-0.7-3.4-7.4V8.9c0-0.6,0-1.3,0.1-1.4c0.1-0.1,0.8-0.1,1.3-0.1h4.5
	c3.4,0,5.7,0.5,7.1,1.5c0.6,0.4,1.1,2,1.4,4.3l0,0.1l0.1,0.1c0.2,0.3,0.7,0.5,1.2,0.5c0.6,0,1.1-0.3,1.3-0.7l0.1-0.1l0-0.1
	C770.2,11.2,770.6,6.1,771.3,3.5L771.3,3.5z"/>
<path id="path2843" class="st0" d="M797.3,84.4c-2.6-0.6-10.7-2.3-19.3-2.3c-23,0-38.1,7.2-48.3,17.8c-9.4,10.1-13.7,23.1-13.7,36.1
	c0,13.4,4.9,25.4,14,34.6c11.7,11.9,28.3,16.9,46.5,16.9c8.2,0,19.2-1.8,27.3-4c2.9-0.8,5.6-1.4,7.5-1.4c0.6-0.5,0.6-1.4,0.2-1.8
	c-2.7-1.1-3.7-4.7-3.7-10.8V161c0-7.8,0.2-12,6.5-12.8l2.4-0.3c1.1-0.9,0.9-3.2-0.2-3.8c-5,0.3-10.2,0.5-16.1,0.5
	c-9,0-17.4-0.2-21.8-0.5c-1.1,0.5-1.2,3.2,0,3.8l6.7,0.8c9.4,1.1,9.9,2,9.9,14.8v6.1c0,4.9-0.8,7.6-1.5,8.7
	c-1.7,2.6-7.3,4.6-16.8,4.6c-30.6,0-45.7-23-45.7-52.2c0-22.8,13-43.9,42.5-43.9c15.5,0,27,5.2,31.2,21.6c0.9,0.9,3.7,0.8,4.1-0.5
	c-1.4-9.1-2.3-17.1-2.3-22.1C804.9,86.1,800.2,85,797.3,84.4L797.3,84.4z"/>
<path id="path2841" class="st0" d="M819.5,6.8c0.3-0.3,0.5-0.7,0.5-1.2c0-0.5-0.3-0.9-0.6-1.1l-0.1-0.1l-0.2,0
	c-4.5,0.3-7.2,0.3-11.9,0l-0.1,0l-0.1,0.1c-0.4,0.2-0.6,0.5-0.7,1c-0.1,0.5,0.1,1,0.4,1.4l0.1,0.1L808,7c1.2,0.2,2,0.5,2.2,0.6
	c-0.2,0.9-2.4,5-3.8,7.5l-0.3,0.5c-1.5,3-3.3,6.1-5.5,10c-1.7-3-3.3-6.3-4.9-9.6c-0.6-1.3-1.2-2.5-1.9-3.8c-0.5-0.9-1.9-4.2-1.9-4.7
	c0-0.1,0.3-0.4,2.3-0.7l1-0.2l0.1-0.1c0.3-0.3,0.5-1,0.4-1.5c-0.1-0.4-0.4-0.8-0.7-0.9l-0.1,0l-0.1,0c-1.6,0.1-3.8,0.2-6.8,0.2
	c-2.9,0-5.3-0.1-7.3-0.2l-0.1,0l-0.1,0.1c-0.3,0.2-0.5,0.5-0.6,0.9c-0.1,0.5,0,1,0.3,1.4l0.1,0.1l1.9,0.3c1.7,0.3,2.5,0.4,4.7,4.6
	l7.5,14.6c1.8,3.5,2,4.2,2,7.6v3.2c0,6.9-0.2,7.2-3.4,7.6l-2.1,0.2l-0.1,0.1c-0.4,0.4-0.4,1-0.3,1.4c0.1,0.5,0.3,0.8,0.6,1l0.1,0.1
	l0.1,0c3.4-0.1,5.6-0.2,8.3-0.2c2.6,0,4.8,0.1,8.6,0.2l0.1,0l0.1-0.1c0.3-0.2,0.5-0.5,0.6-1c0.1-0.4,0-1-0.3-1.4l-0.1-0.1l-2.6-0.2
	c-2.9-0.2-3.4-0.7-3.4-7.6v-3.3c0-4.8,0.1-5.2,2.9-10l4-6.9c0.4-0.6,0.7-1.2,1-1.8c2.5-4.4,4.3-7.5,7-8l1.9-0.3L819.5,6.8L819.5,6.8
	z"/>
<path id="path2839" class="st0" d="M853.2,131c0-33.4,20.6-44.2,36.4-44.2c29.1,0,40.2,27.1,40.2,52.2c0,30-17.4,43.7-35.6,43.7
	C864.1,182.8,853.2,153.6,853.2,131L853.2,131z M837.9,135.9c0,27.4,20.4,51.6,54.2,51.6c29.4,0,52.8-22.4,52.8-53.2
	c0-26.8-17.7-52.2-52.8-52.2C860.8,82.1,837.9,105.4,837.9,135.9L837.9,135.9z"/>
<path id="path2835" class="st0" d="M889.8,27.7c0,13.1-7.7,17.7-14.4,17.7c-13.1,0-16.6-13.3-16.6-21.1c0-13.2,7.9-17.9,14.7-17.9
	C885.6,6.4,889.8,17.9,889.8,27.7L889.8,27.7z M897.2,25.7c0-10.7-7-22.3-22.5-22.3c-13.2,0-23.1,9.8-23.1,22.9
	c0,10.9,7.9,22,23.1,22C887.5,48.4,897.2,38.6,897.2,25.7z"/>
<path id="path24" class="st0" d="M939.8,13.4l0.1-0.1l0-0.1c-0.1-2.3-0.2-5.3-0.2-8.3V4.2L939,4.3c-0.8,0.2-4.7,0.2-8.5,0.2h-11.7
	c-2.4,0-4.5-0.1-7.3-0.2l-0.1,0l-0.1,0.1c-0.5,0.3-0.6,1-0.6,1.2c0,0.6,0.1,1,0.4,1.2l1.2,0.2c3.2,0.4,3.4,0.7,3.4,7.5v22.8
	c0,6.7-0.2,7.1-3.4,7.4l-1.8,0.2l-0.1,0.1c-0.4,0.4-0.4,0.9-0.3,1.4c0.1,0.5,0.3,0.8,0.6,1l0.1,0.1l0.1,0c3-0.1,5.1-0.2,7.9-0.2
	c2.6,0,4.8,0.1,8.4,0.2l0.1,0l0.1-0.1c0.4-0.2,0.6-0.8,0.6-1.2c0-0.5-0.1-1-0.4-1.2l-2.4-0.3c-3.2-0.3-3.4-0.7-3.4-7.4v-8.8
	c0-1.2,0-1.2,1.6-1.2h4.3c2.2,0,3.9,0.1,4.7,0.3c0.9,0.3,1.4,0.9,1.7,2.1l0.7,2.6l0.1,0.1c0.6,0.5,2,0.5,2.4-0.1l0.1-0.1V32
	c0-0.7-0.1-1.5-0.1-2.4c-0.1-1.2-0.1-2.5-0.1-3.7c0-1.3,0.1-2.6,0.1-3.8c0.1-1,0.1-1.9,0.1-2.6v-0.1l-0.1-0.1
	c-0.3-0.5-0.9-0.5-1.2-0.5c-0.5,0-1,0.2-1.2,0.5l-0.7,2.7c-0.4,1.5-0.8,1.7-1.3,1.9c-0.7,0.2-2.6,0.4-5.2,0.4h-4.3
	c-1.6,0-1.6,0-1.6-1.2V9.5c0-2.1,0-2.1,1.4-2.1h3.9c2.6,0,4.7,0,6,0.4c2.7,0.7,3.5,2.5,4.1,5.6l0,0.2l0.1,0.1c0.2,0.2,0.6,0.3,1,0.3
	C938.9,14.1,939.5,13.9,939.8,13.4"/>
<path id="path2885" class="st1" d="M24,136.2c1.4,0.9,3,1.3,4.4,2c1.8,4.8,0,9.4-1,7.5C25.7,142.3,25,139.4,24,136.2z M24.1,84.1
	L24,84c-0.1,0-9.5,5.9-15.5,3.1c4.5-2.5,20.2-12.4,24.4-15.3c2,0.4,2.8-0.3,3.5-0.7c-1.6,0.1-7.1,0.9-4.3-3.9
	c1.1,4.3,8.7,0.3,11.4-0.3c7.6-1.8,7.6,6.4,6.9,9.7c-0.2,1.3,2.3,2.1,3.6,2c-2.2,5.4-5.9,0.3-6.3,2.4c-0.2,0.8-2.7,1.5-2.7,3.5
	c0,2.8,1.1,1.3,1.2,3.5c0.1,2.1-0.9,0.5-0.7,2.8c0.4,3.6,6.4-0.5,8.9,0.5c1.2,0.5,2.1,1.6,3.3,1.4c0.4-0.3,0.2-1.7,0.1-2.2
	c-0.1-1.2-2.3-1.3-3.3-2.9c-0.9-1.4,1-5.5,2-6.7c1.4,6.8,7.8,4.7,8.8,11.9c0.6,2-2.2,4.3,0.1,7.6c-1.7,1.6-3.7,9.4-0.2,13.1
	c-0.6,1.7-1.4,5.5,1.8,7.7c-1.1,2.3-0.8,5,0.1,7.8c-2,0-1.6-11-13.3-11.3c-0.3-0.1-0.3,1.2,0,1.8c1.4,2.5,3.3,2.3,2.9,8.1
	c-0.1,2-1.3-0.3-1.9-0.9c-1.4-1.3-2.5-1.4-3.1-5.5c-4.8,3.7-4.3,8.3-4,10.6c0,0-1.1-2.9-2.3-5.8c-0.1-0.2,4.8-6.1,5.6-7.5
	c9.9-17.8-6.4,5.8-6.4,5.7c-0.9-2-1.6-3.8-2.2-4.3c0.1-0.2,2.8-3.3,4.1-5.8c7.7-15.9-4.6,5.3-5,4.9c-0.9-0.8-1.7-1.9-2.3-1.5
	c-0.1,2.4-0.7,2.1-0.6,4.6c-1.3,1.7-4,4.4-5.9,5.7c0,0-0.5-4.4-0.3-4.6c1-1.2,4.7-5.2,5.5-6.4c12.5-19.7-5.9,4.7-5.9,4.5
	c-0.1-0.8-1.1-2.1-2.2-3.2c0,0,4.1-5.5,5.1-7.6c7.6-15.7-6.1,7-6.3,6.9c-0.3-0.2-0.4-0.2-0.7-0.3c-0.4-0.1,0.4-4.5,1-7.2
	c1-5.2-1.7-1-2.5,7.3c-0.7,0.1-2.4,0.3-3.1,0.9c0.4,2.2,0.9,0.5,1.9,2.6c1.1,2.5-1.5,6.7,0.8,9.8c0.9,1.2,0.9,1,0.8,1.8
	c-1.4-0.1-2.3-0.1-3.2,1.1c-1.7-7.9-1.7-11.8-1.3-19.8c0.2-3.7,1.4-9.2,0.8-9.3C22.3,104,14,125.4,12,129.6
	c-3.5-1.2,2.2-19.7,9.4-28.6c0.7-2.8-3.8,2.9-6.5,5.2c-2.4,2.1-5.5,4.8-8.9,3.9c4.3-4.6,14.3-13.2,15.4-15.3
	c0.9-1.8-6.8,5.7-14.9,2.9C11.8,94.7,24.1,88.5,24.1,84.1z M38.8,124.4c0,2-0.1,3.4,0.5,5.4c0.9,3,0.5,2.1-0.8,1
	c-1-1.1-1.9-2-2.4-3.3C35.9,126.5,36.6,126.5,38.8,124.4z M58.5,76.1c-1.2-2,1.4-4,1.4-4c-0.1,5.7,7.2,1.8,11,3.6
	c0.9,0.4,1.6,1.2,1.9,2.1C68.7,75,61.2,80.7,58.5,76.1z M15.6,30.6c-6.5,0-6.4-9.8,0-9.8C22,20.8,22,30.6,15.6,30.6z M15.6,50
	c-6.7,0-6.7-9.7,0-9.7C22,40.3,22,50,15.6,50z M22.3,23.4h5.7V29h-5.7V23.4z M22.3,42.9h5.7v5.6h-5.7V42.9z M73.7,58
	c0,0-5.9-3.2-12.9-3.7c-6.7-0.4-20.3,4.9-30.8,4.2V12.7c0,0,11.9,1.6,16.8-0.3c16.6-6.4,26.9,0.8,26.9,0.8S73.7,58,73.7,58z
	 M85.2,65.5c0.3,1.7-1.3,2.2-1.3,2.2c2.5,0.6,3.7-0.9,4.2-1.8c1,4-3.1,4.2-4.3,4.5c0,0,2,0.6,2.1,1.9c0.3,3.4,2.4,3.1,2.9,2.8
	c-0.1,0.4-0.7,2.4-3.2,0.6c-0.4,0.4,0.7,1,0.9,2.7c0.3,2.1,0.2,4.1,2.7,5.4c-1.5,1.2-3.3-1.9-3.4-1.5c-0.2,0.4,2.1,1.6-0.4,7.4
	c-1.1-0.7-0.5-0.5-1.8-2.1c-1-0.8-1.4-1-0.6,0.4c1.5,1.8,1.8,6,1.3,7.1c-1.2-0.5-0.9-1.5-2.3-2.8c-0.1,0.6,0.4,3.3,1.9,4.7
	c2.5,2.3,3.4,5.1,3.5,5.6c0.2,2.1-0.5,4.8-0.7,7.5c-1.2-0.2-2.3-3.6-2.6-3.4c-0.4,0.2,0.2,3.4,2.5,5.5c1.1,3.3,0.7,5,0.4,5.1
	c-0.4,0.2-1.6-3.3-2.3-2.7c3.3,8.3,1,11.2,0.1,13.8c-0.7-2.6-1-4.6-1.9-7.6c-1.8,1.4-2.2,3.5-4.4,5.4c0-3.4-2-11.6-3.5-13.5
	c-0.1-0.1-2.8,7.4-4.1,10.7c-1.6,4.3-1.9,9.7,0,13.8c-4-5.8-4.5-16.5-1-17.9c0.3-0.8-0.2-3.3-1-3c-0.2,1.2-0.1,2.3-1.1,3.5
	c-2.7-0.8-1.5-4.1-1.2-5.1c3.5-4.2,1.3-5.1,1.1-5c-0.4,1-0.7,2.1-1.8,2.6c-2.2-3.8-0.8-9.8,3.4-14.3c0.2-1.7-1.9,1.2-3.2,1.1
	c-0.4-3.2,0.8-8.8,6.8-9c-1.1-0.3-1.8-0.5-2-1.5c1.8-0.3,7.5-0.7,6.5-5.2c-0.5,0.5-0.7,1.3-2.2,2.2c-1,0.6-2.1,0.7-2.6-0.2
	c2.6-0.9,1.8-4.1-1.7-3.1c-1.1,0.3-2.6-0.8-2.7-2c0.8,0.8,2.3,0.2,3.2-0.4c3.9-2.5,6.2,1.1,6.7,1.9c0.2,0,1.7-3.6-3.8-4.6
	c-0.5-1.3-1.7-3.5-5.4-3.2c-1.2-4.3-4.9-2.2-4.8-0.2c-3.9-2.9,0.1-6.6,1.7-7.1c1.1,0.1,0.9,3.6,2.8,3c0.5-0.1-1.5-2.4-0.8-3.4
	c1.8-1,1.7,1.3,2.6,0.4c0.4-1.5,2.2-2.4,3.6-2.5C78.2,63.2,81.4,67.7,85.2,65.5L85.2,65.5z M121.5,58.7c-8.8,0.6-26.9-4.4-31.5-4.4
	c-9.5,0-14.1,3.7-14.1,3.7s0-43.2,0-44.8c0,0,12.5-5.9,21.6-2.5c11.1,4.1,24,2.3,24,2.3V58.7z M133,41.1c4.8-0.7,5.6,5,5.6,5h0
	c-1.2-0.9-3.6-1.4-5.2-0.3c-5.4,3.5-10.2,3.5-10.2,3.5v-8.7C123.1,40.6,124.1,42.4,133,41.1L133,41.1z M138.7,29.2
	c0-0.3-0.1-0.7-0.2-1.2c-0.1-0.9-2.6-1.4-4.4-0.6c-2.5,1.1-8.6,4.6-10.9,3.9v-8.7c5.6,2.4,7.7,0.2,9.5,0.2c5.5,0,5.8,5.1,5.8,5.1
	C138.6,28.5,138.7,28.9,138.7,29.2z M132.5,119.3c-1.6,0.4-5.9,2.1-6.9,3.8c0.5-9.3-2.4-18.4-3.4-20.6c-1.9-4.3,0.8,10,1,13.2
	c0,0.1-15.4-19.8-6.1-4.4c2.4,4,6.2,6.6,6.2,6.6c0.1,2.8-0.1,4.8-0.6,6.3c-0.9,0.8-20.9-26.6-9.9-7.7c1.4,2.3,9.4,9.5,9.3,9.6
	c-0.5,1.1-1.4,2.7-2.7,3.8c-0.2-0.2-4.6-3.5-4.6-3.7c-0.3-2.1-0.3-4.1-3-2.6c0,0-9.9-11.5-5.3-3.4c2,3.5,3.3,3.9,3.8,4.5
	c0,0-1.5,2.1-2,4.3c-0.2,0.9-8.5-9.3-5.3-2.9c1,2,4.9,4.3,4.8,4.4c-0.4,1.3-0.8,2.6-1.2,3.4c-0.5,1.1-7.9,6.9-7.8,6.9
	c0,0,1.4-4.6,4.5-6.9c1.8-1.3,1.8-1,3-1.8c0-0.7-0.7-1.8-1.5-2.1c-1.1-0.4-4.5,0.3-4.5,0.3c0.3-1.7-1.2-5.5-1.2-9.6
	c-1.3,0.1-3.6,2.1-4.2,3.3c-0.4,6.8-1.9,4.8-3.3,9.7c-1.5-2.1,0.1-5-1.4-6.9c-2-2.6-2.3-4.4-2.6-7.7c0.5-0.3,2.5-2.6,0.7-7.4
	c-0.3-7.6,3.1-10.4-3-15.7c0.5-0.2,0.9-3.9,0.9-4c4.4,2.4,3.6-2.7,5.3-3.7c2.8-1.6,2.3-3.2,1-5.3c7.9,2.2-0.4,7.6,3.2,7.7
	c2.6,0.1,4.3-0.6,5.4-2.3c1.2-1.8-0.2-3,3.1-5.9c0.3-0.3,1.2-2.3-1.4-2.8c-0.6-0.1,0-2.4,0-2.4c-2.1,1.8-2.8,4.3-6.2,2.7
	c-1.7-0.8-2.9,0-3.6,0.3c0,0-0.4-1.4,1.1-1.9c3.7-1.3,4.6-2.7,4.4-3.6c-0.5-1.9-0.7,0-0.5-2c0-0.8,1-1.9,1.8-2.9
	c2.5-3,4.3-1.9,5-1.6c1.5-1.1,1.7-1.1,3.1-1.6c2.3-0.9,7.4,0.6,10.2,1.9c1.4,0.6,3,1,4.6,0.6c0,0.8-0.6,1.3-1.2,1.4
	c-0.9,0.3-1.9,0-1.9,0.6c0,0.4,1.3,0.4,2,0.7c4.2,1.1,9.6,4.9,6.1,4.1c-0.4-0.1,2.6,2.2,4.8,5.3l8,7.8c-0.4,0.4-3.2,0-12.1-8.3
	c-1.3,1.1,10.8,10.2,15.8,19.9c-0.4,0.3-6.6-2-8.9-4.3c-3.5-3.6-7.4-12.7-9.1-11.3c-0.2,0.1,6.6,10.6,9.9,16.8
	c1.7,3.2,3.1,7.7,3.2,11.1c0.5,16.8-2,15.5-2,15.5c-3.9-13.3-5.8-28.6-11.5-35.7C123.7,90.3,132.1,105.5,132.5,119.3L132.5,119.3z
	 M115.1,134.4c-1.8,1.6-2.9,2.1-2.6,1.3c0.4-0.9,0.8-1.6,1-2.2C113.6,133.3,115.1,134.4,115.1,134.4L115.1,134.4z M113.9,132.3
	c0.4-1.4,0.4-2.4,0.6-3.6c0.1-0.5,0.1-0.5,0.1-0.9c0-0.1,3.9,3.2,4.1,3.3c-1,1.2-1.8,1.6-2.7,2.5C115.3,133,113.9,132.4,113.9,132.3
	L113.9,132.3z M126.4,136.6c-5.3,5.3-13.3,3.4-19.7,6.2c-5.7,2.1-9.9,7.4-15.9,8.7c-1.8,0.6-2.1,1.4-0.9,1.4c0.7,0,4.3,3.8,10.2,0.9
	c2-1,8-4.4,9-4.6c-3.3,3.1-4.9,5.9-7.9,7.6c-1.8,1-9.1,3.6-16.4,2.2c-3.2-0.6-5.7,2.4-4.9,2.3c1.7-0.5,3.7-0.2,4.8,1.3
	c2.1,1.7,5.2,3.7,7.8,0.6c0.9-1,5.1-3.2,9,0.8c-4.2-0.2-3.8,7.3-11.7,6.4c-2.9,0-9.4-6.7-11.3-4.7c-3.3,3.7,7,7.2,2.6,11.8
	c-4,4.2-8.9-3.3-8.9-3.3c2.5,1.1,7.2,1.7,5.1-2.4c-0.8-1.6-2.4-3.1-2.4-6.1c-0.4-1.5-9.6,11.9-15.7,5.8c-2.4-2.4-7.3-7.6-11.7-9.6
	c11.7-1,13.4,3.7,14,4.4c3.7,5,7.2-0.1,8-1c1.2-1.4,2.9-3.3,2.3-3.6c-4.5-2.1-9.7-2.6-13.6-0.8c8.3-11.4,14.7-0.7,14.7-0.7
	c0.9,0.6-0.2-6.7-8.4-7.1c-5.1-0.3-9.6,4.3-13.1,4.3c-2.9,0-11.5-5.9-13.6-11.1c5.1,3.8,11.5,5.9,15.5,3.6
	c7.6-4.5,17.1,2.3,17.5,1.5c-2.1-1.7-6.9-8.1-19.9-4.4c-5,2.9-7.2-2.1-10.2-2.2c5.3-4.7,8.9-2.3,10.7-2.1c0.4,0-2.2-2.2-4-2.4
	c-14.3-1.5-23.4-5.4-23.4-5.4c-0.1,0,1.2-2.9,7.4-0.8c0,0-5.5-3.4-5.5-7.7c0.2-2.7,1.5-5.5-0.6-7.8c8.3-0.3,2.4,11.3,8.2,14.2
	c0.1,0-1.7-2.8,0.9-5c1.2,3.4,4.2,5.2,6.3,5.7c0.5-0.3,1.1-1.3,1.1-1.3c-2.2-3.6-2.5-7.9-1.9-12.7l0.1,0c0.5,0,1.3,1.7,1.8,2.9
	c1.2,2.6,1.2,6.4,3.6,9.5c1.3,1.7,2.2,3.4,3.4,4.2c0.5-1.2,0.1-3.3,0.1-3.8c-0.3-2-1.5-5.4,1.9-8.5c1.6,4.5,3.7,3.2,4,5.4
	c0.4,3.1,0.3,2.6,0,4.9c0.2,3.2,3.1,4.1,5.7,6.2c5.9,3.2,9.8,4.9,12.3,9c1.2-6.9-17.4-8.3-15-21.6c-0.2-5.3,0.7-5.8-3.1-9
	c7.5,0.2,11.6,12.5,12,14.7c0.7,4.1,3.3,4.3,6.7,9.7c0.5,0.2-6.1-14.3,1.8-26.7c0,0,2.7,6.4,1.4,10.7c-0.8,2.5-0.1,5.4,0.1,7
	c0.1,1.6-0.3-5.9,5.3-9.8c0.4,2.8,3.1,7.2,0.5,12c-3.1,5.7-3.4,3.7-3.4,10.7c0.3-0.1,1.1-4.9,3.3-7.6c4.6-5.7,1.3-8.8,5.7-13.7
	c0.4,2.5,1,1.5,1.2,3.7c0.6,4.9-4.6,10.3-3.4,10.2c1.3-0.2,3.4-1.3,4.1-5.1c0,0,1.9,3.4,0.2,4.6c-3.1,2.1-3.8,4.3-3.3,6.8
	c2.5-3,6-6.3,5.4-10.6c0.3-2.6,3.1-3.6,3.6-9.6c0.1-1,1.1-2.2,2.1-2.7c-0.4,3.4,2.2,6.9-0.8,11c0.7,0.4,3.2-3.2,6.9-1.9
	c-7.4,1.3-5.2,9.3-10.9,13.1c-1.7,1.1-1.4,2.4-1.9,2.5c5.1-0.3,9-6.3,9.6-6.8c5.1-3.4,6.2-4,8.2-9.5c0.8-2.1,0.2-3.1,3-5.9
	c1.2,2.8-0.6,8.7-1,9.9c-0.9,2.7-4.1,5-3.4,5c13.6-6,13.5-10.1,16.7-14.4c1-1.6,5.8-4.5,7.6-4.8c-0.4,0.9-2.3,2.4-2.4,4
	c-0.2,3-1.1,4.9-2.7,7.3c0.8,1.1,2.5-2,4.1-0.5C129.1,132.7,128.1,135.1,126.4,136.6L126.4,136.6z M128.7,135.8
	c-0.8,4-2.2,7.7-4.6,11.1c-1.7,2.4-2.4-2.3-0.9-6.9C125.2,139.2,127.3,137.6,128.7,135.8L128.7,135.8z M118.3,35
	c-0.3-0.1-1-0.2-1.4-0.2c-0.4,0-0.6,0.6-0.1,0.7c0.3,0.1,0.9,0.2,1.5,0.2C118.7,35.8,118.6,35.2,118.3,35z M116.7,36.9
	c0.3,0.1,0.9,0.2,1.5,0.2c0.4,0,0.3-0.6,0-0.7c-0.3-0.1-1-0.2-1.4-0.2C116.4,36.2,116.2,36.8,116.7,36.9z M116.7,45.6
	c-0.3-0.4-1.1-1-1.8-1.5c-0.4,0.3-1.3,1-1.8,1.3c-0.4-0.5-0.9-1.1-1.8-1.7c-0.5,0.3-1.9,1.7-2.5,2c0.9,0,2.2,0.3,2.2,1.1
	c0,0.7,0,4.8,0,5.5c0.5,0.1,1.2,0.1,1.9,0c0-0.6,0-5.3,0-5.9c0.3-0.1,0.6-0.3,0.7-0.4c0.3,0.2,1.2,1.3,1.7,1.6
	c0.4-0.3,1.3-1.1,1.7-1.5C117.6,45.6,117.1,45.3,116.7,45.6L116.7,45.6z M114.3,38.7c0.5-0.9,1.2-2.4,1.2-3.5
	c-0.1-1.4-0.9-3.4-2.9-4.1c-2.5,0.9-4.1,2.9-4.2,5.3c0,1.4,1.1,4.2,3.6,4.3C112.8,40,113.6,39.2,114.3,38.7z M112.8,39.3
	c-0.5-0.2-2.2-1.6-2.6-2.6c-0.5-1.4-0.5-2.9,0.9-3.8c1.1,0.4,2.5,1.5,2.6,2.6C113.9,36.8,113.5,38.4,112.8,39.3z M112.7,28.7l1.8-2
	c0,0-0.8-0.6-1.3-1.2c0-0.4,0-4.4,0.2-4.6c-1.4-1.2-2.4-1.4-3-1.3c-1.1,0.2-2.2,1.6-2.6,2.1c-0.3,0.4-0.2,0.9,0,1
	c0.2,0.2,0.5,0.4,0.8,0.5c-0.1,0-0.1-0.1-0.2-0.1c-0.5,0.5-1.3,1.9-1.3,2.9c0,1,0.9,2.4,1.5,2.9c0.6-0.5,1.6-1.3,3-1.6
	C111.9,27.9,112.2,28.3,112.7,28.7z M111.6,24.1c-0.9-0.3-2.7-1.2-3.3-1.7c-0.2-0.1-0.2-0.2,0-0.5c0.4-0.6,0.9-1.1,1.2-1.1
	c0.3,0,2.1,1,2,1.5C111.6,22.6,111.7,23.4,111.6,24.1L111.6,24.1z M111.7,26.8c-0.5,0-0.9,0.1-1.5,0.4c-0.5-0.4-1.8-1.9-0.8-3.7
	c-0.1-0.1-0.3-0.1-0.4-0.2c0.9,0.5,1.9,0.9,2.7,1.2c0,0.7,0,1.3,0,1.5C111.6,26.3,111.6,26.6,111.7,26.8z M106.4,18.6
	c-0.4,0-3.3,0.1-3.4-0.1c-0.2-0.6-0.3-1.4,0.2-2.4c0.2-0.5-0.2-0.7-0.4-0.2c-0.2,0.5-1.6,2.5-3.1,3.2c-0.8,0.3,0.9,1,0.8,1
	c0,1.9,0.3,4.8,0.7,6c0.3,0.7,1,1.8,1.6,1.5c0.3-0.2,1.1-1.7,1.3-1.9c0.4-0.3,0-0.9-0.3-0.6c-0.4,0.3-0.7-0.2-0.8-0.5
	c-0.1-0.3-0.5-4.6-0.3-4.6c0,0,3.4-0.4,3.7-0.4C106.6,19.4,106.7,18.6,106.4,18.6z M97,26.4l1.4-1.8c-1-0.2-1.4-0.4-2.2-1.2l0-4.5
	l-1.4-1.4l-0.5,0.1l-2.3,2c-0.2,0.3,0.4,0.3,0.7-0.1l1.6,0.9l0.1,4.4c0.1,0.5,0.6,1,1.2,1.7C95.7,26.4,97,26.4,97,26.4z M95.8,16.3
	l0.8-0.7v-1.1l-1.1-1l-1.1,0.9l0,1.3l0.7,0.7C95.2,16.3,95.8,16.3,95.8,16.3z M92.2,14.9c-0.6-0.1-2.6,0.1-3.3,0.2
	c-0.7,0.1-0.7,0.5-0.1,0.5c0.6,0.1,0.7,0.2,1,1c0.3,0.8-1.2,4.5-1.5,5.4c-0.4-0.6-2-4-2-4.5c0-0.3,0.7-0.7,1-0.7
	c0.6-0.2,0.6-0.6,0.1-0.6c-1.2-0.2-5.4-0.5-6.2-0.6c-0.5,0-0.8,0.6-0.1,0.6c0.7,0,1.4-0.2,2.1,0.9c0.9,1.2,3.5,7,4.2,9.4
	c0.3-0.5,3-8.2,3.1-9.1c0.2-0.8,0.8-1.6,1.5-1.8C92.9,15.3,92.8,15,92.2,14.9z M79.6,33.6c0,3.2,1.3,3.5,2.8,4.3
	c1.4,0.8,3.7,0.6,5.5,0.2c0.7-0.2,1-0.2,1,0.3c0,0.4,0.5,0.3,0.5,0c0-0.3,0-3,0-3.3c0-0.3-0.5-0.3-0.5,0c0,0.5,0,0.6-0.4,1.2
	c-1.2,1.8-4.2,1.7-5.8-0.5c-0.6-0.7-1.1-1.7-0.4-1.9c0.6-0.2,2.6,0.2,3.8,0.3c0.8,0,2.5,0.2,2.8,0.4c0.2,0.1,0.5,0.3,0.5-0.1
	c0-0.4,0-1.6,0-2c0-0.4-0.3-0.2-0.5-0.1c-0.2,0.2-2.1,0.5-2.9,0.6c-0.8,0.1-3.1,0.3-3.7,0.1c-0.6-0.2-0.4-1.5,0.1-2.2
	c1.6-2.2,4.9-2,6.1-0.2c0.4,0.6,0.4,0.8,0.4,1.2c0,0.3,0.5,0.3,0.5,0c0-0.3,0-3.6,0-3.8c0-0.3-0.5-0.3-0.5,0c0,0.2-0.5,0.4-1,0.2
	c-1-0.3-4,0.1-5.3,0.9C81.3,30.1,79.5,31.7,79.6,33.6L79.6,33.6z M80.1,39.3c0,0.9,0.4,8.8,0.3,9.9c-0.1,0.6,0.8,1.3,1.5,1.8
	c0.4-0.5,1.2-1.6,1.8-2.1c0.4-0.3,0.1-0.5-0.2-0.4c-0.6,0.3-1.2,0.1-1.3-0.6c-0.1-0.7-0.1-7.5,0-8.4C81.9,39.4,80.6,39.4,80.1,39.3z
	 M86.6,45.8c-0.5,0.5-1.5,1.8-1.4,2.7c0,1,0.5,1.9,1,2.4c1-0.7,1.6-1.6,3.1-2.2c0.2,0.7,0.7,0.9,1.3,1.3c0.4-0.4,1.7-2.1,2-2.4
	c0.3-0.3,0.1-0.6-0.3-0.3c-0.4,0.3-0.7,0.1-1.4-0.7c0-0.4,0-3.8,0.1-4c-0.6-0.7-1.2-1.6-2-1.6c-1.1,0.1-2.5,2-2.9,2.5
	c-0.3,0.4,0,1.8,0.2,1.9C86.5,45.7,86.6,45.7,86.6,45.8z M87.4,46.3c0.6,0.3,0.9,0.1,1.9,0c0,0.6,0,1.2,0,1.4
	c-0.4,0.3-0.9,0.6-1.5,0.9C87.2,48.3,86.5,47.9,87.4,46.3z M86.9,43.5c0.4-0.6,0.7-0.7,1-0.7c0.3,0,1.4,0.8,1.4,1.3
	c0.1,0.3,0.1,1,0.1,1.8c-0.8,0.1-1.4,0.2-2.4-0.6C86.7,45.1,86.7,43.9,86.9,43.5z M93.7,42.3c-0.7,0.4,1,1,0.8,1c0,1.9-0.4,5,0.2,6
	c0.4,0.6,1.3,1,1.9,0.8c0.6-0.2,1.3-1.4,1.6-1.6c0.4-0.3,0.1-0.7-0.3-0.3c-0.4,0.3-1.3,0.1-1.5-0.2c-0.1-0.4-0.2-4.5-0.1-4.6
	c0,0,1.2,0,1.5,0c0.2,0,0.3-0.8,0-0.8c-0.4,0-1.4-0.1-1.4-0.3c-0.1-0.4,0-1.7,0.3-2.2c0.3-0.5-0.2-0.7-0.4-0.2
	C96.2,40.3,95,41.7,93.7,42.3z M94,33.6c0.1,1.8-0.9,3.7-1.9,4.5c1.8-0.5,2-1.5,3-2.7c0.5,0.8,1.5,1.7,2.2,2.2c0.5-0.3,2-2,2.3-2.3
	c-1-0.3-3-1.3-3.5-2.5c-0.4-0.8-0.3-1.2,0.1-1.9c0.3,0.5,2.8,1.6,3.9-0.3c-1.2-0.4-2.3-1.2-2.6-1.9c-0.3,0.3-1.4,1.4-2,1.8
	c-0.1-0.6-1.1-1.3-1.9-1.5c-0.3,0.3-2.1,1.7-3,2.1c-0.3,0.1-0.2,0.7,0.2,0.6c0.4-0.2,0.9-0.6,1.6-0.9C93.1,31.2,94,32,94,33.6
	L94,33.6z M102.5,33.9c0.2-1.1,1-1.5,1.3-1.9c0.5,0.6,1,1.2,1.7,1.2c0.7,0,1.5-0.3,1.7-0.6c-0.6-0.5-2-1.9-2.3-2.2
	c-0.7,0.4-3.7,2-4,3.8c-0.4,2.7,0.5,3.2,1.7,4.7c0.7,0.8,1.8,0.9,2.3,0.7c0.5-0.4,2.5-2.3,2.7-2.5c0.2-0.2-0.1-0.4-0.3-0.2
	c-0.2,0.2-0.2,0.3-0.5,0.4c-0.3,0.1-1.7,0.3-2.5-0.1C103.5,36.6,102.2,35.4,102.5,33.9z M101,42.5c-0.4,0.5-1.2,1-2,1.8
	c0.6,0,1.1,0.2,1.4,0.8c0.3,0.6,0,3,0.1,3.9c0,0.9,0.6,1.1,1.3,1.9c0.7-0.2,2.7-1,3.4-1.5c-0.1,0.7,0.9,1.6,1.4,1.7
	c0.4-0.4,0.8-0.6,1.3-1.1c-0.5-0.4-0.5-0.4-0.7-1.1c-0.2-0.7,0-3.3,0.1-4.4c-0.4-0.6-1.1-1.4-1.8-1.9c-0.5,0.5-1.2,1.1-2,1.9
	c0.6-0.1,1.8,0.2,1.8,0.7c0,0.6,0.1,2,0,3.1c-0.1,1.1-3.1,0.6-3.1-0.1c-0.1-0.8,0.2-3,0.2-4C102,43.4,101.8,43,101,42.5L101,42.5z
	 M81.4,69.1V69c-1.7-0.2-3.1-1.4-4.6-2c-2.2-0.8-4.5,0.9-4.5,1.1c0,0.6,0.6,0.9,2.4-0.2c-1.4,1.6,0.2,2.9,0.2,2.9
	c-0.6-0.1-1.4-0.3-1.9-0.6c-0.1,0.6,0.7,0.8,1.1,1C76.9,72.4,78.8,69.6,81.4,69.1z M76.5,70.6c0,0,0.8-0.8,0.8-1.4
	c0-0.8-0.8-1.4-0.8-1.4c0.7,0.2,2.2,1.1,2.8,1.4L76.5,70.6z M60.5,48.5l0.8-0.9c-0.9-0.2-0.5-0.2-1-0.6l0-3.8l-1.2-1.8l-0.5,0.1
	l-1.9,1.8c-0.5,0.4-0.1,0.7,0.5,0.2l1.3,0.7l0,4c0.1,0.5,0.5,0.6,1.2,1.2C59.7,49.3,60.5,48.5,60.5,48.5z M61,35.2
	c0.6,1.8,2.2,2.4,3.3,2.5c0.3-0.6,1-1.6,1.3-2c0.5-0.7,0-1.1-0.4-0.3c-0.3,0.6-1.7-0.1-2.3-0.6c-0.7-0.7-1.2-2.4-0.6-3
	c0.6-0.6,1.4-0.3,2.5-0.4c0.7,0,0.9-0.7,1-1c-0.3-0.2-0.8-0.4-1.5-0.8c-0.7,0.4-1.7,1.3-2.2,1.7C61.5,31.8,60.3,33.4,61,35.2z
	 M63.7,45.3c-0.7,0.7-1.2,1.5-1.2,2.5c0,0.9,0.3,1.9,1.3,2.3c0.8-0.6,1.9-1.4,3-1.6c0.5,0.6,1.3,1,1.8,1.4c0.3-0.4,1.4-1.3,1.7-1.5
	c0.3-0.3,0-0.7-0.3-0.3c-0.2,0.3-1,0.1-1.2-0.3c0-0.4-0.4-4.6-0.2-4.8c-0.6-0.7-1.7-2.2-2.4-2.1c-1,0.1-2.6,1.6-2.9,2.1
	c-0.3,0.4,0.1,2.1,0.3,2.3C63.6,45.3,63.7,45.3,63.7,45.3z M66.4,45.7c-0.8,0-1.5-0.2-2.3-1c-0.2-0.1-0.3-1.1-0.1-1.4
	c0.4-0.6,0.4-0.8,0.7-0.8c0.3,0,1.8,0.9,1.7,1.5C66.5,44.3,66.5,45,66.4,45.7z M64.4,45.8c0.7,0.5,1.1,0.4,2,0.3
	c0,0.5-0.1,0.9-0.1,1.1c0,0.2,0.1,0.4,0.2,0.6C66,48,65.4,48.1,65,48.4C64.5,48,63,47,64.4,45.8z M70.2,38l0.9-0.9
	c-1-0.2-1-0.1-1.5-0.6l0-4.4l-0.8-1.2l-0.4,0.1l-1.9,1.8c-0.5,0.5-0.1,0.7,0.5,0.2l1,0.6l0,4.2c0.1,0.5,0.5,0.7,1.2,1.3L70.2,38z
	 M68.7,22.5c-0.4,0-1,0.7,1.3,0.9C70.4,23.5,70.9,22.6,68.7,22.5z M68.8,21.1c-0.4,0-1,1,1.3,0.9C70.5,22,70.7,21.2,68.8,21.1z
	 M69.2,28.1l-1-1l-1,0.9l0,1.2l0.6,0.6h0.6l0.7-0.7C69.2,29.1,69.2,28.1,69.2,28.1z M67.2,18.6c-0.7-0.5-1.4-1.6-3-1.7
	c-1.6-0.1-3.5,1.4-4.1,2.3c-0.8,1.2,0.2,2.3,1.2,3.1c-0.7,0.6-1.6,1.4-2.4,2.2c0.3,0.4,2.2,1.3,3.3,1.2c1.6,0,3-0.9,3.9-1.6
	c1.6-1.3,1.1-2.7-0.6-3.7c-0.2-0.1-0.3-0.1-0.5-0.2C66.1,19.6,67,18.9,67.2,18.6z M63,22c0.5,0.2,1.1,0.5,1.7,0.9
	c0.9,0.5,0.4,1.5-0.5,1.9c-1,0.4-2.7-0.8-3-1.3C61.6,23.1,62.3,22.6,63,22z M64.8,19.7c-0.1,0.1-0.6,0.5-1,0.8c-0.3,0-0.5,0.1-0.8,0
	c-0.8-0.1-1.2-0.7-1.6-1.2c-0.4-0.5,0.6-1,1.1-0.9C63,18.5,64.1,19.1,64.8,19.7z M58,23.3c-2.4,0.6-3.6-1.3-3.8-1.9
	c1-1,2.6-2.6,3.7-3.5c-0.7-0.6-0.9-1.6-2.1-1.7c-1,0-3.5,1.2-3.9,4.3c-0.4,3,2.4,4.6,4.6,4.6c0.7,0,1.6-0.9,2.1-1.2
	C59.4,23.5,59.1,23,58,23.3z M54,20.8c-0.6-2-0.4-2.6,0.8-3.6c0.3,0.7,1,1.2,1.4,1.4C55.5,19.3,54.4,20.5,54,20.8z M51.2,19.1
	c0.4-0.4,0-0.7-0.4-0.3c-0.3-0.3-1-1.1-1.3-1.5c-0.4,0.3-1.3,0.9-1.8,1.2c-0.4-0.5-0.9-0.5-1.7-1.1c-0.4,0.3-1.4,1.1-1.9,1.7
	c0.9,0.3,1.6,0.3,1.7,1.1c0,0.6-0.1,4.6,0,5.4c0.5,0.1,1.1,0.1,1.8,0c0.1-0.6,0-5.6,0-6.1c0.3-0.1,0.5-0.3,0.7-0.4
	c0.3,0.2,0.9,1.1,1.3,1.3C49.9,20.1,50.8,19.5,51.2,19.1z M43.5,29.4c-1.1,0.1-2.6,1.3-3,2.4c-0.2,0.4,0.1,2,0.3,2.1
	c0.1,0.1,0.2,0.2,0.4,0.3c-0.7,0.6-1.3,1.2-1.3,2.1c0,0.9,0.8,1.7,1.7,2.2c0.5-0.8,1.3-1.2,2.1-1.4c0.1,0.7,0.2,1.3,0.7,1.6
	c0.3-0.4,1.7-1.6,2-1.9c0.3-0.3,0.1-0.6-0.3-0.3c-0.2,0.2-0.7-0.1-0.8-0.3c0-0.4,0-4.6,0.2-4.8C44.8,30.8,44.2,29.3,43.5,29.4z
	 M43.6,33.7c-1.2,0.8-1.5,0.7-2.4-0.2c-0.4-0.5-0.4-1.3-0.2-1.7c0.4-0.6,1-1.1,1.3-1.1c0.3,0,1.2,1.2,1.1,1.7
	C43.6,32.7,43.6,33.2,43.6,33.7z M43.6,35.8c0,0.2,0,0.4,0,0.6c-0.2,0.1-0.5,0.1-0.8,0.3c-0.4-0.4-2.5-1-1.1-2.1
	c0.8,0.5,1.1,0.1,1.9-0.4C43.6,34.9,43.6,35.6,43.6,35.8L43.6,35.8z M42.7,26.9c-0.1-0.2-0.4-0.5-0.4-0.8c0-0.2,0-2.8,0-3.1
	c0-0.3-0.6-0.3-0.6,0c0,0.5,0,1.2-0.4,1.9c-1.1,1.7-3.3,2.4-4.8,0.3c-0.5-0.7-0.6-1.8-0.7-2.5c-0.1-1,0.7-2.3,0.7-2.5
	c1.9-2.5,4.6-0.6,4.8,0.4c0.1,0.7,0.3,1.5,0.3,1.9c0,0.3,0.6,0.3,0.6,0c0-0.3,0-4.2,0-4.4c0-0.2-0.5-0.3-0.5,0
	c0,0.6-0.4,0.7-0.9,0.5c-1-0.3-3.1-0.7-4.3,0c-1.1,0.6-2.8,2.2-2.7,4c0,3.1,1.2,3.4,2.6,4.2c1.3,0.8,3.1,0.3,4.7-0.2
	c0.6-0.2,0.7,0.2,1,0.7C42.7,27.9,43.1,27.4,42.7,26.9z M34.1,31.3c-1.1,1.7-1.7,4.3,0.2,5.8c0.9,0.7,1.6,1.3,3.4,1
	c0.4-0.7,0.5-0.9,1.1-1.8c-1.2,0.2-2.2,0-3.1-0.7c-1.9-1.4-1.3-3.8-0.7-4.6c1-1.5,2.4,0.6,2.7,0.9c0.3-0.4,0.9-1,1.5-1.4
	c-0.6-0.7-1-1.4-1.4-1.9C36.6,29.1,34.8,30.2,34.1,31.3L34.1,31.3z M34.8,45.6c-0.4,3,2.4,4.7,3.7,5.3c0.3-0.7,1-1.8,1.7-2.6
	c0.5-0.6-0.1-0.8-0.5-0.3c-0.6,0.7-2.5,0-3-0.9c0.9-0.7,3.2-2.6,4.2-3.5c-0.7-0.6-1.7-2.2-1.9-3.1C38.3,41.2,35.3,42.5,34.8,45.6z
	 M37.7,42.3c0.3,0.7,1.1,2,1.5,2.2c-0.7,0.7-2.3,1.8-2.8,2.1C35.6,45.6,35.2,43.9,37.7,42.3z M43.9,41.3c-0.6,0.5-1,1-1.9,1.7
	c0.4,0.5,1.1,1,1.1,1.8c0.1,0.8,0,4.4,0.1,5.4c0.6,0,0.5,0.1,1.6,0c-0.1-0.6,0-5.4,0-6c0.4-0.4,0.5-0.4,0.9-0.8
	c0.3,0.3,1.1,0.5,1.1,1c0,0.5,0.2,2.8,0,3.6c-0.2,1-0.1,1.7,0.4,2.8c0.4-0.5,2-1.6,2.3-1.8c0.3-0.3,0.2-0.5-0.3-0.4
	c-0.5,0.1-0.5,0.2-0.5-0.1c0-0.5-0.2-3-0.2-4.6c-0.1-1.6-0.8-2-1.3-2.3c-0.5,0.5-1.5,1.1-2.1,1.7C44.6,42.8,44.4,42.1,43.9,41.3z
	 M50.2,37.4c0.5-0.4,0.9-1.1,1.1-1.3c0.4-0.3,0.1-0.7-0.3-0.4c-0.3,0.3-1-0.4-1-0.4c-0.2-0.3-0.6-3.9-0.4-4c0,0,2.3-0.3,2.6-0.3
	c0.2,0,0.3-0.7,0-0.7c-0.4,0-2.1,0.2-2.2,0.1c-0.1-0.4-0.3-1.7,0.2-2.8c0.3-0.5,0-1-0.2-0.5c-0.2,0.5-1.6,2.7-2.6,3.1
	c-0.8,0.3-0.7,0.5-0.2,0.6c0.4,0.1,0.8,0.5,0.7,0.5c-0.1,1.9-0.3,4.2,0.3,5.1C48.8,37.2,49.8,37.8,50.2,37.4z M58.1,38.3
	c-0.3,0.6-0.7,1.1-1.6,1.5c0.5,0.4,1.2,1,1.6,1.3c0.5-0.6,1-1.1,1.5-1.6C59.1,39.3,58.5,39,58.1,38.3z M54.5,36.2
	c0.7-0.1,1.9,0.4,3.2,0.3c1.6-0.1,2.8-2.5,2.1-4.4c-0.6-1.8-2.6-1.5-3.9-1.9c-1.2-0.3-1.7-1.1-0.4-2c1.6-1,3.5,0.6,3.7,1
	c0.3,0.5,0.5,0.5,0.5-0.2c0-1.5-0.1-0.6-0.2-2c0-0.5-0.4-0.5-0.4-0.1c0,0.5-0.6,0.3-1.1,0.3c-0.5,0-1.8-0.2-2.9,0.4
	c-0.7,0.4-2.4,1.7-1.4,3.3c0.5,0.9,3.7,1.6,4.5,2.2c0.8,0.5,1,1.9,0.2,2.5c-0.9,0.7-3.5,0.1-3.9-0.3c-0.5-0.6-0.7-1-0.8-1.7
	c-0.1-0.7-0.7-0.6-0.7,0c0,0.6,0.1,2.8,0.3,3.3c0.1,0.5,0.6,0.3,0.7,0C53.9,36.3,54.2,36.2,54.5,36.2z M51.2,42.9
	c-0.6,0.5,0.7,1.1,0.6,1c0,1.9-0.2,3.8,0.4,4.7c0.4,0.6,1.7,1,1.9,0.5c0.2-0.6,1.2-1.7,1.4-1.9c0.4-0.3,0-0.7-0.3-0.3
	c-0.7,0.7-1.1,0.4-1.6-0.1c-0.2-0.3-0.3-2.9-0.2-3c0,0,1.3-0.2,1.6-0.2c0.2,0,0.2-0.7,0-0.7c-0.4,0-1.5,0-1.6-0.2
	c-0.1-0.4,0.2-2.1,0.3-2.9c0.1-0.6-0.2-0.7-0.4-0.2C53.1,40.1,51.9,42.3,51.2,42.9z"/>
</svg>
