<?xml version="1.0" encoding="utf-8"?>
<!-- Generator: Adobe Illustrator 22.0.1, SVG Export Plug-In . SVG Version: 6.00 Build 0)  -->
<svg version="1.1" id="Layer_1" xmlns="http://www.w3.org/2000/svg" xmlns:xlink="http://www.w3.org/1999/xlink" x="0px" y="0px"
	 viewBox="0 0 150 49.7" style="enable-background:new 0 0 150 49.7;" xml:space="preserve">
<path d="M1.1,34.7c-0.2-1.6-0.1-3.8-0.1-5L3.4,3.1h8.7L9.7,30c-0.5,5.9,1.8,10,7.6,10c5.9,0,9.1-4.2,9.6-9.4l2.5-27.6h8.8l-2.4,27.2
	c-1,10.5-7.9,18.3-19.2,18.3C7.8,48.6,2.2,42.9,1.1,34.7 M41.7,25.7c1.1-12.8,9.8-23.5,24.7-23.5c4,0,7.8,0.9,11.5,3.4l-1,10.6
	c-3.4-4.6-7.5-5.3-11.3-5.3c-9.3,0-14.4,6.5-15.1,14.6c-0.7,8,3.4,14.5,12.5,14.5c3.9,0,8.1-1.1,12.5-5.5l-1,10.9
	c-4.2,2.3-8.2,3.3-12.2,3.3C47.4,48.7,40.6,37.7,41.7,25.7 M85,3.1h8.7l-3.2,36.3H103c0.9,0,3.9,0,4.7,0c0,0.4-0.8,8.3-0.8,8.3H81
	L85,3.1 M132.7,1H132l-23.9,46.6h9.3l3.3-7.1h16.9l2.1,7.1h9.2L132.7,1 M130.5,19.7c0.3-0.6,0.5-1.4,0.6-1.8h0.1
	c0,0.6,0.1,1.2,0.3,1.9c0.5,2,3.9,13.3,3.9,13.3h-11C124.4,33,130.3,20,130.5,19.7L130.5,19.7z"/>
</svg>
